<svg xmlns="http://www.w3.org/2000/svg" xmlns:xlink="http://www.w3.org/1999/xlink" viewBox="220.7 -63.9 256 256" width="256px" height="256px">
  <defs>
    <path id="a" d="M436 163.6l-16.4-28.3a110 110 0 1 0-141.8.1l-16.4 28.3a7 7 0 0 0-.9 2.8l-1.4 18.5c-.1.7.3 1.3.9 1.7.6.4 1.3.3 1.9-.1l15.4-10.4a8 8 0 0 0 2-2.1l15.5-26.8a109 109 0 0 0 107.9-.1l15.5 26.8c.5.9 1.2 1.6 2 2.1l15.4 10.5c.6.4 1.3.4 1.9.1.6-.4.9-1 .9-1.7l-1.4-18.5c-.2-1-.4-2-1-2.9z"/>
  </defs>
  <clipPath id="b">
    <use overflow="visible" xlink:href="#a"/>
  </clipPath>
  <path fill="#7CB342" d="M348.7-58.7a110 110 0 0 0-110 110h220c.1-60.8-49.2-110-110-110z" clip-path="url(#b)"/>
  <defs>
    <path id="c" d="M436 163.6l-16.4-28.3a110 110 0 1 0-141.8.1l-16.4 28.3a7 7 0 0 0-.9 2.8l-1.4 18.5c-.1.7.3 1.3.9 1.7.6.4 1.3.3 1.9-.1l15.4-10.4a8 8 0 0 0 2-2.1l15.5-26.8a109 109 0 0 0 107.9-.1l15.5 26.8c.5.9 1.2 1.6 2 2.1l15.4 10.5c.6.4 1.3.4 1.9.1.6-.4.9-1 .9-1.7l-1.4-18.5c-.2-1-.4-2-1-2.9z"/>
  </defs>
  <clipPath id="d">
    <use overflow="visible" xlink:href="#c"/>
  </clipPath>
  <path fill="#8BC34A" d="M348.7 51.3h-110a110 110 0 0 0 220 0h-110z" clip-path="url(#d)"/>
  <defs>
    <path id="e" d="M436 163.6l-16.4-28.3a110 110 0 1 0-141.8.1l-16.4 28.3a7 7 0 0 0-.9 2.8l-1.4 18.5c-.1.7.3 1.3.9 1.7.6.4 1.3.3 1.9-.1l15.4-10.4a8 8 0 0 0 2-2.1l15.5-26.8a109 109 0 0 0 107.9-.1l15.5 26.8c.5.9 1.2 1.6 2 2.1l15.4 10.5c.6.4 1.3.4 1.9.1.6-.4.9-1 .9-1.7l-1.4-18.5c-.2-1-.4-2-1-2.9z"/>
  </defs>
  <clipPath id="f">
    <use overflow="visible" xlink:href="#e"/>
  </clipPath>
  <path fill="#FFF" d="M348.7-57.5a110 110 0 0 1 110 109.4v-.6a110 110 0 0 0-220 0v.6a110.1 110.1 0 0 1 110-109.4z" clip-path="url(#f)" opacity=".2"/>
  <defs>
    <path id="g" d="M436 163.6l-16.4-28.3a110 110 0 1 0-141.8.1l-16.4 28.3a7 7 0 0 0-.9 2.8l-1.4 18.5c-.1.7.3 1.3.9 1.7.6.4 1.3.3 1.9-.1l15.4-10.4a8 8 0 0 0 2-2.1l15.5-26.8a109 109 0 0 0 107.9-.1l15.5 26.8c.5.9 1.2 1.6 2 2.1l15.4 10.5c.6.4 1.3.4 1.9.1.6-.4.9-1 .9-1.7l-1.4-18.5c-.2-1-.4-2-1-2.9z"/>
  </defs>
  <clipPath id="h">
    <use overflow="visible" xlink:href="#g"/>
  </clipPath>
  <path fill="#263238" d="M348.7 160a110 110 0 0 1-110-109.4v.6a110 110 0 0 0 220 0v-.6a110 110 0 0 1-110 109.4z" clip-path="url(#h)" opacity=".2"/>
  <defs>
    <path id="i" d="M436 163.6l-16.4-28.3a110 110 0 1 0-141.8.1l-16.4 28.3a7 7 0 0 0-.9 2.8l-1.4 18.5c-.1.7.3 1.3.9 1.7.6.4 1.3.3 1.9-.1l15.4-10.4a8 8 0 0 0 2-2.1l15.5-26.8a109 109 0 0 0 107.9-.1l15.5 26.8c.5.9 1.2 1.6 2 2.1l15.4 10.5c.6.4 1.3.4 1.9.1.6-.4.9-1 .9-1.7l-1.4-18.5c-.2-1-.4-2-1-2.9z"/>
  </defs>
  <clipPath id="j">
    <use overflow="visible" xlink:href="#i"/>
  </clipPath>
  <g fill-opacity=".1" clip-path="url(#j)">
    <path fill="#263238" d="M225.9 50h245.6v1.3H225.9z"/>
    <path fill="#FFF" d="M225.9 51.3h245.6v1.3H225.9z"/>
  </g>
  <defs>
    <path id="k" d="M436 163.6l-16.4-28.3a110 110 0 1 0-141.8.1l-16.4 28.3a7 7 0 0 0-.9 2.8l-1.4 18.5c-.1.7.3 1.3.9 1.7.6.4 1.3.3 1.9-.1l15.4-10.4a8 8 0 0 0 2-2.1l15.5-26.8a109 109 0 0 0 107.9-.1l15.5 26.8c.5.9 1.2 1.6 2 2.1l15.4 10.5c.6.4 1.3.4 1.9.1.6-.4.9-1 .9-1.7l-1.4-18.5c-.2-1-.4-2-1-2.9z"/>
  </defs>
  <clipPath id="l">
    <use overflow="visible" xlink:href="#k"/>
  </clipPath>
  <g clip-path="url(#l)">
    <linearGradient id="m" x1="31.7" x2="510.1" y1="5.6" y2="-472.8" gradientTransform="matrix(.2559 0 0 -.2559 283.5 33.5)" gradientUnits="userSpaceOnUse">
      <stop offset=".3" stop-color="#263238" stop-opacity=".2"/>
      <stop offset="1" stop-color="#263238" stop-opacity="0"/>
    </linearGradient>
    <path fill="url(#m)" d="M428 51.5v-.2h-5.1l-61.4-61.4H336v20.6h-6.5c-6.3 0-11.5 5.2-11.5 11.5v26.1h.1c-.1.9.5 2 1.7 3.3l.1.2 4 4-46.1 79.9a109.8 109.8 0 0 0 142 0 110 110 0 0 0 34.5-52.8l1.1-3.8L428 51.5z"/>
    <linearGradient id="n" x1="-79.1" x2="310.9" y1="-287.2" y2="-148.9" gradientTransform="matrix(.2559 0 0 -.2559 283.5 33.5)" gradientUnits="userSpaceOnUse">
      <stop offset=".3" stop-color="#263238" stop-opacity=".2"/>
      <stop offset="1" stop-color="#263238" stop-opacity="0"/>
    </linearGradient>
    <path fill="url(#n)" d="M428 51.5v-.2h-5.1l-61.4-61.4H336v20.6h-6.5c-6.3 0-11.5 5.2-11.5 11.5v26.1h.1c-.1.9.5 2 1.7 3.3l.1.2 4 4-46.1 79.9a109.8 109.8 0 0 0 142 0 110 110 0 0 0 34.5-52.8l1.1-3.8L428 51.5z"/>
  </g>
  <defs>
    <path id="o" d="M436 163.6l-16.4-28.3a110 110 0 1 0-141.8.1l-16.4 28.3a7 7 0 0 0-.9 2.8l-1.4 18.5c-.1.7.3 1.3.9 1.7.6.4 1.3.3 1.9-.1l15.4-10.4a8 8 0 0 0 2-2.1l15.5-26.8a109 109 0 0 0 107.9-.1l15.5 26.8c.5.9 1.2 1.6 2 2.1l15.4 10.5c.6.4 1.3.4 1.9.1.6-.4.9-1 .9-1.7l-1.4-18.5c-.2-1-.4-2-1-2.9z"/>
  </defs>
  <clipPath id="p">
    <use overflow="visible" xlink:href="#o"/>
  </clipPath>
  <g clip-path="url(#p)">
    <path fill="#646464" d="M436.9 166.5a7 7 0 0 0-.9-2.8l-32-55.5a79.3 79.3 0 0 0 24.1-56.9h-20.5c0 14.6-5.4 28-14.3 38.4l-19.8-34.2 4-4c1.3-1.3 1.8-2.5 1.8-3.4h.1V22c0-6.3-5.2-11.5-11.5-11.5h-6.4v-20.6H336v20.6h-6.5c-6.3 0-11.5 5.2-11.5 11.5v26.1h.1c-.1 1 .5 2.1 1.8 3.4l4 4-62.5 108.1a7 7 0 0 0-.9 2.8l-1.4 18.6c-.1.7.3 1.3.9 1.7.6.4 1.3.3 1.9-.1l15.4-10.4a8 8 0 0 0 2-2.1l30.9-53.5a78.7 78.7 0 0 0 77.2 0l30.9 53.4c.5.9 1.2 1.6 2 2.1l15.4 10.5c.6.4 1.3.4 1.9.1.6-.4.9-1 .9-1.7l-1.6-18.5zM348.7 20.6v-.2l.1.2c8.4.1 15.3 6.9 15.3 15.4s-6.9 15.3-15.3 15.4h-.1a15.4 15.4 0 0 1 0-30.8zm0 89.5c-10.3 0-20-2.7-28.3-7.3L339 70.6l3.9 3.9a8.1 8.1 0 0 0 5.7 2.4v-.1l.1.1c2.1 0 4.2-.8 5.7-2.4l3.9-3.9 18.6 32.3a57.6 57.6 0 0 1-28.2 7.2z"/>
  </g>
  <defs>
    <path id="q" d="M436 163.6l-16.4-28.3a110 110 0 1 0-141.8.1l-16.4 28.3a7 7 0 0 0-.9 2.8l-1.4 18.5c-.1.7.3 1.3.9 1.7.6.4 1.3.3 1.9-.1l15.4-10.4a8 8 0 0 0 2-2.1l15.5-26.8a109 109 0 0 0 107.9-.1l15.5 26.8c.5.9 1.2 1.6 2 2.1l15.4 10.5c.6.4 1.3.4 1.9.1.6-.4.9-1 .9-1.7l-1.4-18.5c-.2-1-.4-2-1-2.9z"/>
  </defs>
  <clipPath id="r">
    <use overflow="visible" xlink:href="#q"/>
  </clipPath>
  <g clip-path="url(#r)">
    <path fill="#E1E1E1" d="M436.9 166.5a7 7 0 0 0-.9-2.8l-32-55.5-10.6-18.5-19.8-34.2-15.1 15.1 18.6 32.3 10.2 17.7 30.9 53.4c.5.9 1.2 1.6 2 2.1l15.4 10.5c.6.4 1.3.4 1.9.1.6-.4.9-1 .9-1.7l-1.5-18.5z"/>
    <path fill="#FFF" fill-opacity=".4" d="M393.3 90.9l10.6 18.5 32.1 55.5c.5.9.8 1.8.9 2.8l1.3 17.6.1-.4-1.4-18.5a7 7 0 0 0-.9-2.8l-32-55.5-10.6-18.5-19.8-34.2-.6.7 20.3 34.8z"/>
    <path fill="#262626" fill-opacity=".2" d="M437.4 185.3c-.6.4-1.3.3-1.9-.1l-15.4-10.5a8 8 0 0 1-2-2.1l-30.9-53.4-10.2-17.7-18-31.4-.5.5 18.6 32.3 10.2 17.7 30.9 53.4c.5.9 1.2 1.6 2 2.1l15.4 10.5c.6.4 1.3.4 1.9.1.6-.4.9-1 .9-1.7l-.1-.9c-.2.5-.4 1-.9 1.2z"/>
    <path fill="#F1F1F1" d="M407.6 51.3a58.9 58.9 0 0 1-87.2 51.6L339 70.6l-15.1-15.1-62.5 108.2a7 7 0 0 0-.9 2.8l-1.4 18.6c-.1.7.3 1.3.9 1.7.6.4 1.3.3 1.9-.1l15.4-10.4a8 8 0 0 0 2-2.1l30.9-53.5a78.7 78.7 0 0 0 93.8-12.4 79.3 79.3 0 0 0 24.1-56.9l-20.5-.1z"/>
    <path fill="none" d="M354.5 74.5a8.1 8.1 0 0 1-5.7 2.4l-.1-.1v.1c-2.1 0-4.2-.8-5.7-2.4l-3.9-3.9-18.6 32.2a57.9 57.9 0 0 0 56.7 0l-18.6-32.3-4.1 4z"/>
    <path fill="#FFF" fill-opacity=".4" d="M261.4 164.9L324.6 56l-.7-.6-62.5 108.2a7 7 0 0 0-.9 2.8l-1.4 18.6.1.4 1.3-17.6c.2-1 .4-2 .9-2.9zm87.3-53.5a59 59 0 0 0 58.9-58.9H428l.1-1.3h-20.5a58.9 58.9 0 0 1-86.7 51.8l-.6 1a58.6 58.6 0 0 0 28.4 7.4z"/>
    <path fill="#262626" fill-opacity=".2" d="M320.4 102.7L339 70.6l-.5-.5-18.7 32.3.6.3zm83.6 4.1a78.7 78.7 0 0 1-93.8 12.4l-30.9 53.5c-.5.9-1.2 1.6-2 2.1l-15.4 10.4c-.6.4-1.3.4-1.9.1-.5-.3-.7-.8-.8-1.3l-.1.9c-.1.7.3 1.3.9 1.7.6.3 1.3.3 1.9-.1l15.4-10.4a8 8 0 0 0 2-2.1l30.9-53.5a78.7 78.7 0 0 0 93.8-12.4 79.3 79.3 0 0 0 24.1-56.9h-.1a79 79 0 0 1-24 55.6z"/>
    <path fill="#646464" d="M367.9 10.4h-6.4v-20.6H336v20.6h-6.5c-6.3 0-11.5 5.2-11.5 11.5V48h.1c-.1 1 .5 2.1 1.8 3.4L343 74.5a8.1 8.1 0 0 0 5.7 2.4v-.1l.1.1c2.1 0 4.2-.8 5.7-2.4l23.1-23.1c1.3-1.3 1.8-2.5 1.8-3.4h.1V22a11.7 11.7 0 0 0-11.6-11.6zm-19.1 40.9h-.1a15.4 15.4 0 0 1 0-30.8v-.2l.1.2c8.4.1 15.3 6.9 15.3 15.4s-6.9 15.3-15.3 15.4z"/>
    <path fill="#FFF" d="M361.5-8.9v-1.3H336v1.3h25.5z" opacity=".2"/>
    <path fill="#FFF" fill-opacity=".2" d="M348.8 50h-.1c-8.2 0-14.9-6.6-15.3-14.7l-.1.6c0 8.4 6.9 15.4 15.3 15.4h.1c8.4-.1 15.3-6.9 15.3-15.4l-.1-.6A15.2 15.2 0 0 1 348.8 50z"/>
    <path fill="#FFF" d="M329.6 11.7h6.5v-1.3h-6.5c-6.3 0-11.5 5.2-11.5 11.5v1.3a11.4 11.4 0 0 1 11.5-11.5zm38.3-1.3h-6.4v1.3h6.4c6.3 0 11.5 5.2 11.5 11.5V22c0-6.4-5.1-11.6-11.5-11.6z" opacity=".2"/>
    <path fill="#262626" d="M348.8 20.6l-.1-.2v.2c-8.4 0-15.3 6.9-15.3 15.4l.1.6c.4-8.2 7.1-14.7 15.3-14.7v-.2l.1.2c8.2.1 14.9 6.6 15.2 14.7l.1-.6c-.1-8.5-7-15.4-15.4-15.4z" opacity=".2"/>
    <path fill="#262626" fill-opacity=".2" d="M377.6 50.2l-23.1 23.1a8.1 8.1 0 0 1-5.7 2.4l-.1-.1v.1c-2.1 0-4.2-.8-5.7-2.4l-23.1-23.1c-1.3-1.3-1.8-2.5-1.8-3.4h-.1v1.3h.1c-.1 1 .5 2.1 1.8 3.4l23.1 23a8.1 8.1 0 0 0 5.7 2.4v-.1l.1.1c2.1 0 4.2-.8 5.7-2.4l23.1-23.1c1.3-1.3 1.8-2.5 1.8-3.4h.1v-1.3h-.1c0 1-.5 2.2-1.8 3.5z"/>
    <path fill="none" d="M348.7 51.3h.1c8.4-.1 15.3-6.9 15.3-15.4s-6.9-15.3-15.3-15.4l-.1-.2v.2a15.4 15.4 0 0 0 0 30.8z"/>
  </g>
  <radialGradient id="s" cx="-48.1" cy="205.6" r="1061.7" gradientTransform="matrix(.2559 0 0 -.2559 283.5 33.5)" gradientUnits="userSpaceOnUse">
    <stop offset="0" stop-color="#fff"/>
    <stop offset="1" stop-color="#fff" stop-opacity="0"/>
  </radialGradient>
  <path fill="url(#s)" fill-opacity=".1" d="M436 163.6l-16.4-28.3a110 110 0 1 0-141.8.1l-16.4 28.3a7 7 0 0 0-.9 2.8l-1.4 18.5c-.1.7.3 1.3.9 1.7.6.4 1.3.3 1.9-.1l15.4-10.4a8 8 0 0 0 2-2.1l15.5-26.8a109 109 0 0 0 107.9-.1l15.5 26.8c.5.9 1.2 1.6 2 2.1l15.4 10.5c.6.4 1.3.4 1.9.1.6-.4.9-1 .9-1.7l-1.4-18.5c-.2-1-.4-2-1-2.9z"/>
  <path fill="none" d="M225.9-58.7h245.6v245.6H225.9z"/>
</svg>
