<svg xmlns="http://www.w3.org/2000/svg" width="300" height="300" preserveAspectRatio="xMinYMin meet"><rect id="backgroundrect" width="100%" height="100%" x="0" y="0" fill="none" stroke="none" style="" class=""/><g class="currentLayer" style=""><title>Layer 1</title><path d="M22.5563907623291,245.54739076232912 C22.5563907623291,263.7793907623291 37.3353907623291,278.5563907623291 55.5653907623291,278.5563907623291 H245.5463907623291 C263.7793907623291,278.5563907623291 278.5563907623291,263.7773907623291 278.5563907623291,245.54739076232912 V55.5663907623291 C278.5563907623291,37.3333907623291 263.7773907623291,22.5563907623291 245.54739076232912,22.5563907623291 H55.5663907623291 C37.3333907623291,22.5563907623291 22.5563907623291,37.3353907623291 22.5563907623291,55.5653907623291 V245.5463907623291 z" fill="#563D7C" id="svg_1" class="selected"/><path d="M128.71439076232912,135.7943907623291 V99.5413907623291 h31.911 c3.04,0 5.97,0.253 8.792,0.7600000000000073 c2.822,0.506 5.319,1.4100000000000001 7.49,2.713 c2.17,1.303 3.907,3.112 5.21,5.427 c1.302,2.316 1.9540000000000002,5.283 1.9540000000000002,8.9 c0,6.513 -1.9540000000000002,11.217 -5.862,14.111 c-3.907,2.895 -8.9,4.3420000000000005 -14.979,4.3420000000000005 h-34.516 zM94.6313907623291,73.0563907623291 v155 h75.112 c6.947,0 13.713000000000001,-0.8680000000000069 20.298000000000002,-2.605 c6.585,-1.737 12.446,-4.414 17.584,-8.032 c5.1370000000000005,-3.6180000000000003 9.226,-8.286 12.265,-14.002 c3.04,-5.7170000000000005 4.559,-12.483 4.559,-20.298000000000002 c0,-9.697000000000001 -2.352,-17.982 -7.055,-24.856 c-4.704,-6.875 -11.832,-11.687 -21.384,-14.437 c6.947,-3.3280000000000003 12.194,-7.598 15.74,-12.808 c3.545,-5.21 5.318,-11.722 5.318,-19.538 c0,-7.236 -1.194,-13.314 -3.582,-18.235 c-2.388,-4.92 -5.753,-8.864 -10.095,-11.831 c-4.341,-2.967 -9.551,-5.102 -15.63,-6.404 c-6.078,-1.303 -12.808,-1.9540000000000002 -20.189,-1.9540000000000002 H94.6313907623291 zm34.083,128.515 v-42.549 h37.121 c7.381,0 13.315,1.7000000000000002 17.802,5.102 c4.486,3.401 6.73,9.081 6.73,17.041 c0,4.053 -0.6880000000000089,7.381 -2.063,9.986 c-1.375,2.605 -3.22,4.668 -5.536,6.187 c-2.315,1.52 -4.993,2.605 -8.032,3.257 c-3.04,0.6500000000000078 -6.223,0.976 -9.552,0.976 h-36.47 z" fill="#FFF" id="svg_2" class="selected"/></g></svg>