<svg xmlns="http://www.w3.org/2000/svg" xmlns:xlink="http://www.w3.org/1999/xlink" width="350" height="350" preserveAspectRatio="xMidYMid" style=""><rect id="backgroundrect" width="100%" height="100%" x="0" y="0" fill="none" stroke="none" style="" class=""/><defs><path d="M1.253 280.732l1.605-3.131 99.353-188.518-44.15-83.475C54.392-1.283 45.074.474 43.87 8.188L1.253 280.732z" id="a"/><filter x="-50%" y="-50%" width="200%" height="200%" filterUnits="objectBoundingBox" id="b"><feGaussianBlur stdDeviation="17.5" in="SourceAlpha" result="shadowBlurInner1"/><feOffset in="shadowBlurInner1" result="shadowOffsetInner1"/><feComposite in="shadowOffsetInner1" in2="SourceAlpha" operator="arithmetic" k2="-1" k3="1" result="shadowInnerInner1"/><feColorMatrix values="0 0 0 0 0 0 0 0 0 0 0 0 0 0 0 0 0 0 0.06 0" in="shadowInnerInner1"/></filter><path d="M134.417 148.974l32.039-32.812-32.039-61.007c-3.042-5.791-10.433-6.398-13.443-.59l-17.705 34.109-.53 1.744 31.678 58.556z" id="c"/><filter x="-50%" y="-50%" width="200%" height="200%" filterUnits="objectBoundingBox" id="d"><feGaussianBlur stdDeviation="3.5" in="SourceAlpha" result="shadowBlurInner1"/><feOffset dx="1" dy="-9" in="shadowBlurInner1" result="shadowOffsetInner1"/><feComposite in="shadowOffsetInner1" in2="SourceAlpha" operator="arithmetic" k2="-1" k3="1" result="shadowInnerInner1"/><feColorMatrix values="0 0 0 0 0 0 0 0 0 0 0 0 0 0 0 0 0 0 0.09 0" in="shadowInnerInner1"/></filter></defs><g class="currentLayer" style=""><title>Layer 1</title><path d="M46.21212077140808,282.998 l2.123,-2.972 L148.73912077140807,89.512 l0.21200000000000024,-2.017 L104.69212077140807,4.358 C100.98212077140809,-2.606 90.54212077140808,-0.8450000000000006 89.32612077140809,6.9510000000000005 L46.21212077140808,282.998 z" fill="#FFC24A" id="svg_1" class=""/><use fill="#FFA712" fill-rule="evenodd" xlink:href="#a" id="svg_2" class="" y="0" x="46.21212077140808"/><use filter="url(#b)" xlink:href="#a" id="svg_3" class="" y="0" x="46.21212077140808"/><path d="M181.21712077140808,150.38 l32.955,-33.75 l-32.965,-62.93 c-3.129,-5.957 -11.866,-5.975 -14.962,0 L148.6321207714081,87.287 v2.8600000000000003 l32.584,60.233 z" fill="#F4BD62" id="svg_4" class=""/><use fill="#FFA50E" fill-rule="evenodd" xlink:href="#c" id="svg_5" class="" y="0" x="46.21212077140808"/><use filter="url(#d)" xlink:href="#c" id="svg_6" class="" y="0" x="46.21212077140808"/><path fill="#F6820C" d="M46.21212077140808,282.998 l0.9620000000000006,-0.9680000000000006 l3.496,-1.42 l128.477,-128 l1.6280000000000001,-4.431 l-32.05,-61.074 z" id="svg_7" class=""/><path d="M185.3331207714081,347.551 l116.275,-64.847 l-33.204,-204.495 c-1.039,-6.398 -8.888,-8.927 -13.468,-4.34 L46.21212077140808,282.998 l115.608,64.548 a24.126,24.126 0 0 0 23.513,0.005000000000000063 " fill="#FDE068" id="svg_8" class=""/><path d="M300.5661207714081,282.16 L267.61412077140807,79.218 c-1.03,-6.35 -7.558,-8.977 -12.103,-4.424 L47.50212077140808,282.6 l114.339,63.908 a23.943,23.943 0 0 0 23.334,0.006000000000000118 l115.392,-64.355 z" fill="#FCCA3F" id="svg_9" class=""/><path d="M185.33212077140809,345.64 a24.126,24.126 0 0 1 -23.512,-0.005000000000000063 L47.14312077140808,282.015 l-0.93,0.983 l115.607,64.548 a24.126,24.126 0 0 0 23.513,0.005000000000000063 l116.275,-64.847 l-0.2850000000000003,-1.7520000000000002 l-115.99,64.68900000000001 z" fill="#EEAB37" id="svg_10" class=""/></g></svg>