<svg xmlns="http://www.w3.org/2000/svg" width="350" height="350" preserveAspectRatio="xMidYMid" style=""><rect id="backgroundrect" width="100%" height="100%" x="0" y="0" fill="none" stroke="none"/>
    
    

<g class="currentLayer" style=""><title>Layer 1</title><path d="M233.65017998504638,250.62075938415526 c-0.6180000000000083,-21.607 -0.7370000000000066,-37.872 -1.194,-48.7 L304.8721799850464,129.50375938415527 L176.8731799850464,1.5037593841552734 L48.87217998504639,129.50275938415527 L176.8731799850464,257.5037593841553 l21.976,-21.977 c-0.015000000000000237,13.707 0.12300000000000012,34.429 -0.4900000000000003,64.797 c-0.3840000000000045,19.091 -5.274,22.765 -6.79,33.45 c-1.1,7.76 4.515,14.336 10.086,14.336 c5.571,0 10.61,-6.454 10.086,-14.336 c-0.505,-7.609 -4.828,-14.185 -5.208,-33.076 c-0.7170000000000006,-35.571 -0.8430000000000006,-58.029 -1.3880000000000001,-71.466 l21.74,-21.741 c-0.005000000000000063,10.488 0.0890000000000016,24.787 -0.4300000000000003,42.898 c-0.3390000000000054,11.824 -4.643,14.099 -5.978,20.717 c-0.9690000000000006,4.806 3.975,8.879 8.879,8.879 s9.34,-3.997 8.88,-8.879 c-0.44500000000000434,-4.713 -4.251,-8.785 -4.586,-20.485 zM217.8131799850464,100.48375938415528 l17.1,-17.1 l17.099,17.1 l-17.1,17.099 l-17.099,-17.099 zM222.99217998504642,129.50375938415527 l-17.1,17.099 L188.79317998504638,129.50375938415527 l17.1,-17.1 L222.99217998504642,129.50375938415527 zm-17.099,-40.94 L188.79217998504637,71.46275938415528 l17.1,-17.1 l17.101,17.102 l-17.1,17.099 zm-11.92,11.92 l-17.1,17.099 l-17.1,-17.099 L176.8721799850464,83.38375938415527 l17.101,17.1 zm-46.12,-11.921 l-17.1,-17.099 l17.1,-17.1 l17.099,17.099 l-17.099,17.1 zM135.9321799850464,100.48375938415528 l-17.1,17.1 l-17.1,-17.1 l17.1,-17.1 l17.1,17.1 zm11.921,11.92 l17.1,17.099 L147.8521799850464,146.60375938415527 L130.7531799850464,129.50375938415527 l17.1,-17.1 zM135.9321799850464,158.52375938415528 l-17.1,17.099 l-17.099,-17.099 l17.099,-17.099 l17.1,17.099 zm11.92,11.92 l17.099,17.1 l-17.099,17.099 l-17.099,-17.1 L147.8521799850464,170.44375938415527 zm11.92,-11.92 l17.101,-17.101 l17.099,17.1 L176.8721799850464,175.62375938415528 l-17.1,-17.1 zm46.121,11.919 l17.1,17.1 l-17.101,17.101 l-17.1,-17.1 l17.101,-17.101 zm11.92,-11.92 l17.099,-17.099 l17.1,17.1 l-17.099,17.099 l-17.1,-17.1 zM263.9321799850464,146.60375938415527 l-17.1,-17.1 l17.1,-17.1 l17.1,17.1 l-17.1,17.1 zM193.97117998504638,42.44275938415527 L176.8721799850464,59.542759384155275 L159.7731799850464,42.44375938415527 l17.1,-17.1 l17.098,17.099 zM89.81217998504638,112.40275938415527 L106.91317998504638,129.50375938415527 l-17.1,17.1 l-17.101,-17.101 l17.1,-17.1 zm69.961,104.16 L176.8721799850464,199.46375938415528 l17.099,17.101 l-17.098,17.098 l-17.1,-17.1 z" fill="#FFD150" id="svg_1" class="selected"/></g></svg>