<svg width="390" height="478" xmlns="http://www.w3.org/2000/svg">

 <g>
  <title>background</title>
  <rect fill="none" id="canvas_background" height="480" width="392" y="-1" x="-1"/>
 </g>
 <g>
  <title>Layer 1</title>
  <path id="svg_2" d="m129.45,1l39.53,0l-5.14,1c8.56,-0.57 17.09,0.49 25.63,0.84c29.28,2.54 58.46,6.4 87.35,11.81c36.31,7.06 72.52,15.88 106.76,30.1c-53.05,-11.42 -107.46,-15.02 -161.62,-16.06c-43.82,-0.83 -87.68,1.48 -131.25,6.2c-29.97,3.29 -59.82,7.86 -89.29,14.28c-0.01,-10.66 -0.02,-21.33 0,-32c10.16,-2.39 20.3,-4.88 30.55,-6.79c32.11,-6.21 64.82,-8.75 97.48,-9.38z" fill="#96092b"/>
  <path id="svg_14" d="m1128.53,46.25c2.98,-0.51 6.22,-0.54 9.19,0.1c4.21,1.24 4.12,7.93 0.11,9.38c-2.91,0.73 -5.96,0.48 -8.91,0.43c-0.88,-3.11 -0.11,-6.64 -0.39,-9.91z" fill="#ffffff"/>
  <path id="svg_15" d="m1.08,83.73c99.63,-0.09 199.28,0.01 298.92,-0.04c2.03,-0.15 4,1.02 5.97,0.05c26.97,0 53.98,-0.21 80.94,0.1c-0.08,0.45 -0.23,1.34 -0.3,1.78c-15.13,25.22 -30.41,50.36 -45.54,75.58c-0.82,0.91 -0.95,2.96 -2.6,2.67c2.88,-12.65 6.27,-25.2 9.44,-37.78c-8.3,4.13 -16.48,8.53 -24.83,12.56c-0.47,-0.22 -1.43,-0.66 -1.91,-0.89c-20.43,6.52 -41.09,12.32 -61.57,18.71c-2.95,0.84 -5.82,1.98 -8.84,2.57c8.83,-12.68 18.04,-25.29 28.94,-36.31c1.13,-1.43 3.39,-2.31 3.3,-4.41l-0.92,0.25c-16.86,12.98 -34.01,25.79 -53,35.52c1.66,-16.4 7.87,-31.77 13.48,-47.11l-1.4,0.88c-5.43,9.94 -13.53,18 -20.73,26.63c-4.98,5.42 -9.6,11.17 -14.95,16.26c-5.59,-11.52 -9.44,-23.97 -10.57,-36.74c-0.81,-2.92 -0.19,-6.09 -1.08,-8.92c-0.27,0.19 -0.82,0.59 -1.09,0.79c0.02,15.14 -4,30.19 -10.35,43.89c-1.74,0.45 -2.64,-1.47 -3.76,-2.41c-10.28,-11.39 -21.22,-22.32 -29.83,-35.08c-1.27,-1.52 -1.46,-3.98 -3.63,-4.6c4.56,12.65 10.36,25.03 12.46,38.42c0.19,2.59 0.77,5.13 1.11,7.7c-13.59,-7.79 -26.81,-16.2 -40.02,-24.59c-5.13,-3.38 -10.32,-6.75 -14.92,-10.83l-2.19,-0.36c12.4,13.07 25.37,25.86 35.2,41.09c-26.79,-8.8 -53.4,-18.22 -79.7,-28.4c-5.61,-2.36 -11.38,-4.4 -16.65,-7.49c-0.51,1.24 0.15,2.55 0.28,3.8c2.82,12.69 5.48,25.42 8.3,38.1c-1.22,-0.89 -1.63,-2.43 -2.43,-3.64c-15.05,-25.31 -30.16,-50.58 -45.18,-75.89c-0.09,-0.47 -0.27,-1.39 -0.35,-1.86z" fill="#e3c99b"/>
  <path id="svg_18" d="m323.08,138.65c8.35,-4.03 16.53,-8.43 24.83,-12.56c-3.17,12.58 -6.56,25.13 -9.44,37.78c-5.15,19.58 -9.98,39.3 -15.01,58.94c-0.53,1.83 -0.69,3.73 -1.08,5.6c-0.43,-3.55 0.63,-7.05 1.03,-10.54c3.69,-25.34 6.93,-50.76 8.91,-76.29c-37.87,26.68 -78.74,49.86 -123.02,64c-2.69,0.87 -5.41,1.63 -8.16,2.29c-3.67,1.53 -7.41,1.24 -11.06,-0.23c-50.19,-14.53 -97.51,-39.01 -138.49,-71.43l-1.81,-2.01c0.61,0.14 1.83,0.42 2.44,0.56c25.29,12.51 51.03,24.19 77.12,34.97c15.95,6.46 32.07,12.6 48.67,17.22c5.56,1.46 11.19,2.81 16.93,3.33c9.42,-1.04 18.41,-4.2 27.37,-7.16c34.6,-12.42 67.7,-28.55 100.77,-44.47z" fill="#96092b"/>
  <path id="svg_19" d="m46.89,131.98c1.86,0.73 3.85,1.37 5.33,2.78c-0.61,-0.14 -1.83,-0.42 -2.44,-0.56l1.81,2.01c40.98,32.42 88.3,56.9 138.49,71.43c0.17,55.87 -0.04,111.73 -0.05,167.6c-21.06,-11.87 -40.32,-26.73 -58.11,-43.05c-22.96,-21.19 -43.76,-44.74 -61.94,-70.15c-0.84,-1.29 -2.06,-2.48 -2.09,-4.12c-7,-41.98 -14.13,-83.94 -21,-125.94z" fill="#e3c99b"/>
  <path id="svg_28" d="m6.51,200.7c1.34,3.13 1.82,6.54 2.82,9.78c27.5,82.83 83.08,156.29 156.07,204.3c9.75,6.23 19.74,12.14 30.26,17c19.15,-9 37.01,-20.5 54.34,-32.57c32.47,-23.09 62.75,-49.55 88.37,-80.14l0.85,-0.52c-21.28,37.51 -47.5,72.17 -77.46,103.18c-12.36,12.65 -25.35,24.7 -39.2,35.71c-8.67,6.7 -17.49,13.37 -27.23,18.42c-38.9,-21.76 -72.54,-52.08 -101.16,-86.05c-36.93,-44.11 -64.46,-96.01 -80.43,-151.27c-3.06,-12.48 -5.58,-25.09 -7.23,-37.84z" fill="#96092b"/>
  <path id="svg_29" d="m201.14,207.87c2.75,-0.66 5.47,-1.42 8.16,-2.29c0.46,53.45 0.05,106.96 0.2,160.43c-0.23,1.53 0.52,3.37 -0.46,4.71c-2.61,1.51 -5.19,3.1 -7.9,4.44c-0.07,-55.76 -0.07,-111.53 0,-167.29z" fill="#e3c99b"/>
  <path id="svg_44" d="m1588.05,436.17c3.51,0.11 7.43,-0.66 10.58,1.37c1.83,1.5 1.73,4.17 1.16,6.27c-2.54,3.88 -7.79,2.69 -11.7,2.89c-0.16,-3.51 -0.11,-7.03 -0.04,-10.53z" fill="#ffffff"/>
 </g>
</svg>