<?xml version="1.0" standalone="no"?>
<!DOCTYPE svg PUBLIC "-//W3C//DTD SVG 20010904//EN"
 "http://www.w3.org/TR/2001/REC-SVG-20010904/DTD/svg10.dtd">
<svg version="1.0" xmlns="http://www.w3.org/2000/svg"
 width="512.000000pt" height="512.000000pt" viewBox="0 0 512.000000 512.000000"
 preserveAspectRatio="xMidYMid meet">

<g transform="translate(0.000000,512.000000) scale(0.100000,-0.100000)"
fill="#ffffff" stroke="none">
<path d="M866 5105 c-87 -31 -158 -118 -176 -215 -7 -38 -9 -821 -8 -2365 l3
-2310 21 -45 c29 -62 67 -105 123 -138 l46 -27 1128 -3 1127 -2 0 430 0 430
-949 0 -948 0 -27 25 c-42 39 -32 95 21 123 16 9 267 12 966 12 l945 0 6 34
c10 54 78 149 132 184 92 62 96 62 656 62 l508 0 -2 1803 -3 1802 -21 45 c-29
62 -67 105 -123 138 l-46 27 -1670 2 c-1402 2 -1676 0 -1709 -12z m1312 -511
c78 -21 200 -87 261 -142 l52 -47 -82 -88 -82 -88 -26 24 c-75 70 -178 109
-285 109 -295 -1 -475 -236 -476 -619 0 -233 58 -404 175 -512 163 -150 432
-148 595 5 26 24 50 44 53 44 3 0 40 -39 83 -86 l79 -87 -61 -56 c-77 -70
-151 -115 -246 -149 -66 -23 -87 -26 -218 -26 -126 0 -156 4 -225 25 -122 37
-208 90 -302 184 -69 70 -89 99 -132 186 -78 160 -96 246 -96 464 0 157 3 192
24 270 28 109 84 233 139 307 177 240 491 355 770 282z m712 -9 c0 -2 51 -188
114 -412 63 -225 149 -536 191 -693 73 -267 87 -311 100 -299 2 3 30 99 61
215 85 320 324 1188 328 1191 2 2 69 2 148 1 l146 -3 -262 -843 -261 -842
-175 2 -174 3 -256 820 c-141 451 -260 830 -264 843 l-7 22 155 0 c86 0 156
-2 156 -5z m1029 -2151 c27 -34 27 -72 -1 -101 l-21 -23 -1336 0 -1335 0 -23
22 c-29 27 -30 67 -2 102 l20 26 1339 0 1339 0 20 -26z m-5 -743 c34 -32 34
-74 1 -106 l-24 -25 -1331 0 -1331 0 -24 25 c-44 43 -22 113 40 128 11 3 610
4 1332 3 l1311 -1 26 -24z"/>
<path d="M3380 1117 c-30 -16 -51 -37 -67 -67 l-23 -43 0 -504 c0 -276 3 -503
8 -503 4 0 264 257 577 570 l570 570 -511 0 -511 0 -43 -23z"/>
</g>
</svg>
