<svg id="Layer_1" data-name="Layer 1" xmlns="http://www.w3.org/2000/svg" viewBox="0 0 512 512"><defs><style>.cls-1{fill:#2aba56;}.cls-2{fill:#fff;}</style></defs><title>greenup</title><path class="cls-1" d="M512,256c0,141.39-114.61,256-256,256S0,397.39,0,256,114.61,0,256,0,512,114.61,512,256Z"/><path class="cls-2" d="M256,407a23.41,23.41,0,0,1-23.4-23.4V130.07a23.41,23.41,0,0,1,46.81,0V383.6A23.41,23.41,0,0,1,256,407Z"/><path class="cls-2" d="M380.83,278.29a23.22,23.22,0,0,1-16.54-6.87L256,163.17,147.74,271.45a23.41,23.41,0,0,1-33.11-33.11L239.45,113.53a23.41,23.41,0,0,1,33.1,0L397.37,238.34a23.4,23.4,0,0,1-16.54,40Z"/></svg>