<?xml version="1.0" encoding="utf-8"?>
<!-- Generator: Adobe Illustrator 14.0.0, SVG Export Plug-In . SVG Version: 6.00 Build 43363)  -->
<!DOCTYPE svg PUBLIC "-//W3C//DTD SVG 1.1//EN" "http://www.w3.org/Graphics/SVG/1.1/DTD/svg11.dtd">
<svg version="1.1"
	 id="svg2" sodipodi:docname="linkedin.svg" inkscape:version="0.47 r22583" sodipodi:version="0.32" xmlns:dc="http://purl.org/dc/elements/1.1/" xmlns:inkscape="http://www.inkscape.org/namespaces/inkscape" xmlns:sodipodi="http://sodipodi.sourceforge.net/DTD/sodipodi-0.dtd" xmlns:cc="http://creativecommons.org/ns#" xmlns:rdf="http://www.w3.org/1999/02/22-rdf-syntax-ns#" xmlns:svg="http://www.w3.org/2000/svg" inkscape:output_extension="org.inkscape.output.svg.inkscape"
	 xmlns="http://www.w3.org/2000/svg" xmlns:xlink="http://www.w3.org/1999/xlink" x="0px" y="0px" width="256px" height="256px"
	 viewBox="0 0 256 256" enable-background="new 0 0 256 256" xml:space="preserve">
<sodipodi:namedview  id="base" inkscape:pageopacity="0.0" inkscape:pageshadow="2" inkscape:document-units="px" inkscape:current-layer="layer1" inkscape:window-width="853" inkscape:window-height="674" inkscape:window-x="1" inkscape:window-y="281" pagecolor="#225982" borderopacity="1.0" inkscape:cx="138.80354" inkscape:zoom="0.24748737" inkscape:cy="94.798647" bordercolor="#ffffff" showgrid="false" inkscape:window-maximized="0">
	</sodipodi:namedview>
<path fill="#ffffff" d="M232.305,6.001H25.223c-9.896,0-17.936,7.843-17.936,17.51v207.957c0,9.677,8.04,17.532,17.936,17.532
	h207.082c9.913,0,17.987-7.855,17.987-17.532V23.511C250.292,13.844,242.218,6.001,232.305,6.001z"/>
<path fill="#EE7D31" d="M43.316,97.101H79.36v115.965H43.316V97.101z M61.346,39.456c11.522,0,20.886,9.364,20.886,20.891
	c0,11.537-9.364,20.901-20.886,20.901c-11.552,0-20.903-9.364-20.903-20.901C40.443,48.82,49.794,39.456,61.346,39.456"/>
<path fill="#EE7D31" d="M101.966,97.101h34.569v15.846h0.482c4.813-9.118,16.567-18.729,34.104-18.729
	c36.497,0,43.234,24.021,43.234,55.241v63.607h-36.018v-56.396c0-13.446-0.247-30.747-18.729-30.747
	c-18.754,0-21.633,14.65-21.633,29.775v57.367h-36.011V97.101z"/>
</svg>
