<svg id="Layer_1" data-name="Layer 1" xmlns="http://www.w3.org/2000/svg" viewBox="0 0 512 512"><defs><style>.cls-1{fill:#d33333;}</style></defs><title>reddown</title><path class="cls-1" d="M256,106.67a23.41,23.41,0,0,0-23.4,23.4V383.6a23.41,23.41,0,0,0,46.81,0V130.07A23.41,23.41,0,0,0,256,106.67Z"/><path class="cls-1" d="M380.83,235.38a23.26,23.26,0,0,0-16.54,6.86L256,350.49,147.74,242.22a23.41,23.41,0,1,0-33.11,33.11L239.45,400.14a23.41,23.41,0,0,0,33.1,0L397.37,275.33a23.4,23.4,0,0,0-16.54-39.95Z"/></svg>