<svg width="1000" height="1000" xmlns="http://www.w3.org/2000/svg">
 <g>
  <title>background</title>
  <rect x="-1" y="-1" width="1002" height="1002" id="canvas_background" fill="none"/>
 </g>

 <g>
  <title>Layer 1</title>
  <g stroke="null" id="svg_1">
   <g stroke="null" id="svg_2">
    <path stroke="null" d="m348.965672,564.74868l0,-130.162563l53.797036,0c33.363713,0.886209 32.909129,28.10615 32.909129,33.570342c0,14.234449 -7.562626,24.786309 -20.341488,27.899521l0,0.780599c6.887636,0.224997 23.895509,6.001427 23.895509,29.791326c-0.110203,7.668236 -0.789783,37.569765 -37.133547,38.125366l-53.12664,0l0,-0.004591zm33.685138,-56.239851l0,31.898942l10.441657,0c5.436642,0.10561 11.566638,-5.230011 11.566638,-16.006868c0,-5.891226 -2.01119,-14.670668 -11.350825,-15.892074l-10.65747,0zm0,-49.797615l0,27.013312l6.887636,0c4.536656,0.215813 12.553866,-1.82752 12.324278,-13.228856c-0.101019,-5.918776 -1.878028,-13.899252 -11.552863,-13.784458l-7.659052,0l0,0.000002z" id="svg_3"/>
    <path stroke="null" d="m2.591,564.74868l0,-130.162563l53.797036,0c33.345347,0.886209 32.909129,28.10615 32.909129,33.570342c0,14.234449 -7.562626,24.786309 -20.359854,27.899521l0,0.780599c6.906004,0.224997 23.913875,6.001427 23.913875,29.791326c-0.110203,7.668236 -0.789783,37.569765 -37.133547,38.125366l-53.12664,0l0,-0.004591zm33.689728,-56.239851l0,31.898942l10.437066,0c5.455008,0.10561 11.548272,-5.230011 11.548272,-16.006868c0,-5.891226 -1.992822,-14.670668 -11.332459,-15.892074l-10.652879,0zm0,-49.797615l0,27.013312l6.887636,0c4.550433,0.215813 12.549275,-1.82752 12.319688,-13.228856c-0.123978,-5.918776 -1.878028,-13.899252 -11.552863,-13.784458l-7.654461,0l0,0.000002z" id="svg_4"/>
    <polygon stroke="null" points="271.81951904296875,511.73218536376953 285.3836364746094,434.5861282348633 333.6337890625,434.5861282348633 333.6337890625,564.748664855957 302.15264892578125,564.748664855957 302.15264892578125,467.49063873291016 301.3812255859375,467.49063873291016 283.4826354980469,564.748664855957 259.2472839355469,564.748664855957 241.3624267578125,467.49063873291016 240.57266235351562,467.49063873291016 240.57266235351562,564.748664855957 209.11907958984375,564.748664855957 209.11907958984375,434.5861282348633 257.3692626953125,434.5861282348633 270.9241027832031,511.73218536376953 " id="svg_5"/>
    <path stroke="null" d="m480.909838,541.748564l-3.783608,23.004707l-35.788162,0l31.788741,-130.167154l21.3379,0l21.342491,0l31.678539,130.167154l-35.806528,0l-3.659631,-23.004707l-27.10974,0l-0.000002,0zm23.330722,-25.346503l-9.436063,-55.468436l-0.674988,0l-9.459022,55.468436l19.570073,0z" id="svg_6"/>
    <path stroke="null" d="m645.528952,469.616638c0,25.566909 -15.015049,29.56633 -22.003704,30.346929l0,0.780599c14.349243,1.552015 17.10889,8.448835 19.671092,15.451265c2.222412,6.332033 1.111206,30.126524 1.666809,32.009145c0.436216,8.779441 0.436216,11.226847 5.33103,15.015049l0,1.552015l-35.68255,0c-4.444821,-6.782026 -3.333615,-34.681547 -3.567796,-37.569765c0.123978,-13.003859 -6.327442,-14.670668 -9.436063,-14.670668l-10.776857,0l0,52.24043l-33.689728,0l0,-130.167154l56.359238,0c28.455124,1.216816 33.028516,23.344497 32.12853,35.012154zm-54.793448,-10.781447l0,31.012733l7.783029,0c17.320112,0.780599 19.115489,-31.343339 1.001003,-31.012733l-8.784032,0z" id="svg_7"/>
    <path stroke="null" d="m993.818386,469.616638c0,25.566909 -15.042598,29.56633 -22.026663,30.346929l0,0.780599c14.330877,1.552015 17.095115,8.448835 19.675683,15.451265c2.227002,6.332033 1.134165,30.126524 1.6714,32.009145c0.408667,8.779441 0.408667,11.226847 5.340214,15.015049l0,1.552015l-35.710102,0c-4.431046,-6.782026 -3.31984,-34.681547 -3.531062,-37.569765c0.087244,-13.003859 -6.354992,-14.670668 -9.454429,-14.670668l-10.799815,0l0,52.24043l-33.685138,0l0,-130.167154l56.36842,0c28.441349,1.216816 33.014741,23.344497 32.15149,35.012154l0.000002,0zm-54.825591,-10.781447l0,31.012733l7.796804,0c17.329295,0.780599 19.124673,-31.343339 0.991819,-31.012733l-8.788625,0l0.000002,0z" id="svg_8"/>
    <path stroke="null" d="m711.999241,434.604484c43.153341,0.133162 37.794759,48.466006 39.029943,63.136671c1.432628,58.912254 -17.23746,66.034071 -39.691155,67.030483l-50.693008,0l0,-130.167154l51.354221,0zm-9.449838,105.931857c10.78604,-0.449993 13.79364,-3.218822 13.68803,-40.79777c0.537235,-41.128377 -5.670821,-40.347777 -12.792637,-40.90338l-9.105457,0l0,81.70115l8.210064,0z" id="svg_9"/>
    <rect stroke="null" x="765.038636" y="434.586116" width="33.432589" height="130.167154" id="svg_10"/>
    <polygon stroke="null" points="814.2760620117188,564.748664855957 892.8731689453125,564.748664855957 892.7492065429688,537.0741653442383 847.745361328125,537.0741653442383 847.745361328125,510.9516372680664 888.318115234375,510.9516372680664 888.318115234375,484.49390411376953 847.8327026367188,484.49390411376953 847.8327026367188,461.9300003051758 891.18798828125,461.9300003051758 891.18798828125,434.5861282348633 814.1658935546875,434.5861282348633 " id="svg_11"/>
    <path stroke="null" d="m149.527256,567.200679c-51.22106,1.336202 -44.824741,-52.249614 -46.381347,-66.695285c0,-37.946289 5.202462,-69.358504 46.381347,-68.472295c41.224803,-0.886209 46.404306,30.526006 46.404306,68.472295c-1.450996,14.004862 4.862671,68.031486 -46.404306,66.695285l0,0zm11.713574,-67.315172c-0.119387,-28.680121 0.560194,-45.136982 -11.44266,-45.136982c-11.750308,0 -11.78245,11.525313 -11.78245,45.908397c0,28.124518 -0.449993,43.906389 11.78245,43.906389c12.319688,-0.018368 11.566638,-18.670089 11.44266,-44.677805z" id="svg_12"/>
    <path stroke="null" d="m657.9267,36.893959c-19.087937,-6.60754 -53.305719,-16.162988 -68.573314,-18.376216l-69.381463,120.51528c-5.615719,0.23418 -20.359854,-0.996412 -27.008721,-0.610704l71.204392,-123.922365c-5.556027,-0.877025 -8.444242,-1.322425 -14.257408,-1.98364l-72.949259,126.333037c-0.909168,0.206629 -0.674988,0.188263 -2.474958,-0.009184l-12.282952,-21.452694l61.355071,-106.974186c-4.339211,-0.073467 -10.845733,-0.394892 -15.318106,-0.413257l-53.971522,93.915226l-49.388949,-85.521492l-0.10561,0c-14.027821,2.213228 -53.934789,12.870697 -68.265666,18.582845l0.036734,139.098125c-8.090677,4.091256 -13.903843,6.850903 -23.551126,12.939574l-0.096426,-143.125096c-4.444821,1.409669 -8.17333,3.283107 -13.541094,5.615719l0,145.870968c-0.693355,0.638254 -0.500501,0.509685 -2.16731,1.239774l-21.347082,-12.448256l0.055101,-123.311661c-3.801976,2.107618 -10.221254,4.610125 -13.577828,6.795801l-0.068876,108.820072l-85.30568,-49.264971l-0.018368,0c-15.285963,13.210488 -40.595732,38.061082 -50.132815,50.169548l69.666152,120.382119c-5.8499,9.110048 -9.468206,14.385977 -14.027821,23.050624l-71.709484,-123.628492c-3.549428,4.366761 -5.386132,6.653458 -8.866686,11.355418l72.930893,126.337628c-0.270914,0.895393 0.23418,0.482134 -0.844883,1.942314l-25.107732,0.110203l-61.970366,-106.625212c-2.227002,3.723916 -6.263157,9.174333 -8.072311,12.742129l54.416925,93.809616l-98.57586,0.123978c-3.765241,11.461028 -6.671824,19.400178 -9.739118,30.957631l225.083385,0c40.232983,-77.62826 128.853913,-149.66376 247.720752,-149.66376c107.2451,0.404076 199.686372,60.230088 246.903419,149.66376l225.051243,0.10561c-3.306066,-11.387561 -5.487151,-19.666499 -9.688609,-31.145894l0,-0.036734l-139.056798,0.018368c-2.676996,-5.496335 -7.714153,-15.263004 -12.934983,-23.541944l143.115912,0.10561c-1.345384,-4.357579 -3.443818,-8.366184 -5.611128,-13.738539l-145.866377,-0.009184c-0.661213,-0.688764 -0.514276,-0.491318 -1.271917,-2.153535l12.292136,-21.360859l123.504515,0.055101c-3.122396,-5.803982 -4.80757,-10.216661 -7.007023,-13.577828l-108.608852,-0.082651l49.361399,-85.351597l-0.215813,0c-13.091101,-15.827789 -37.918737,-39.659013 -50.077713,-50.197098l-120.574973,69.698294c-8.357,-5.248379 -12.374787,-8.779441 -22.871548,-14.018637l123.660635,-71.737034c-4.375945,-3.540246 -8.375366,-6.726925 -11.552863,-8.871276l-126.153958,72.949259c-0.895393,-0.280098 -0.693355,-0.169895 -2.130577,-1.244367l0.101019,-24.519988l106.418584,-61.961182c-3.122396,-1.85507 -7.943741,-5.372357 -12.553866,-8.288124l-94.020836,54.416925l0.018368,-98.552901l-0.000009,0.000004z" id="svg_13"/>
    <path stroke="null" d="m367.709228,370.012224l-55.849553,-0.055101c22.182783,-32.215774 83.18888,-96.463651 185.245291,-96.463651c105.435946,0 166.166538,67.843225 185.373862,96.463651l-55.601597,0.055101c-23.82204,-24.203157 -69.353913,-53.70061 -129.372782,-53.70061c-49.439457,-0.197445 -96.794257,20.690462 -129.795223,53.70061l0.000002,0z" id="svg_14"/>
    <path stroke="null" d="m336.604658,961.903604c19.087937,6.616724 53.31031,16.158397 68.573314,18.376216l69.381463,-120.506097c5.611128,-0.243362 20.359854,0.987228 27.013312,0.60152l-71.208983,123.922365c5.537661,0.877025 8.444242,1.317835 14.252817,1.98364l72.953852,-126.319263c0.913759,-0.215813 0.674988,-0.197445 2.470365,0l12.287545,21.452694l-61.37803,106.974186c4.357579,0.073467 10.868691,0.394892 15.322696,0.413257l53.98989,-93.915226l49.398133,85.521492l0.101019,0c14.032412,-2.204044 53.934789,-12.870697 68.247298,-18.573661l-0.013775,-139.107309c8.086086,-4.082072 13.894659,-6.850903 23.53276,-12.939574l0.101019,143.13428c4.454005,-1.418853 8.182512,-3.292291 13.541094,-5.615719l0,-145.870968c0.702539,-0.633663 0.482134,-0.509685 2.153535,-1.235183l21.360859,12.439072l-0.055101,123.320845c3.801976,-2.1168 10.230438,-4.619309 13.582421,-6.795801l0.091835,-108.820072l85.301089,49.264971l0,0c15.28137,-13.219672 40.6141,-38.070266 50.137406,-50.178732l-69.652377,-120.382119c5.845309,-9.110048 9.468206,-14.385977 14.009453,-23.050624l71.714075,123.628492c3.517287,-4.366761 5.399907,-6.653458 8.862092,-11.355418l-72.930893,-126.328447c0.266321,-0.895393 -0.23418,-0.491318 0.840292,-1.956088l25.093957,-0.10561l61.988732,106.634396c2.227002,-3.728507 6.263157,-9.183515 8.090677,-12.751313l-54.421515,-93.809616l98.580453,-0.123978c3.714732,-11.461028 6.671824,-19.400178 9.725343,-30.957631l-225.106344,0c-40.214616,77.62826 -128.853913,149.66376 -247.702384,149.66376c-107.235917,-0.404076 -199.681779,-60.220907 -246.898826,-149.66376l-225.04665,-0.10561c3.31525,11.387561 5.500925,19.666499 9.684019,31.155078l0,0.02755l139.056798,-0.018368c2.672403,5.496335 7.732521,15.272188 12.93039,23.541944l-143.111321,-0.10561c1.340793,4.357579 3.443818,8.366184 5.611128,13.738539l145.861784,0.009184c0.652029,0.688764 0.518869,0.491318 1.244367,2.153535l-12.237034,21.360859l-123.504515,-0.055101c3.099437,5.803982 4.802979,10.225844 6.988655,13.577828l108.604259,0.082651l-49.361399,85.360781l0.215813,0c13.114062,15.818607 37.918737,39.659013 50.063936,50.187914l120.588748,-69.693703c8.352407,5.248379 12.370196,8.779441 22.866954,14.018637l-123.656042,71.737034c4.375945,3.540246 8.393734,6.722334 11.552863,8.866686l126.144774,-72.944668c0.899984,0.280098 0.684171,0.169895 2.139758,1.244367l-0.10561,24.519988l-106.418584,61.961182c3.122396,1.864253 7.93915,5.372357 12.549275,8.288124l94.007061,-54.421515l0,98.543717l0.000004,-0.000002z" id="svg_15"/>
    <path stroke="null" d="m626.82213,628.785337l55.858737,0.055101c-22.205742,32.215774 -83.211839,96.472835 -185.23611,96.472835c-105.44513,0 -166.180313,-67.852409 -185.410596,-96.472835l55.619965,-0.055101c23.803674,24.212341 69.363097,53.70061 129.395741,53.70061c49.416498,0.197445 96.74834,-20.690462 129.772265,-53.70061l-0.000002,0z" id="svg_16"/>
   </g>
  </g>
 </g>
</svg>