<svg width="1000" height="1000" xmlns="http://www.w3.org/2000/svg">

 <g>
  <title>background</title>
  <rect fill="none" id="canvas_background" height="1002" width="1002" y="-1" x="-1"/>
 </g>
 <g>
  <title>Layer 1</title>
  <g stroke="null" id="svgg">
   <path fill-rule="evenodd" fill="#000000" d="m191.690931,146.774073c-61.9099,11.14578 -124.681394,53.486258 -155.294203,104.749852c-34.341389,57.509527 -36.396728,70.198684 -36.396728,224.853559l0,124.973586l59.936974,0l59.936974,0l0.037461,-114.254857c0.044953,-143.736357 2.375003,-155.541443 37.228353,-188.786485c72.204075,-68.872578 199.98471,-17.691397 199.98471,80.100772l0,8.166413l61.185661,0c37.460609,0 61.185661,-0.93152 61.185661,-2.399976c0,-47.497555 -16.377778,-98.301633 -46.323789,-143.696399c-45.746896,-69.347079 -150.651585,-110.056772 -241.481075,-93.706465m513.487552,2.5673c-100.646667,22.743584 -176.177244,110.858429 -182.478119,212.886144l-1.503419,24.349396l59.794624,0l59.794624,0l4.028264,-21.345055c10.20427,-54.048167 46.920661,-89.860509 101.276005,-98.786123l18.105961,-2.971875l0,-59.572358l0,-59.56986l-19.354648,0.209779c-10.643808,0.117377 -28.492539,2.277605 -39.663293,4.799953m101.473298,261.927075c-15.79589,16.170496 -86.314238,87.950018 -156.710214,159.50977l-127.990414,130.10569l0,68.860091l0,68.857594l238.499211,0l238.499211,0l0,-59.936974l0,-59.936974l-161.704962,-0.079916l-161.704962,-0.079916l26.222426,-25.832836c14.422334,-14.210058 55.70892,-56.036076 91.746026,-92.94976c36.037106,-36.911187 97.005496,-99.018379 135.482536,-138.014873c41.096785,-41.651202 69.958936,-72.818429 69.958936,-75.545561c0,-4.432839 -3.683627,-4.635126 -81.788996,-4.502765l-81.788996,0.14235l-28.7198,29.404081m-449.527308,192.844718c0,55.783842 -46.111512,103.079109 -110.508797,113.348311l-9.365152,1.49343l0,60.189209l0,60.191707l23.100709,-1.465958c122.708468,-7.784315 219.144563,-113.008668 219.144563,-239.113565c0,-1.468456 -23.725052,-2.399976 -61.185661,-2.399976l-61.185661,0l0,7.756843" id="path0"/>
  </g>
 </g>
</svg>