<?xml version="1.0" encoding="UTF-8"?>
<svg version="1.1" xmlns="http://www.w3.org/2000/svg" width="400" height="310">
<path d="M0 0 C4.6795425 3.18649789 6.85322123 9.20580775 9.046875 14.2265625 C9.34499084 14.90351669 9.64310669 15.58047089 9.95025635 16.27793884 C10.93403589 18.51388033 11.91027645 20.75303336 12.88671875 22.9921875 C14.30552025 26.22401202 15.72865803 29.45391831 17.15234375 32.68359375 C17.52414261 33.52819656 17.89594147 34.37279938 18.27900696 35.24299622 C21.1407389 41.73039428 24.05705038 48.19183033 26.99609375 54.64453125 C27.42542709 55.58803436 27.85476044 56.53153748 28.29710388 57.50363159 C29.99158131 61.22578067 31.6867736 64.94757071 33.39016724 68.66564941 C34.57653552 71.25579769 35.75741274 73.84839161 36.9375 76.44140625 C37.28685608 77.19945053 37.63621216 77.95749481 37.99615479 78.73851013 C40.29579727 83.80651315 42.16133536 88.93183071 43.82421875 94.2421875 C44.48421875 94.2421875 45.14421875 94.2421875 45.82421875 94.2421875 C45.99700348 93.69197433 46.16978821 93.14176117 46.34780884 92.57487488 C48.11315881 87.09983112 50.19697232 81.8919359 52.59765625 76.66796875 C52.95789383 75.87370987 53.31813141 75.07945099 53.68928528 74.26112366 C54.45811918 72.56661717 55.22883889 70.87296522 56.00131226 69.18011475 C58.03897827 64.71420369 60.06297958 60.24212013 62.0859375 55.76953125 C62.69321434 54.42758698 62.69321434 54.42758698 63.3127594 53.05853271 C67.49533897 43.79424283 71.5294321 34.46770983 75.49951172 25.1105957 C78.03334401 19.18433483 80.67409429 13.3233622 83.5 7.53125 C84.06243408 6.3757666 84.62486816 5.2202832 85.2043457 4.02978516 C87.00662916 0.92828213 88.48640518 -0.36433792 91.94921875 -1.3828125 C98.74357427 -2.26903279 103.87950333 -2.23017021 110.09765625 0.87890625 C112.46938939 2.75160957 113.48136298 4.52427494 114.82421875 7.2421875 C115.2073288 10.589324 115.2073288 10.589324 115.21862793 14.48472595 C115.22471903 15.2034699 115.23081014 15.92221384 115.23708582 16.66273791 C115.25370439 19.06560348 115.24894181 21.46793847 115.24414062 23.87084961 C115.2514816 25.5958257 115.26006791 27.32079688 115.26980591 29.04576111 C115.29202675 33.72758025 115.29495234 38.40922342 115.2930584 43.09108806 C115.29293873 47.00021063 115.3015012 50.90929588 115.30983591 54.81840807 C115.32907174 64.04066651 115.33195301 73.26283442 115.32519531 82.48510742 C115.31855283 91.99816728 115.3414268 101.51083957 115.37850904 111.02382082 C115.40919717 119.19297266 115.42056708 127.36199976 115.41667223 135.5312081 C115.41460396 140.40964116 115.42009619 145.28777258 115.44456482 150.16615105 C115.46681501 154.7537614 115.46496868 159.34074112 115.4446373 163.92835426 C115.44122427 165.61096562 115.44632903 167.29361928 115.46062088 168.9761734 C115.47880438 171.27573944 115.46607441 173.57316382 115.44567871 175.87266541 C115.44639122 177.15852508 115.44710373 178.44438475 115.44783783 179.76920986 C114.62577159 184.3473534 113.07568926 185.97092005 109.82421875 189.2421875 C107.14766074 190.58046651 104.99987823 190.44797306 102.01171875 190.4921875 C100.45517578 190.53085937 100.45517578 190.53085937 98.8671875 190.5703125 C95.30989422 190.1867276 93.6040691 189.48872191 90.82421875 187.2421875 C87.17984933 181.76233978 87.38296467 176.62738971 87.3918457 170.27978516 C87.37655823 168.63987106 87.37655823 168.63987106 87.36096191 166.96682739 C87.3308352 163.36324944 87.32156617 159.75993734 87.3125 156.15625 C87.29565314 153.65374875 87.27750289 151.15125595 87.25810242 148.64877319 C87.21544956 142.74161397 87.18591511 136.83448199 87.16277903 130.92722261 C87.1330338 123.53863004 87.08284377 116.1501998 87.03320312 108.76171875 C86.94716421 95.58860595 86.87925311 82.41546445 86.82421875 69.2421875 C84.36591448 74.82889511 81.90892748 80.41617961 79.45307922 86.00396729 C78.62011459 87.8987331 77.78681069 89.7933498 76.95314026 91.68780518 C71.81952968 103.35427866 66.71504694 115.02773801 61.84817505 126.80871582 C59.87306836 131.55093807 57.89261428 134.91409583 53.82421875 138.2421875 C50.69577206 139.28500306 48.29811946 139.47614459 45.01171875 139.5546875 C43.99464844 139.59207031 42.97757812 139.62945312 41.9296875 139.66796875 C37.90727877 139.11646869 35.92534652 137.84781827 32.82421875 135.2421875 C30.9453125 132.37109375 30.9453125 132.37109375 29.26171875 128.8046875 C28.77807861 127.79160522 28.77807861 127.79160522 28.28466797 126.75805664 C27.10702152 124.26331271 25.96382816 121.75453835 24.82421875 119.2421875 C24.34001465 118.1809668 23.85581055 117.11974609 23.35693359 116.02636719 C17.64930584 103.48472198 12.09290836 90.87877408 6.60302734 78.24047852 C6.14204147 77.17970345 5.6810556 76.11892838 5.20610046 75.02600861 C4.0786178 72.43148352 2.95132843 69.83687463 1.82421875 67.2421875 C1.8234016 68.13064078 1.8234016 68.13064078 1.82256794 69.03704262 C1.80759014 83.45980574 1.76510308 97.88229466 1.69212818 112.30488014 C1.6574986 119.27962352 1.63212536 126.25416968 1.62866211 133.22900391 C1.62529404 139.95950653 1.59597352 146.68943813 1.55078697 153.41981125 C1.53779217 155.98820483 1.53351125 158.55665769 1.53806496 161.12508011 C1.54295642 164.72146475 1.5169393 168.31639206 1.48364258 171.91259766 C1.49226822 172.97571167 1.50089386 174.03882568 1.50978088 175.13415527 C1.38458562 183.19489918 1.38458562 183.19489918 -1.59199524 186.88778687 C-5.98788249 190.8934126 -9.39130468 190.57596009 -15.18359375 190.52734375 C-19.41350437 190.12423216 -21.11095985 189.14570251 -24.17578125 186.2421875 C-26.5602081 182.65997946 -26.43205562 179.4266667 -26.44320679 175.1958313 C-26.45000346 174.13124768 -26.45000346 174.13124768 -26.45693743 173.04515731 C-26.46959802 170.6669202 -26.46796002 168.28891161 -26.46630859 165.91064453 C-26.47229281 164.20552272 -26.4790981 162.50040362 -26.48666382 160.79528809 C-26.50434174 156.16302394 -26.50901995 151.53083368 -26.51029539 146.89853907 C-26.51219423 143.03172521 -26.51955158 139.16492857 -26.52663958 135.29812133 C-26.54292787 126.17513843 -26.54780812 117.05219499 -26.54638672 107.92919922 C-26.54518508 98.51789853 -26.56629033 89.10682709 -26.59787405 79.69558442 C-26.62402386 71.61563574 -26.63475456 63.535762 -26.6334759 55.45577133 C-26.63296589 50.62989805 -26.63867037 45.8042285 -26.659832 40.97839737 C-26.67919265 36.43930717 -26.67935382 31.90061547 -26.66479874 27.36151123 C-26.66270685 25.69663791 -26.66743418 24.03173979 -26.67951965 22.36690903 C-26.69496524 20.09164143 -26.68567015 17.81774913 -26.67025757 15.54251099 C-26.6713471 14.27010118 -26.67243664 12.99769138 -26.67355919 11.68672371 C-25.96574923 6.78880271 -23.79675956 3.66668359 -20.11328125 0.4296875 C-13.88247709 -3.38919247 -6.59884566 -2.24111739 0 0 Z " fill="#4BC7E9" transform="translate(166.17578125,110.7578125)"/>
<path d="M0 0 C1.33504074 -0.00788544 1.33504074 -0.00788544 2.697052 -0.01593018 C5.63284972 -0.02911106 8.56810322 -0.0203988 11.50390625 -0.01025391 C13.54744572 -0.01227519 15.59098448 -0.01518708 17.63452148 -0.01895142 C21.91494624 -0.02337218 26.19518304 -0.01695158 30.47558594 -0.00292969 C35.96016908 0.01416195 41.44431179 0.00431946 46.92887878 -0.01364708 C51.14794224 -0.02449153 55.36690141 -0.02103551 59.58596802 -0.0132637 C61.608165 -0.01126353 63.63037147 -0.01371455 65.65255737 -0.02070236 C68.47956395 -0.0283276 71.30585887 -0.01669744 74.1328125 0 C74.96724884 -0.00607269 75.80168518 -0.01214539 76.66140747 -0.0184021 C82.27543556 0.04297656 85.48328461 1.17407933 89.81640625 4.88818359 C92.59032891 8.21689078 92.3357205 12.06352948 92.2890625 16.16943359 C91.85325432 20.51222392 89.34268299 23.65795297 86.06640625 26.38818359 C82.50917762 27.57392647 79.68864081 27.50808552 75.93286133 27.50170898 C75.21065903 27.50185501 74.48845673 27.50200104 73.74436951 27.50215149 C71.35819491 27.50145505 68.97209846 27.49367519 66.5859375 27.48583984 C64.93112735 27.48397471 63.27631664 27.48255126 61.62150574 27.48155212 C57.26659622 27.47773445 52.91172007 27.46791054 48.55682373 27.45684814 C43.33136942 27.44481918 38.10590395 27.44022821 32.88043976 27.43439484 C24.94240539 27.4246984 17.00444422 27.4055366 9.06640625 27.38818359 C9.06640625 44.54818359 9.06640625 61.70818359 9.06640625 79.38818359 C13.25585938 79.34177734 17.4453125 79.29537109 21.76171875 79.24755859 C25.11203536 79.22181648 28.46232384 79.20013185 31.81268311 79.18118286 C35.34407549 79.16010068 38.87508094 79.13195089 42.40625 79.08642578 C46.46227668 79.03446403 50.51789654 79.01520392 54.57421875 78.99755859 C55.83380402 78.97691345 57.09338928 78.95626831 58.3911438 78.93499756 C69.35656657 78.93219183 69.35656657 78.93219183 74.06640625 83.38818359 C76.98889595 87.77191814 77.62593025 91.16595959 77.06640625 96.38818359 C75.62516999 100.47168634 73.86879273 103.22224072 70.168396 105.56994629 C65.27333273 107.47543768 59.74281617 106.86352412 54.57421875 106.77880859 C53.27314178 106.7731488 51.97206482 106.76748901 50.63156128 106.76165771 C47.18880944 106.74645603 43.74674307 106.70722353 40.30426025 106.6628418 C36.78496742 106.62176966 33.26555947 106.60340152 29.74609375 106.58349609 C22.85226113 106.5428485 15.96030563 106.46454679 9.06640625 106.38818359 C9.06640625 125.19818359 9.06640625 144.00818359 9.06640625 163.38818359 C14.18269531 163.35337891 19.29898438 163.31857422 24.5703125 163.28271484 C27.81967294 163.26737867 31.06898849 163.25293629 34.31835938 163.24169922 C39.47120479 163.22379479 44.62388964 163.20265777 49.77661133 163.16186523 C53.93281243 163.12916933 58.08884123 163.11130908 62.24516106 163.10355186 C63.82753141 163.09802666 65.40989278 163.08723732 66.99218941 163.07099342 C69.21578161 163.04908247 71.43867001 163.04622227 73.66235352 163.04760742 C74.9258815 163.04094559 76.18940948 163.03428375 77.4912262 163.02742004 C82.8312506 163.56627015 86.72275841 164.97563074 90.50390625 168.95068359 C92.59937866 173.5607229 92.8756889 177.40300249 92.06640625 182.38818359 C89.99701214 186.52697182 88.3133672 188.65418331 84.06640625 190.38818359 C82.12573528 190.65103912 82.12573528 190.65103912 80.06388855 190.66906738 C79.27757553 190.68048767 78.49126251 190.69190796 77.68112183 190.70367432 C76.82753082 190.70591003 75.97393982 190.70814575 75.09448242 190.71044922 C73.73521889 190.72534393 73.73521889 190.72534393 72.34849548 190.74053955 C69.35209103 190.76973785 66.35589832 190.78337884 63.359375 190.79443359 C61.27435807 190.80594015 59.18934118 190.81745558 57.10432434 190.82897949 C52.73221858 190.84998661 48.36018623 190.86168034 43.98803711 190.86865234 C38.39236887 190.87962006 32.79767443 190.92767433 27.20231152 190.98459625 C22.89481289 191.02188968 18.58754792 191.03226228 14.2799015 191.0353241 C12.21743762 191.04136909 10.15497746 191.05739938 8.09267235 191.08369446 C5.20320448 191.11790656 2.31610332 191.1140371 -0.57348633 191.10107422 C-1.42100464 191.11950378 -2.26852295 191.13793335 -3.14172363 191.15692139 C-8.7297709 191.07860793 -11.58376463 189.72789547 -15.63375378 185.87093353 C-18.47472053 182.63019362 -18.06657968 179.82298489 -18.08076477 175.62030029 C-18.08444146 174.91637028 -18.08811815 174.21244027 -18.09190625 173.48717904 C-18.10296329 171.11660817 -18.10679034 168.7460811 -18.1105957 166.37548828 C-18.11685885 164.68051514 -18.12350552 162.98554337 -18.13050842 161.29057312 C-18.14793244 156.67680425 -18.1584741 152.06304576 -18.16671395 147.44925213 C-18.17186137 144.5676906 -18.17793723 141.68613231 -18.18422508 138.80457306 C-18.20328147 129.79173095 -18.21751139 120.77889705 -18.22583705 111.76603866 C-18.23561074 101.35696945 -18.26193181 90.94811282 -18.30233794 80.53911853 C-18.33248481 72.49743554 -18.34730459 64.45581354 -18.35061806 56.41407514 C-18.35297028 51.60939694 -18.36195279 46.80494572 -18.38707924 42.00032806 C-18.41033987 37.47933877 -18.41460133 32.95872623 -18.40431786 28.43769264 C-18.40382189 26.77926443 -18.41016036 25.1208178 -18.4238739 23.46244621 C-18.44156669 21.19584634 -18.43450089 18.93060237 -18.42134094 16.66400146 C-18.4237293 15.39636837 -18.42611765 14.12873528 -18.42857838 12.82268906 C-17.71521463 7.87293596 -15.52849847 4.73500041 -11.74194336 1.53744507 C-7.78480101 -0.08193709 -4.23767279 -0.03084008 0 0 Z " fill="#4BC7E9" transform="translate(24.93359375,110.61181640625)"/>
<path d="M0 0 C3.58955084 2.87164067 5.04553837 5.50971677 5.57061005 10.0971365 C5.57433876 11.38261914 5.57806747 12.66810179 5.58190918 13.99253845 C5.59104584 15.07065437 5.59104584 15.07065437 5.60036707 16.17055041 C5.61698564 18.57341598 5.61222306 20.97575097 5.60742188 23.37866211 C5.61476285 25.1036382 5.62334916 26.82860938 5.63308716 28.55357361 C5.655308 33.23539275 5.65823359 37.91703592 5.65633965 42.59890056 C5.65621998 46.50802313 5.66478245 50.41710838 5.67311716 54.32622057 C5.69235299 63.54847901 5.69523426 72.77064692 5.68847656 81.99291992 C5.68183408 91.50597978 5.70470805 101.01865207 5.74179029 110.53163332 C5.77247842 118.70078516 5.78384833 126.86981226 5.77995348 135.0390206 C5.77788521 139.91745366 5.78337744 144.79558508 5.80784607 149.67396355 C5.83009626 154.2615739 5.82824993 158.84855362 5.80791855 163.43616676 C5.80450552 165.11877812 5.80961028 166.80143178 5.82390213 168.4839859 C5.84208563 170.78355194 5.82935566 173.08097632 5.80895996 175.38047791 C5.80967247 176.66633758 5.81038498 177.95219725 5.81111908 179.27702236 C4.98905284 183.8551659 3.43897051 185.47873255 0.1875 188.75 C-2.48905801 190.08827901 -4.63684052 189.95578556 -7.625 190 C-9.18154297 190.03867187 -9.18154297 190.03867187 -10.76953125 190.078125 C-14.32682453 189.6945401 -16.03264965 188.99653441 -18.8125 186.75 C-21.57942974 182.20017071 -22.19000057 178.78978749 -22.20018005 173.50109863 C-22.20556559 172.79375092 -22.21095113 172.08640321 -22.21649987 171.35762072 C-22.23075014 168.99930195 -22.22368329 166.64154681 -22.21655273 164.28320312 C-22.2222578 162.58763682 -22.22922259 160.89207436 -22.23735046 159.19651794 C-22.25528053 154.59945408 -22.25411395 150.0025811 -22.24840808 145.40549278 C-22.24531646 141.56591115 -22.25140828 137.72636621 -22.25744683 133.8867898 C-22.27148952 124.82895509 -22.26993247 115.77121471 -22.25854492 106.71337891 C-22.24705955 97.37132453 -22.26114699 88.0295571 -22.2879414 78.68754053 C-22.31009535 70.66274319 -22.31673659 62.63803595 -22.31086498 54.6132102 C-22.30749401 49.82203136 -22.30992003 45.03103652 -22.32711601 40.23988342 C-22.34257857 35.73522004 -22.33863736 31.23098206 -22.31981087 26.72633553 C-22.31612329 25.07436772 -22.31923842 23.42236843 -22.32969666 21.77042961 C-22.34289726 19.51276328 -22.3313693 17.25650733 -22.31370544 14.99890137 C-22.31349616 13.73646355 -22.31328688 12.47402573 -22.31307125 11.17333221 C-21.59915694 6.29097858 -19.42277041 3.16508611 -15.75 -0.0625 C-10.594333 -3.22242493 -5.28660144 -2.34960064 0 0 Z " fill="#584744" transform="translate(275.8125,111.25)"/>
<path d="M0 0 C4.2410462 2.4489227 6.53739468 5.3412894 8 10 C8.24050903 12.87910461 8.24050903 12.87910461 8.22705078 16.07543945 C8.22689972 17.27630692 8.22674866 18.47717438 8.22659302 19.71443176 C8.21627045 21.00105209 8.20594788 22.28767242 8.1953125 23.61328125 C8.19157912 24.95134774 8.18873368 26.28941697 8.18673706 27.62748718 C8.17912616 31.13741699 8.15949982 34.64717945 8.1373291 38.15704346 C8.11681564 41.74334449 8.10772362 45.32967274 8.09765625 48.91601562 C8.07625129 55.94407885 8.04214631 62.97203138 8 70 C8.8864772 69.99333817 9.77295441 69.98667633 10.68629456 69.97981262 C19.05757093 69.91959726 27.42877412 69.87397265 35.80021763 69.84456348 C40.10364109 69.82893543 44.40688496 69.80774972 48.71020508 69.77368164 C52.86640618 69.74098573 57.02243498 69.72312548 61.17875481 69.71536827 C62.76112516 69.70984307 64.34348653 69.69905373 65.92578316 69.68280983 C68.14937536 69.66089888 70.37226376 69.65803867 72.59594727 69.65942383 C73.85947525 69.65276199 75.12300323 69.64610016 76.42481995 69.63923645 C81.76484435 70.17808656 85.65635216 71.58744715 89.4375 75.5625 C91.53297241 80.17253931 91.80928265 84.0148189 91 89 C88.93060589 93.13878823 87.24696095 95.26599972 83 97 C81.05932903 97.26285553 81.05932903 97.26285553 78.9974823 97.28088379 C77.81801277 97.29801422 77.81801277 97.29801422 76.61471558 97.31549072 C75.76112457 97.31772644 74.90753357 97.31996216 74.02807617 97.32226562 C72.66881264 97.33716034 72.66881264 97.33716034 71.28208923 97.35235596 C68.28568478 97.38155426 65.28949207 97.39519525 62.29296875 97.40625 C60.20795182 97.41775656 58.12293493 97.42927198 56.03791809 97.4407959 C51.66581233 97.46180301 47.29377998 97.47349674 42.92163086 97.48046875 C37.32596262 97.49143647 31.73126818 97.53949073 26.13590527 97.59641266 C21.82840664 97.63370608 17.52114167 97.64407869 13.21349525 97.6471405 C11.15103137 97.6531855 9.08857121 97.66921578 7.0262661 97.69551086 C4.13679823 97.72972297 1.24969707 97.72585351 -1.63989258 97.71289062 C-2.91117004 97.74053497 -2.91117004 97.74053497 -4.20812988 97.76873779 C-9.79617715 97.69042434 -12.65017088 96.33971188 -16.70016003 92.48274994 C-19.63854214 89.13088664 -19.15476844 85.64329227 -19.16113281 81.41674805 C-19.16609772 80.63444824 -19.17106262 79.85214844 -19.17617798 79.04614258 C-19.19081401 76.45132576 -19.1976044 73.85657011 -19.203125 71.26171875 C-19.20887579 69.46051532 -19.21463353 67.65931191 -19.22039795 65.85810852 C-19.2309124 62.07768467 -19.23675198 58.29728212 -19.24023438 54.5168457 C-19.24571646 49.67453995 -19.26973646 44.83251576 -19.29820633 39.99029827 C-19.31683898 36.26794109 -19.32203867 32.5456516 -19.32357025 28.82325172 C-19.32659649 27.03828201 -19.33462406 25.25331349 -19.34775543 23.46838951 C-19.36482727 20.96918779 -19.36293293 18.47067207 -19.35644531 15.97143555 C-19.3656601 15.2351442 -19.37487488 14.49885284 -19.3843689 13.74024963 C-19.34839269 9.31179315 -18.69028624 6.53974554 -16 3 C-11.14379667 -0.85481329 -5.87658227 -2.10051391 0 0 Z " fill="#584744" transform="translate(26,204)"/>
<path d="M0 0 C3.42625454 2.0285406 6.20704012 4.41408023 8 8 C8.10380708 9.74744744 8.14385608 11.49882938 8.15390015 13.24932861 C8.16250061 14.36248947 8.17110107 15.47565033 8.17996216 16.62254333 C8.18422211 17.84957474 8.18848206 19.07660614 8.19287109 20.34082031 C8.20104858 21.62869949 8.20922607 22.91657867 8.21765137 24.2434845 C8.24387735 28.52167669 8.25918078 32.79987869 8.2734375 37.078125 C8.27879718 38.55086015 8.28417469 40.02359524 8.28956985 41.49633026 C8.31120053 47.62305478 8.32993673 53.74977665 8.34119225 59.87652969 C8.35742774 68.65636719 8.39059305 77.43576186 8.44759309 86.21543241 C8.48630486 92.38876389 8.50582644 98.56197699 8.51111281 104.73542666 C8.51476501 108.42238315 8.52677084 112.1088674 8.55921555 115.79569244 C8.59491349 119.91126285 8.59092227 124.02588302 8.58349609 128.14160156 C8.59990143 129.36053604 8.61630676 130.57947052 8.63320923 131.83534241 C8.56509369 141.04277405 8.56509369 141.04277405 5.58853149 144.7411499 C1.15143789 148.61312494 -2.25833662 148.33341324 -8.0078125 148.28515625 C-12.23772312 147.88204466 -13.9351786 146.90351501 -17 144 C-18.9958499 140.81863134 -19.25262529 138.34803285 -19.26069641 134.62405396 C-19.26778122 133.53338623 -19.27486603 132.44271851 -19.28216553 131.31900024 C-19.27968811 130.12721161 -19.27721069 128.93542297 -19.2746582 127.70751953 C-19.27976913 126.44860901 -19.28488007 125.18969849 -19.29014587 123.89263916 C-19.3035317 120.44214043 -19.30411493 116.99175127 -19.30158257 113.54123163 C-19.30051238 110.65860675 -19.30539756 107.776004 -19.310188 104.89338386 C-19.32128215 98.09085234 -19.32172139 91.28837603 -19.31567383 84.48583984 C-19.30963585 77.47394584 -19.32194067 70.46225259 -19.3432439 63.45039284 C-19.36087347 57.42562684 -19.36685905 51.40092464 -19.36360615 45.3761338 C-19.361795 41.77989677 -19.36441241 38.18380289 -19.37832069 34.58758926 C-19.39325723 30.57535066 -19.38391712 26.56351914 -19.37231445 22.55126953 C-19.37995819 21.36352936 -19.38760193 20.17578918 -19.39547729 18.95205688 C-19.33058724 8.81001687 -19.33058724 8.81001687 -16 4 C-11.23365204 -0.41759079 -6.25311558 -1.34136233 0 0 Z " fill="#574744" transform="translate(159,153)"/>
<path d="M0 0 C0.76699219 -0.03738281 1.53398438 -0.07476562 2.32421875 -0.11328125 C3.08347656 -0.17902344 3.84273438 -0.24476563 4.625 -0.3125 C10.01785876 1.69106618 12.20565251 8.88257964 14.47703552 13.79292297 C15.95388948 17.04119047 17.38947717 20.30719012 18.82421875 23.57421875 C19.42718152 24.93514091 20.03069294 26.29582013 20.63476562 27.65625 C22.10008381 30.95946363 23.55795727 34.26589984 25.01171875 37.57421875 C27.23878768 34.23361535 28.81985359 30.74790166 30.453125 27.09765625 C30.78086411 26.37180328 31.10860321 25.64595032 31.4462738 24.89810181 C32.49145493 22.58293929 33.53318829 20.26625032 34.57421875 17.94921875 C35.61896299 15.62511262 36.66449599 13.30138115 37.71287537 10.97891235 C38.36499682 9.53423076 39.0150057 8.08859342 39.66273499 6.64193726 C41.89910676 1.68683074 41.89910676 1.68683074 43.01171875 0.57421875 C44.97265625 0.37109375 44.97265625 0.37109375 47.38671875 0.32421875 C48.17820313 0.2984375 48.9696875 0.27265625 49.78515625 0.24609375 C52.01171875 0.57421875 52.01171875 0.57421875 53.62661743 1.65185547 C55.73951377 4.58431556 55.39332373 7.0800559 55.39990234 10.66015625 C55.4051593 11.37753967 55.41041626 12.0949231 55.41583252 12.83404541 C55.4290392 15.20599117 55.42029251 17.57726613 55.41015625 19.94921875 C55.4121768 21.59684376 55.41508809 23.2444679 55.41885376 24.89208984 C55.423278 28.34546421 55.41684296 31.79860581 55.40283203 35.25195312 C55.38573993 39.68084235 55.3955806 44.10918621 55.41354942 48.53805542 C55.42438465 51.94039019 55.42094216 55.34259544 55.41316605 58.74493408 C55.41116331 60.37803207 55.41362591 62.01114177 55.42060471 63.64422607 C55.42821509 65.92589513 55.41662184 68.20667827 55.39990234 70.48828125 C55.39751556 71.78717285 55.39512878 73.08606445 55.39266968 74.42431641 C55.01171875 77.57421875 55.01171875 77.57421875 53.67495728 79.49365234 C51.06199412 81.19123219 49.0405184 80.95281871 46.01171875 80.57421875 C43.91157753 79.00086422 43.11365653 78.10320993 42.61299133 75.50508118 C42.59633675 74.31594368 42.59633675 74.31594368 42.5793457 73.1027832 C42.54965446 71.75172234 42.54965446 71.75172234 42.5193634 70.37336731 C42.51297348 69.4045311 42.50658356 68.43569489 42.5 67.4375 C42.4820488 66.44292282 42.4640976 65.44834564 42.44560242 64.42362976 C42.39138859 61.24470265 42.35756792 58.06592662 42.32421875 54.88671875 C42.29105549 52.7324008 42.25656676 50.57810281 42.22070312 48.42382812 C42.13565603 43.14076048 42.06735317 37.85767354 42.01171875 32.57421875 C41.57303467 33.5957605 41.57303467 33.5957605 41.12548828 34.63793945 C39.79896602 37.72219579 38.46789825 40.80446981 37.13671875 43.88671875 C36.67652344 44.95857422 36.21632812 46.03042969 35.7421875 47.13476562 C35.29746094 48.16279297 34.85273437 49.19082031 34.39453125 50.25 C33.78182373 51.67179565 33.78182373 51.67179565 33.15673828 53.12231445 C32.01171875 55.57421875 32.01171875 55.57421875 30.01171875 58.57421875 C27.00353799 59.42435679 24.94507441 59.9049904 21.95947266 58.84692383 C19.56519927 57.28245314 18.90222426 55.98756437 17.72265625 53.3984375 C17.33851562 52.57021484 16.954375 51.74199219 16.55859375 50.88867188 C16.171875 50.02177734 15.78515625 49.15488281 15.38671875 48.26171875 C14.99226563 47.40642578 14.5978125 46.55113281 14.19140625 45.66992188 C12.35944586 41.67488664 10.6248906 37.66305483 9.01171875 33.57421875 C8.99713623 34.85586914 8.98255371 36.13751953 8.9675293 37.45800781 C8.90954555 42.2143134 8.83231242 46.9701456 8.74926758 51.72607422 C8.71601864 53.78426428 8.68798661 55.84254551 8.6652832 57.90087891 C8.63173685 60.86009566 8.57942073 63.81847692 8.5234375 66.77734375 C8.51704758 67.69727112 8.51065765 68.61719849 8.5040741 69.56500244 C8.35863444 75.88827917 8.35863444 75.88827917 6.70239258 79.16308594 C5.01171875 80.57421875 5.01171875 80.57421875 1.44921875 80.94921875 C-1.98828125 80.57421875 -1.98828125 80.57421875 -3.98828125 78.57421875 C-4.24224854 75.50660706 -4.24224854 75.50660706 -4.24707031 71.51000977 C-4.25057495 70.7830188 -4.25407959 70.05602783 -4.25769043 69.30700684 C-4.26651243 66.89728319 -4.26065645 64.48785178 -4.25390625 62.078125 C-4.25525292 60.40665124 -4.25719346 58.73517786 -4.25970459 57.06370544 C-4.2626566 53.55732501 -4.2583563 50.05104635 -4.24902344 46.54467773 C-4.23763762 42.04748447 -4.2441823 37.55053014 -4.25616837 33.05334568 C-4.26339241 29.6004201 -4.26109638 26.14755123 -4.25591278 22.69462395 C-4.25457733 21.03640655 -4.25622034 19.37818402 -4.26087189 17.71997261 C-4.26594511 15.4024503 -4.2582155 13.08531567 -4.24707031 10.76782227 C-4.24547913 9.44814957 -4.24388794 8.12847687 -4.24224854 6.76881409 C-3.96714964 3.30840917 -3.61542052 1.04413913 0 0 Z " fill="#4BC7E9" transform="translate(73.98828125,6.42578125)"/>
<path d="M0 0 C1.78567383 -0.04253906 1.78567383 -0.04253906 3.60742188 -0.0859375 C11.3900989 -0.10305169 17.51032633 0.89613801 23.9375 5.5 C28.11502999 9.90091433 30.04989028 14.20612812 30.09863281 20.2434082 C30.10824036 21.20483231 30.1178479 22.16625641 30.12774658 23.15681458 C30.13199646 24.19432358 30.13624634 25.23183258 30.140625 26.30078125 C30.14632507 27.36991257 30.15202515 28.43904388 30.15789795 29.54057312 C30.16734816 31.80430105 30.17388201 34.06804273 30.17773438 36.33178711 C30.18743265 39.78849408 30.21845343 43.24460465 30.25 46.70117188 C30.25653091 48.90103814 30.26178104 51.10090865 30.265625 53.30078125 C30.2779718 54.33221756 30.2903186 55.36365387 30.30303955 56.42634583 C30.28161011 63.35894945 29.28997517 67.67702979 24.75 73.125 C16.86157188 79.7863393 10.14923107 80.10341093 0.125 79.9375 C-1.10154297 79.94458984 -2.32808594 79.95167969 -3.59179688 79.95898438 C-12.46484786 79.8955706 -12.46484786 79.8955706 -14.70649719 78.41188049 C-16.76985255 75.50267645 -16.44409855 73.04044486 -16.45068359 69.50585938 C-16.45594055 68.79822952 -16.46119751 68.09059967 -16.46661377 67.36152649 C-16.47981947 65.02204323 -16.47107415 62.6832402 -16.4609375 60.34375 C-16.46295808 58.71854522 -16.46586939 57.09334132 -16.46963501 55.46813965 C-16.47405912 52.06184254 -16.46762466 48.65578141 -16.45361328 45.24951172 C-16.43652117 40.88115404 -16.44636191 36.51334929 -16.46433067 32.1450119 C-16.47516627 28.7889997 -16.47172324 25.4331188 -16.4639473 22.07710266 C-16.46194466 20.46633336 -16.4644068 18.85555218 -16.47138596 17.24479675 C-16.47899698 14.99425639 -16.46740228 12.74461402 -16.45068359 10.49414062 C-16.44829681 9.21301392 -16.44591003 7.93188721 -16.44345093 6.61193848 C-16.0625 3.5 -16.0625 3.5 -14.70451355 1.58911133 C-10.68862992 -1.0745356 -4.63747522 -0.00981996 0 0 Z M-4.0625 12.5 C-4.0625 30.65 -4.0625 48.8 -4.0625 67.5 C9.765593 68.78623939 9.765593 68.78623939 15.9375 64.5 C18.76053528 59.47544444 19.3853026 55.15748843 19.3359375 49.40625 C19.33880768 48.65589478 19.34167786 47.90553955 19.34463501 47.13244629 C19.34666421 45.55590046 19.34121492 43.9793288 19.32861328 42.40283203 C19.31254196 40.00625669 19.32849978 37.61136739 19.34765625 35.21484375 C19.34567361 33.67447549 19.34182951 32.13410827 19.3359375 30.59375 C19.34201019 29.8862561 19.34808289 29.17876221 19.3543396 28.4498291 C19.2830365 23.34060914 18.33752025 19.9264172 15.9375 15.5 C10.6375 10.9 10.6375 10.9 -4.0625 12.5 Z " fill="#4BC7E9" transform="translate(294.0625,7.5)"/>
<path d="M0 0 C9.2667011 -0.06963883 18.53331154 -0.12288156 27.80021763 -0.15543652 C32.10364109 -0.17106457 36.40688496 -0.19225028 40.71020508 -0.22631836 C44.86640618 -0.25901427 49.02243498 -0.27687452 53.17875481 -0.28463173 C54.76112516 -0.29015693 56.34348653 -0.30094627 57.92578316 -0.31719017 C60.14937536 -0.33910112 62.37226376 -0.34196133 64.59594727 -0.34057617 C65.85947525 -0.34723801 67.12300323 -0.35389984 68.42481995 -0.36076355 C73.76484435 0.17808656 77.65635216 1.58744715 81.4375 5.5625 C83.53297241 10.17253931 83.80928265 14.0148189 83 19 C80.95716657 23.08566686 79.29004189 25.44303081 75 27 C72.27333012 27.18055763 69.65175605 27.25277412 66.92675781 27.22705078 C66.11662735 27.22734283 65.30649689 27.22763489 64.47181702 27.22793579 C61.79881006 27.22654443 59.12608316 27.21099238 56.453125 27.1953125 C54.59796297 27.19158168 52.74279898 27.18873503 50.88763428 27.18673706 C46.00826565 27.17910604 41.12901635 27.15946207 36.24969482 27.1373291 C31.26934422 27.11685927 26.28897431 27.10773291 21.30859375 27.09765625 C11.53901011 27.07621571 1.76951498 27.04208612 -8 27 C-7.21625 26.2575 -6.4325 25.515 -5.625 24.75 C-2.15251145 21.11215486 -0.79993578 18.66516831 -0.5859375 13.671875 C-0.54726563 12.87265625 -0.50859375 12.0734375 -0.46875 11.25 C-0.42234375 10.0125 -0.42234375 10.0125 -0.375 8.75 C-0.33632813 7.90953125 -0.29765625 7.0690625 -0.2578125 6.203125 C-0.16384164 4.13576618 -0.08084436 2.06791373 0 0 Z " fill="#4BC7E9" transform="translate(34,274)"/>
<path d="M0 0 C3.96336361 3.52935892 7.64452374 7.90898326 8.26742554 13.32537842 C8.27504913 14.18061096 8.28267273 15.03584351 8.29052734 15.91699219 C8.30328705 16.89190613 8.31604675 17.86682007 8.32919312 18.87127686 C8.33141876 19.91922424 8.33364441 20.96717163 8.3359375 22.046875 C8.3425943 23.13204407 8.3492511 24.21721313 8.35610962 25.33526611 C8.36623287 27.63169664 8.37092674 29.92815656 8.37060547 32.22460938 C8.37496654 35.72315563 8.41125781 39.22042791 8.44921875 42.71875 C8.4550895 44.9531207 8.45905716 47.18749738 8.4609375 49.421875 C8.47530853 50.46172546 8.48967957 51.50157593 8.50448608 52.57293701 C8.45463389 60.57360289 6.88695351 65.97876959 1.3125 71.8125 C-5.76467779 76.48610798 -12.92389759 78.16888625 -21.25390625 76.56640625 C-27.15191528 74.95967283 -31.52771509 72.08248957 -35 67 C-37.83142505 60.70065188 -38.44383248 55.51804358 -38.3984375 48.65625 C-38.40130768 47.68772095 -38.40417786 46.71919189 -38.40713501 45.72131348 C-38.40916634 43.68415742 -38.40370203 41.64698145 -38.39111328 39.60986328 C-38.37504659 36.50899233 -38.39099409 33.40942463 -38.41015625 30.30859375 C-38.40817365 28.32030965 -38.40432964 26.33202636 -38.3984375 24.34375 C-38.40451019 23.42581665 -38.41058289 22.5078833 -38.4168396 21.56213379 C-38.34085393 14.53519929 -37.3505201 8.79521309 -32.6875 3.25 C-22.65522116 -5.14911717 -11.64263352 -6.88521258 0 0 Z M-25 13 C-26.12694869 15.25389739 -26.13762986 16.50210287 -26.16113281 19.00317383 C-26.17074036 19.82775589 -26.1803479 20.65233795 -26.19024658 21.50190735 C-26.19449646 22.39459824 -26.19874634 23.28728912 -26.203125 24.20703125 C-26.20882507 25.12457687 -26.21452515 26.0421225 -26.22039795 26.98747253 C-26.22985433 28.93182215 -26.23638446 30.87618784 -26.24023438 32.82055664 C-26.24992709 35.79016254 -26.28093903 38.75907263 -26.3125 41.72851562 C-26.31903134 43.61718339 -26.32428129 45.5058561 -26.328125 47.39453125 C-26.3404718 48.28114944 -26.3528186 49.16776764 -26.36553955 50.08125305 C-26.34825059 54.88604565 -26.13517379 58.10465523 -23 62 C-20.09799637 64.33772514 -18.27699106 64.96474659 -14.5625 65.4375 C-10.26133703 64.909287 -8.23950231 63.862816 -5 61 C-2.91020049 56.23301948 -2.69304072 51.6937252 -2.69921875 46.56640625 C-2.69493362 45.77024399 -2.6906485 44.97408173 -2.68623352 44.15379333 C-2.68051442 42.47713162 -2.67997203 40.80044511 -2.68432617 39.1237793 C-2.68748622 36.57362114 -2.66399745 34.02462443 -2.63867188 31.47460938 C-2.63639846 29.83854312 -2.63569558 28.20247377 -2.63671875 26.56640625 C-2.627509 25.81202774 -2.61829926 25.05764923 -2.60881042 24.28041077 C-2.65320246 19.14281297 -3.61006373 15.56911277 -6 11 C-9.34210921 8.03984613 -12.53643691 7.41814558 -17 7.5703125 C-20.61068185 8.34604493 -22.45265225 10.39052182 -25 13 Z " fill="#4BC7E9" transform="translate(248,11)"/>
<path d="M0 0 C0.81416885 -0.00622879 1.62833771 -0.01245758 2.46717834 -0.01887512 C3.77977882 -0.0050605 3.77977882 -0.0050605 5.11889648 0.0090332 C6.47047096 0.00828545 6.47047096 0.00828545 7.84934998 0.00752258 C9.75326748 0.00986247 11.65718812 0.019586 13.56103516 0.03613281 C16.48229479 0.05975223 19.40264361 0.05668989 22.32397461 0.05004883 C24.17228736 0.05562463 26.02059626 0.06273389 27.86889648 0.0715332 C28.7459877 0.0706218 29.62307892 0.06971039 30.52674866 0.06877136 C36.69646079 0.14128501 36.69646079 0.14128501 38.92749023 2.37231445 C39.30249023 5.80981445 39.30249023 5.80981445 38.92749023 9.37231445 C36.57896267 11.89153248 35.16460122 12.34714171 31.71948242 12.71289062 C30.48359375 12.69718018 29.24770508 12.68146973 27.97436523 12.6652832 C26.9840329 12.65891594 26.9840329 12.65891594 25.97369385 12.65242004 C23.87453632 12.6356888 21.77635527 12.59804996 19.67749023 12.55981445 C18.25042081 12.5447603 16.82333627 12.53107316 15.39624023 12.51879883 C11.90598231 12.48836053 8.41782316 12.42963744 4.92749023 12.37231445 C4.92749023 18.97231445 4.92749023 25.57231445 4.92749023 32.37231445 C11.28469712 32.25411315 11.28469712 32.25411315 17.64111328 32.10205078 C26.16348521 32.02219379 26.16348521 32.02219379 29.92749023 35.37231445 C30.523366 39.45831973 30.24316407 40.8988037 27.92749023 44.37231445 C25.58911133 44.71289062 25.58911133 44.71289062 22.70092773 44.6652832 C21.77199707 44.65779053 20.84306641 44.65029785 19.88598633 44.64257812 C18.70343262 44.61526611 17.52087891 44.5879541 16.30249023 44.55981445 C10.67186523 44.46700195 10.67186523 44.46700195 4.92749023 44.37231445 C4.92749023 51.96231445 4.92749023 59.55231445 4.92749023 67.37231445 C8.10631836 67.32010742 8.10631836 67.32010742 11.34936523 67.2668457 C13.40794529 67.24343157 15.46651036 67.22522569 17.52514648 67.20751953 C18.9529487 67.19245764 20.38070483 67.17200383 21.80834961 67.14599609 C23.86380396 67.10949603 25.91864529 67.09256279 27.97436523 67.0793457 C29.21025391 67.06363525 30.44614258 67.0479248 31.71948242 67.03173828 C35.16460122 67.3974872 36.57896267 67.85309642 38.92749023 70.37231445 C39.30249023 73.93481445 39.30249023 73.93481445 38.92749023 77.37231445 C36.24607115 80.05373354 34.17293039 79.63300337 30.52674866 79.67585754 C29.64965744 79.67494614 28.77256622 79.67403473 27.86889648 79.6730957 C26.96880356 79.67738083 26.06871063 79.68166595 25.14134216 79.68608093 C23.23567548 79.69182975 21.32998684 79.69232044 19.42431641 79.68798828 C16.50507213 79.68483077 13.58684329 79.70827179 10.66772461 79.73364258 C8.81811652 79.73591572 6.96850569 79.736619 5.11889648 79.7355957 C3.80629601 79.74941032 3.80629601 79.74941032 2.46717834 79.76350403 C1.65300949 79.75727524 0.83884064 79.75104645 0 79.74462891 C-0.71566635 79.74525833 -1.4313327 79.74588776 -2.16868591 79.74653625 C-4.07250977 79.37231445 -4.07250977 79.37231445 -5.80278015 78.28617859 C-7.74399225 75.36018854 -7.45420386 72.86147611 -7.46069336 69.37817383 C-7.46595032 68.67054398 -7.47120728 67.96291412 -7.47662354 67.23384094 C-7.48982924 64.89435769 -7.48108392 62.55555465 -7.47094727 60.21606445 C-7.47296785 58.59085967 -7.47587916 56.96565578 -7.47964478 55.3404541 C-7.48406888 51.93415699 -7.47763443 48.52809586 -7.46362305 45.12182617 C-7.44653093 40.75346849 -7.45637168 36.38566374 -7.47434044 32.01732635 C-7.48517604 28.66131415 -7.48173301 25.30543325 -7.47395706 21.94941711 C-7.47195443 20.33864781 -7.47441657 18.72786663 -7.48139572 17.11711121 C-7.48900674 14.86657085 -7.47741205 12.61692847 -7.46069336 10.36645508 C-7.45830658 9.08532837 -7.4559198 7.80420166 -7.45346069 6.48425293 C-7.07250977 3.37231445 -7.07250977 3.37231445 -5.80278015 1.45845032 C-3.69993376 0.13843878 -2.4749854 -0.00217674 0 0 Z " fill="#4BC7E9" transform="translate(353.072509765625,7.627685546875)"/>
<path d="M0 0 C0.82830322 -0.00524185 1.65660645 -0.0104837 2.51000977 -0.0158844 C4.25828939 -0.02229737 6.00661221 -0.02097697 7.75488281 -0.01245117 C10.42851552 -0.00393487 13.10001547 -0.03272038 15.7734375 -0.06445312 C17.47395769 -0.06606513 19.17448167 -0.06548761 20.875 -0.0625 C21.67301025 -0.07373398 22.47102051 -0.08496796 23.29321289 -0.09654236 C26.9023959 -0.05125254 29.01152282 0.11581112 31.9453125 2.30444336 C33.4375 4.43359375 33.4375 4.43359375 33.875 6.99609375 C33.33918455 9.98135126 32.90389401 10.68660369 30.4375 12.43359375 C27.92022281 12.69512661 25.65646034 12.78338595 23.14453125 12.7265625 C22.08548836 12.72019524 22.08548836 12.72019524 21.00505066 12.71369934 C18.75297697 12.69692409 16.50180258 12.65927618 14.25 12.62109375 C12.72201815 12.60604532 11.19402224 12.59235719 9.66601562 12.58007812 C5.92255303 12.54957734 2.18103144 12.49086024 -1.5625 12.43359375 C-1.5625 19.36359375 -1.5625 26.29359375 -1.5625 33.43359375 C0.06300781 33.3871875 1.68851563 33.34078125 3.36328125 33.29296875 C5.49216917 33.25545531 7.6210769 33.21905469 9.75 33.18359375 C10.82185547 33.15007813 11.89371094 33.1165625 12.99804688 33.08203125 C14.02607422 33.06914063 15.05410156 33.05625 16.11328125 33.04296875 C17.06114502 33.02202148 18.00900879 33.00107422 18.9855957 32.97949219 C21.4375 33.43359375 21.4375 33.43359375 23.27807617 35.26269531 C24.4375 37.43359375 24.4375 37.43359375 24.3125 40.55859375 C23.4375 43.43359375 23.4375 43.43359375 20.4375 45.43359375 C18.07739258 45.66064453 18.07739258 45.66064453 15.33203125 45.62890625 C14.00328979 45.62141357 14.00328979 45.62141357 12.64770508 45.61376953 C10.96584106 45.58645752 10.96584106 45.58645752 9.25 45.55859375 C5.681875 45.51734375 2.11375 45.47609375 -1.5625 45.43359375 C-1.5625 53.02359375 -1.5625 60.61359375 -1.5625 68.43359375 C1.85029297 68.38138672 1.85029297 68.38138672 5.33203125 68.328125 C7.53620143 68.30472715 9.74035776 68.28651196 11.94458008 68.26879883 C13.47621861 68.25371439 15.00781398 68.23324397 16.53930664 68.20727539 C18.74115654 68.17087528 20.94243533 68.15386462 23.14453125 68.140625 C23.82900833 68.12514114 24.51348541 68.10965729 25.21870422 68.09370422 C28.05928171 68.0926992 29.99505684 68.14165718 32.40112305 69.72924805 C33.4375 71.43359375 33.4375 71.43359375 33.3125 74.99609375 C32.4375 78.43359375 32.4375 78.43359375 29.4375 80.43359375 C26.58280623 80.6418237 23.82807306 80.73761521 20.97265625 80.734375 C19.72807899 80.74080269 19.72807899 80.74080269 18.45835876 80.74736023 C16.70410067 80.75310128 14.94981877 80.75360544 13.19555664 80.74926758 C10.51342074 80.74610955 7.83238999 80.76956193 5.15039062 80.79492188 C3.44531389 80.79719511 1.74023419 80.79789825 0.03515625 80.796875 C-0.76599106 80.80608475 -1.56713837 80.81529449 -2.39256287 80.82478333 C-5.45877847 80.79934549 -7.99132142 80.71268902 -10.77357483 79.35319519 C-13.451976 76.47914387 -13.07057653 74.22575139 -13.08007812 70.34765625 C-13.09059204 69.27158112 -13.09059204 69.27158112 -13.10131836 68.17376709 C-13.11892855 65.80164926 -13.10726603 63.43072377 -13.09375 61.05859375 C-13.09644407 59.41096772 -13.10032579 57.76334324 -13.10534668 56.11572266 C-13.11124578 52.66228094 -13.10266587 49.209253 -13.08398438 45.75585938 C-13.06119415 41.3268236 -13.07431509 36.89875728 -13.09827423 32.46975708 C-13.11272133 29.06738974 -13.10813132 25.66525265 -13.09776306 22.26287842 C-13.09509274 20.62977992 -13.09837627 18.99666059 -13.10768127 17.36358643 C-13.11782955 15.08167067 -13.1023727 12.80132955 -13.08007812 10.51953125 C-13.07689575 9.22063965 -13.07371338 7.92174805 -13.07043457 6.58349609 C-12.5625 3.43359375 -12.5625 3.43359375 -10.77258301 1.51597595 C-7.30282117 -0.18333056 -3.78281106 -0.01391582 0 0 Z " fill="#4BC7E9" transform="translate(19.5625,6.56640625)"/>
<path d="M0 0 C3.17681721 3.4264466 5.01955141 6.88058258 6.796875 11.17578125 C7.52197266 12.91118164 7.52197266 12.91118164 8.26171875 14.68164062 C8.75285156 15.87982422 9.24398437 17.07800781 9.75 18.3125 C10.25660156 19.53001953 10.76320312 20.74753906 11.28515625 22.00195312 C12.53072606 24.99837107 13.768708 27.99769332 15 31 C15.34780518 30.13197754 15.69561035 29.26395508 16.05395508 28.36962891 C17.34923319 25.14988212 18.65280659 21.93376197 19.9621582 18.71972656 C20.52704657 17.32818416 21.08859729 15.93528198 21.64672852 14.54101562 C22.44974383 12.5366894 23.26465013 10.53756586 24.08203125 8.5390625 C24.81256714 6.73236084 24.81256714 6.73236084 25.55786133 4.88916016 C27 2 27 2 30 0 C33.625 0.25 33.625 0.25 37 1 C38.74356956 4.48713912 38.58589675 8.20490839 37.38186646 11.89385986 C36.49047876 13.95363577 35.52811458 15.96380562 34.53515625 17.9765625 C33.80702014 19.53578121 33.08221258 21.09655766 32.36035156 22.65869141 C31.98334106 23.46961243 31.60633057 24.28053345 31.21789551 25.11602783 C23.41640955 42.05716271 19.69855732 55.73062794 21.29199219 74.48681641 C21 77 21 77 19.19238281 79.34521484 C17 81 17 81 13.875 80.875 C11 80 11 80 9 78 C8.95092773 75.76147461 8.95092773 75.76147461 9.18359375 72.90234375 C10.04968908 53.52381803 4.90390825 39.14064351 -3.09204102 21.63842773 C-3.48161484 20.77837128 -3.87118866 19.91831482 -4.27256775 19.03219604 C-5.01397889 17.41034616 -5.77134764 15.79566257 -6.5471344 14.18997192 C-8.58565929 9.78984645 -9.69431445 6.81659023 -8 2 C-4.75846834 -0.1610211 -3.76307099 -0.64247553 0 0 Z " fill="#4BC7E9" transform="translate(155,7)"/>
</svg>
