<?xml version="1.0" encoding="utf-8"?>
<!-- Generator: Adobe Illustrator 25.2.3, SVG Export Plug-In . SVG Version: 6.00 Build 0)  -->
<svg version="1.1" id="Layer_1" xmlns="http://www.w3.org/2000/svg" xmlns:xlink="http://www.w3.org/1999/xlink" x="0px" y="0px"
	 viewBox="0 0 2500 2500" style="enable-background:new 0 0 2500 2500;" xml:space="preserve">
<style type="text/css">
	.st0{fill-rule:evenodd;clip-rule:evenodd;fill:#4E4A79;}
	.st1{fill-rule:evenodd;clip-rule:evenodd;fill:#E9B040;}
</style>
<g>
	<path class="st0" d="M314,1775.7l11.2-87.7H272l3-23.2h146.2l-3,23.2H365l-11.2,87.7H314z M426.4,1775.7l13.5-110.9h119.9l-3,24
		h-80.9l-2.3,18.7h77.2l-3,23.2h-77.2l-2.3,21h83.2l-3,24L426.4,1775.7L426.4,1775.7L426.4,1775.7z M717.2,1736.8l-3,9.7l-4.5,8.2
		l-6,6.7l-9,6l-9.7,4.5l-12.7,3l-13.5,1.5l-15.7,0.7l-18-0.7l-15.7-3l-12.7-4.5l-10.5-6l-8.2-8.2l-5.2-9.7l-2.2-11.2l0.7-13.5
		l2.2-12.7l6-11.2l7.5-9.7l9.8-8.2l12.7-6.7l14.2-4.5l17.2-2.2l18.7-0.7h14.2l12.7,2.2l10.5,3l9,3.7l6.7,5.2l4.5,6.7l3,7.5l0.7,9
		h-39.7l-2.2-6.7l-5.2-5.2l-8.2-3l-11.2-0.7l-17.2,2.2l-7.5,2.3l-5.2,3.7l-5.2,5.2l-3,5.2l-3,7.5l-1.5,8.2l-0.7,7.5l0.7,7.5l2.3,6
		l3.7,5.2l4.5,3.7l5.2,2.2l7.5,1.5l8.2,0.7l13.5-0.7l9-3.7l7.5-5.2l3.7-8.2L717.2,1736.8L717.2,1736.8z M748.7,1664.8h39.7
		l-5.2,42.7h70.4l5.2-42.7h39.7l-13.5,110.9h-40.5l6-45h-70.4l-6,45h-39.7L748.7,1664.8z M915.8,1775.7l14.2-110.9h51.7l54.7,79.4
		l9.7-79.4h36l-14.2,110.9h-52.5l-54-79.4l-9.7,79.4H915.8L915.8,1775.7z M1139.9,1721.8l-0.7,7.5l1.5,7.5l2.2,6l4.5,4.5l5.2,3.7
		l7.5,3l8.2,1.5l9.7,0.7l10.5-0.7l9-1.5l8.2-2.2l6.8-3.7l5.2-5.2l4.5-6l3-6.7l1.5-8.2v-8.2l-0.8-7.5l-3-6.7l-4.5-5.2l-5.2-4.5
		l-7.5-3l-9-1.5l-9.7-0.7l-9.7,0.7l-9,1.5l-7.5,3l-6.7,4.5l-5.2,5.2l-4.5,6.7l-3,7.5L1139.9,1721.8L1139.9,1721.8z M1173.6,1777.2
		l-18.7-0.7l-15.7-2.3l-13.5-5.2l-11.2-6l-8.2-8.2l-5.2-10.5l-2.2-11.2v-12.8l3-12.7l6-11.2l8.2-9.7l10.5-8.2l13.5-6.7l15-4.5
		l17.2-3l19.5-0.7l18.7,0.7l16.5,3l13.5,4.5l11.2,6.7l9,8.2l5.2,9.7l2.2,12v12.7l-3,12.7l-6,11.2l-7.5,9.7l-11.2,8.2l-12.8,6.7
		l-15.7,4.5l-18,2.3l-20.2,1.5L1173.6,1777.2L1173.6,1777.2L1173.6,1777.2z M1285.3,1775.7l14.2-110.9h39.7l-11.2,86.9h74.2l-3,24
		H1285.3z M1450.9,1721.8l-0.7,7.5l1.5,7.5l2.2,6l4.5,4.5l5.2,3.7l7.5,3l8.2,1.5l10.5,0.7l9.7-0.7l9.7-1.5l7.5-2.2l6.7-3.7l5.2-5.2
		l4.5-6l3-6.7l1.5-8.2l0.7-8.2l-1.5-7.5l-3-6.7l-3.7-5.2l-6-4.5l-7.5-3l-8.2-1.5l-10.5-0.7l-9.7,0.7l-8.2,1.5l-8.2,3l-6.7,4.5
		l-5.2,5.2l-4.5,6.7l-3,7.5L1450.9,1721.8L1450.9,1721.8z M1484.7,1777.2l-18-0.7l-16.5-2.3l-13.5-5.2l-11.2-6l-8.2-8.2l-5.2-10.5
		l-2.2-11.2v-12.8l3-12.7l6-11.2l8.2-9.7l10.5-8.2l13.5-6.7l15.7-4.5l17.2-3l18.7-0.7l19.5,0.7l15.7,3l14.2,4.5l11.2,6.7l8.2,8.2
		l5.2,9.7l3,12l-0.7,12.7l-3,12.7l-5.2,11.2l-8.3,9.7l-11.2,8.2l-12.8,6.7l-15.7,4.5l-18,2.3l-20.2,1.5L1484.7,1777.2L1484.7,1777.2
		L1484.7,1777.2z M1710.2,1753.3l3-18.7h-36l3-20.2h75l-6.8,55.5l-33.7,6l-36,1.5l-21-0.7l-18-2.3l-15-4.5l-12-6.7l-8.2-7.5l-6-9.7
		l-3-11.2l0.8-13.5l3-12.7l5.2-11.2l8.2-10.5l10.5-8.2l13.5-6l15-4.5l18-3l19.5-0.7h15.7l14.2,2.2l12,2.3l9.7,4.5l7.5,5.2l4.5,6
		l3,7.5l0.8,8.2H1714l-1.5-6.7l-6-5.2l-9-3l-12-0.7h-9.7l-9,2.2l-8.3,3l-6.7,3.7l-5.2,5.2l-4.5,6l-3,6.7l-1.5,8.2v8.2l0.7,7.5l3,6.7
		l4.5,5.2l6.7,3.7l7.5,3l9,1.5l11.2,0.7l15-0.7L1710.2,1753.3L1710.2,1753.3z M1773.9,1775.7l13.5-110.9h40.5l-14.2,110.9H1773.9z
		 M1846.6,1775.7l13.5-110.9H1980l-3,24h-80.9l-2.2,18.7h76.4l-2.2,23.2h-77.2l-3,21h83.2l-3,24L1846.6,1775.7L1846.6,1775.7
		L1846.6,1775.7z M1989.8,1739h39.7v0.8l0.7,7.5l4.5,4.5l8.2,3l12.7,0.7l11.2-0.7l7.5-1.5l5.2-3.7l2.2-5.2l-0.8-3.7l-5.2-3.7l-9-3
		l-12.7-2.2l-8.3-0.7l-24-5.2l-9-3l-6.7-3.7l-4.5-3.7l-3-5.2l-1.5-5.2v-6l2.3-8.2l4.5-6.7l6-6l7.5-5.2l10.5-3.7l11.2-3l13.5-1.5
		l15-0.7l26.2,2.3l10.5,2.2l7.5,3.7l6,4.5l3.7,6l2.2,6.7l0.8,8.2h-37.5v-0.7l-1.5-5.2l-3.7-3.7l-7.5-2.2l-10.5-0.7l-10.5,0.7
		l-8.2,2.2l-4.5,3l-2.3,4.5l0.8,3.7l5.2,3l8.2,3l12,2.2l8.2,0.7l1.5,0.7l24.7,5.2l9,3l6,3l4.5,4.5l3,5.2l1.5,6v6.7l-2.2,8.2
		l-4.5,6.7l-6,6l-8.2,5.2l-10.5,3.7l-12,3l-13.5,2.2h-30.7l-13.5-2.2l-11.2-2.3l-8.2-4.5l-6.7-5.2l-4.5-6l-2.2-7.5v-8.2L1989.8,1739
		z"/>
	<path class="st0" d="M1891.6,1596.6l68.2-628.8h232.3l-68.2,628.8L1891.6,1596.6L1891.6,1596.6z M378.5,724.3l-69.7,568.1
		l47.2-32.2l46.5-30.7l45.7-27.7l46.5-25.5l36-18.7l37.5-18l27.7-230.1h501.4l23.2-185.1L378.5,724.3L378.5,724.3L378.5,724.3z
		 M1082.2,1302.8h242.1l-0.8,9l-1.5,15.7v14.2l2.3,12.7l3,12l4.5,11.2l6,10.5l7.5,9l8.3,8.2l10.5,6.7l12,6l13.5,5.2l15,4.5l16.5,3
		l18,2.2l40.5,2.3l36.7-1.5l31.5-4.5l27.7-6.7l22.5-9.7l9.7-6l9-6.7l6.7-6.7l6.8-8.2l5.2-9l4.5-9l3-10.5l1.5-10.5l0.7-8.2l-1.5-7.5
		l-2.2-7.5l-4.5-7.5l-5.2-6.7l-6.8-6.7l-18-12.7l-23.2-11.2l-29.2-10.5l-35.2-9.7l-40.5-8.2l-54-10.5l-40.5-8.2l-38.2-9.7
		l-34.5-10.5l-30.7-10.5l-27.7-12l-24-12l-21.7-13.5l-17.2-13.5l-15-15l-12-16.5l-10.5-17.2l-7.5-19.5l-5.2-20.2l-3-21.7l-0.7-23.2
		l2.2-24.7l5.2-31.5l9-30l11.2-27.7l14.2-26.2l17.2-24l21-21.7l23.2-20.2l26.2-18.7l29.2-15.7l31.5-14.2l34.5-12l36.7-9.7l39.7-7.5
		l42-5.2l45-3.7l47.2-0.7l44.2,0.7l42,3l38.2,4.5l34.5,6.7l32.2,9l28.5,10.5l25.5,12.7l21.7,15l18.7,16.5l16.5,18.7l13.5,21
		l10.5,23.2l7.5,25.5l5.2,27.7l1.5,30l-0.7,32.2H1681l0.7-2.2l0.8-11.2l-0.8-10.5l-1.5-10.5l-3-9l-4.5-8.2l-5.2-8.2l-6.7-6.7
		l-8.3-6.7l-9-5.2l-10.5-5.2l-24.7-7.5l-29.2-4.5l-34.5-1.5l-33.7,1.5l-30,3.7l-26.2,6.7l-22.5,9l-18,11.2l-7.5,6.7l-6,7.5l-5.2,7.5
		l-4.5,8.2l-3,9l-1.5,9v7.5l0.8,7.5l3,6.7l3.7,6.7l5.2,6.7l6,6l18,12l22.5,11.2l28.5,10.5l33.7,9l39,9l45.7,9l9.7,1.5l44.2,9.7
		l39.7,9.7l36,10.5l32.2,10.5l27.8,12l23.2,12l20.3,12l15.7,12.7l14.2,16.5l12.7,18l9.7,19.5l7.5,21.7l5.2,22.5l3,24l0.7,24.7
		l-2.2,25.5l-5.2,32.2l-9,30.7l-12,28.5l-15,26.2l-18,24.7l-21,22.5l-24,21l-27.8,18.7l-30,16.5l-33,15l-35.2,12l-38.2,9.7
		l-40.5,8.2l-43.5,5.2l-45.7,3.7l-48.7,0.7l-48-0.7l-45-3l-42-6l-38.2-7.5l-34.5-9.7l-31.5-12l-27.8-14.2l-24.7-16.5l-21-18.7
		l-18-21l-14.2-23.2l-11.2-25.5l-7.5-27l-3.7-30l-0.7-32.2l2.3-34.5L1082.2,1302.8L1082.2,1302.8z M544.8,1326.1l-33.7,10.5l-54,21
		l-54.7,24l-55.5,27.7l-56.2,30.7l-19.5,156.6h755.4l23.2-188.1H535.1L544.8,1326.1L544.8,1326.1z"/>
	<path class="st1" d="M0,1597.4h0.7l63-47.2l62.9-45l62.2-42l62.2-38.2l62.2-35.2l62.2-31.5l62.2-28.5l62.2-24l60-19.5l60-15.7
		l60-12l60-9.7l60-6l60-3l59.2-0.7l59.2,2.3l9-94.4l9.7-93.7l-60,8.2l-60.7,11.2l-60.7,14.2l-61.5,16.5l-60.7,20.2l-61.5,24
		l-60.7,27l-60.7,30.7l-64.4,36l-63.7,40.5l-62.9,44.2l-63.7,47.2l-62.9,51l-63.7,54.7l-64.4,57.7L0,1597.4L0,1597.4z M1965.8,907.1
		l21-182.9h230.1l-21.8,182.9H1965.8z"/>
</g>
</svg>
