<svg width="1000" height="1000" xmlns="http://www.w3.org/2000/svg">

 <g>
  <title>background</title>
  <rect fill="none" id="canvas_background" height="1002" width="1002" y="-1" x="-1"/>
 </g>
 <g>
  <title>Layer 1</title>
  <g id="svg_1">
   <path fill="RGB(234,22,40)" stroke="null" id="svg_3" d="m264.093266,32.565596c-42.952933,30.397999 -70.916991,80.635245 -70.916991,136.966099c0,7.704562 1.208215,16.617339 1.208215,24.321901c-7.687052,0.402738 -17.020078,-0.805477 -24.72464,-0.805477c-91.999474,0 -167.381608,74.979396 -167.381608,167.381608c0,55.928116 29.592522,109.002041 75.784873,139.802778c-46.192351,31.203476 -75.784873,83.892173 -75.784873,140.223027c0,91.981963 75.382134,166.961359 167.381608,166.961359c7.687052,0 16.19709,-1.225726 24.72464,-1.225726c0,7.722072 -1.208215,17.037588 -1.208215,24.72464c0,56.330854 27.964058,106.182872 70.916991,136.56336c27.14107,19.454019 60.795998,30.818248 96.447107,30.818248c56.330854,0 109.002041,-29.172273 139.802778,-75.784873c29.97775,46.6126 84.277401,75.784873 140.205517,75.784873c36.071358,0 69.288526,-11.346718 96.447107,-30.818248c42.952933,-30.362978 70.916991,-80.232506 70.916991,-136.56336c0,-7.687052 -1.208215,-17.002567 -1.208215,-24.72464c8.1073,0 17.422816,1.225726 25.127378,1.225726c91.999474,0 167.381608,-74.961886 167.381608,-166.961359c0,-56.330854 -29.575012,-109.019551 -76.187611,-140.223027c46.595089,-30.800737 76.187611,-83.874663 76.187611,-139.802778c0,-92.402212 -75.382134,-167.381608 -167.381608,-167.381608c-7.687052,0 -17.020078,1.225726 -25.127378,1.225726c0,-7.704562 1.208215,-17.020078 1.208215,-24.72464c0,-56.330854 -27.964058,-106.5681 -70.916991,-136.966099c-27.158581,-19.454019 -60.375749,-30.800737 -96.447107,-30.800737c-55.928116,0 -109.019551,29.575012 -139.802778,75.784873c-31.203476,-46.192351 -83.892173,-75.784873 -140.205517,-75.784873c-35.66862,-0.01751 -69.306037,11.329208 -96.447107,30.783227l0,0zm472.90251,855.46903c-19.05128,34.845632 -55.910605,58.747285 -98.075571,58.747285c-59.167534,0 -111.856231,-46.6126 -111.856231,-105.745113l0,-255.318676c0,-32.429202 27.158581,-58.764795 58.362057,-58.764795l151.552235,0l104.957146,0c59.167534,0 105.377395,52.688697 105.377395,111.856231c0,61.601475 -50.675005,112.241459 -112.661708,112.241459c-36.876835,0 -72.562965,-19.454019 -93.207689,-49.834507c2.819169,-6.899085 4.447633,-14.988875 4.447633,-22.693437c0,-11.749457 -3.239418,-22.693437 -8.912777,-32.429202c-11.346718,-19.454019 -32.429202,-32.83194 -56.330854,-32.83194c-35.651109,0 -64.840893,29.172273 -64.840893,65.243631c0,36.071358 29.189784,65.243631 64.840893,65.243631c6.478836,0 12.957672,-1.208215 19.05128,-2.83668c15.794352,9.735765 28.366796,23.498914 37.279574,40.133764c8.912777,16.214601 13.78066,34.442894 13.78066,53.494174c0.035021,19.454019 -4.850372,37.699822 -13.763149,53.494174l0,0zm0,-414.155225l-151.552235,0c-31.203476,0 -58.362057,-26.335594 -58.362057,-58.362057l0,-256.106643c0,-59.167534 52.688697,-105.780133 111.856231,-105.780133c42.147456,0 79.024291,23.901652 98.075571,58.764795c8.912777,15.794352 13.78066,34.040155 13.78066,53.494174c0,19.05128 -4.867882,37.279574 -13.78066,53.896913c-8.912777,16.214601 -21.485222,30.380489 -37.279574,40.518992c-6.093608,-2.031203 -12.572444,-3.256928 -19.05128,-3.256928c-35.651109,0 -64.840893,29.575012 -64.840893,65.243631c0,36.071358 29.189784,65.243631 64.840893,65.243631c23.901652,0 44.966625,-12.975183 56.330854,-32.83194c5.673359,-9.315516 8.912777,-20.662234 8.912777,-32.429202c0,-7.687052 -1.628464,-15.391614 -4.447633,-22.290699c20.662234,-30.800737 56.330854,-50.254756 93.207689,-50.254756c61.986703,0 112.661708,50.657495 112.661708,112.258969c0,59.570272 -46.209861,112.258969 -105.377395,112.258969l-104.974656,-0.367718l0,0zm-472.90251,414.155225c-8.510039,-15.794352 -13.78066,-34.022645 -13.78066,-53.494174c0,-19.05128 4.867882,-37.279574 13.78066,-53.494174c8.912777,-16.63485 21.485222,-30.397999 37.279574,-40.133764c6.076098,1.628464 12.554934,2.83668 19.03377,2.83668c35.66862,0 64.840893,-29.189784 64.840893,-65.243631c0,-36.071358 -29.189784,-65.243631 -64.840893,-65.243631c-23.901652,0 -44.984135,13.377921 -56.330854,32.83194c-5.673359,9.718254 -8.510039,20.662234 -8.510039,32.429202c0,7.687052 1.628464,15.794352 4.044895,22.693437c-20.259496,30.380489 -55.910605,49.834507 -93.207689,49.834507c-62.004213,0 -112.258969,-50.657495 -112.258969,-112.241459c0,-59.167534 45.789612,-111.856231 105.359884,-111.856231l104.554408,0l151.552235,0c31.203476,0 58.362057,26.335594 58.362057,58.764795l0,255.318676c0,59.132513 -52.688697,105.745113 -111.435982,105.745113c-42.532684,0 -79.409519,-23.901652 -98.443289,-58.747285l0,0zm0,-414.155225l-104.554408,0.402738c-59.570272,0 -105.359884,-52.671187 -105.359884,-112.258969c0,-61.601475 50.254756,-112.258969 112.258969,-112.258969c37.279574,0 72.948193,19.454019 93.207689,50.254756c-2.416431,6.899085 -4.044895,14.586137 -4.044895,22.290699c0,11.749457 2.83668,23.096175 8.510039,32.429202c11.346718,19.856757 32.429202,32.83194 56.330854,32.83194c35.66862,0 64.840893,-29.189784 64.840893,-65.243631c0,-35.66862 -29.189784,-65.243631 -64.840893,-65.243631c-6.478836,0 -12.975183,1.208215 -19.03377,3.256928c-15.811862,-10.138503 -28.366796,-24.321901 -37.279574,-40.518992c-8.912777,-16.617339 -13.78066,-34.845632 -13.78066,-53.896913c0,-19.454019 5.270621,-37.699822 13.78066,-53.494174c19.03377,-34.863143 55.928116,-58.764795 98.47831,-58.764795c58.747285,0 111.435982,46.595089 111.435982,105.780133l0,256.106643c0,32.026463 -27.158581,58.362057 -58.362057,58.362057l-151.587256,0l0,-0.035021z" clip-rule="evenodd" fill-rule="evenodd"/>
  </g>
 </g>
</svg>