<svg width="1000" height="1000" xmlns="http://www.w3.org/2000/svg">
 <g>
  <title>background</title>
  <rect x="-1" y="-1" width="1002" height="1002" id="canvas_background" fill="none"/>
 </g>

 <g>
  <title>Layer 1</title>
  <g stroke="null" fill-rule="evenodd" clip-rule="evenodd" id="svg_1">
   <!--<path fill="#fff" d="M0 0h192.756v192.756H0V0z"/>-->
   <path stroke="null" d="m840.413952,300.638601l-10.275664,-12.36128l-1.090847,0.98347c1.413029,1.639134 3.17084,3.933932 1.413029,5.358261c-0.763041,0.655664 -1.853887,0.876093 -2.724357,0.98347l-19.471728,2.622604l5.465638,-18.81044c0.333482,-1.096523 0.99477,-2.407799 1.64481,-2.95041c1.531705,-1.311328 2.848658,0 5.143456,2.515228l0.98347,-0.876093l-13.124321,-15.752654l-1.090899,0.876093c1.85394,2.730033 2.407851,3.719127 -1.203899,16.515694l-4.589596,16.408266l-9.738676,8.206971c-4.273038,3.611698 -5.697419,4.482168 -10.496093,-0.876093l-0.99477,0.876093l14.328273,17.171306l1.102147,-0.876093c-4.159986,-5.143508 -3.83218,-6.675213 0.209129,-10.066534l10.942628,-9.077388l19.584781,-2.402175c9.184817,-1.096523 11.050004,0.548235 12.903944,2.402175l1.079547,-0.870417l0,-0.000052zm-59.72089,-14.656079l-1.531758,-1.311276c-7.319577,3.283892 -11.479563,2.515176 -18.256529,-3.61175c-8.201295,-7.330877 -8.093918,-7.438254 -6.126978,-9.625676l12.140903,-13.452179l8.314347,7.653059c4.482168,4.046933 4.589596,5.578691 1.311328,10.501717l1.299976,1.203952l11.383486,-12.689139l-1.311328,-1.090899c-4.052609,3.283944 -5.793444,4.154362 -10.609094,-0.220429l-8.421776,-7.545631l10.942628,-12.140903c1.633458,-1.859564 2.294798,-1.311276 3.498698,-0.220429l7.330877,6.562161c6.013925,5.471314 6.669589,7.658735 3.057839,13.237426l1.424329,1.203899l6.890019,-7.879113l-28.978727,-26.141318l-0.881717,1.096523c3.176516,3.391269 4.159986,4.81565 0.220429,9.184765l-21.772203,24.168702c-3.707827,4.154362 -5.465638,3.498698 -9.071712,0.655664l-0.983522,0.98347l29.419586,26.4748l10.710898,-6.997395zm-11.26481,-58.403937l-14.232196,-9.625676l-0.763041,1.090899c3.939608,3.176516 5.256561,4.81565 0.553911,11.705668l-13.678233,20.342146l-0.113053,-0.107377l-3.61175,-44.844382l-10.388716,-7.110448l-0.763041,1.198275c2.407851,1.644758 3.170892,2.622604 3.61175,7.330877l-18.0474,26.796982c-4.369115,6.562161 -6.347407,6.562161 -11.163057,3.826504l-0.763041,1.096523l14.328273,9.625676l0.763041,-1.090899c-4.369115,-3.176516 -4.702597,-5.358261 -0.429559,-11.705616l15.961731,-23.626142l0.113053,0l4.261738,51.412218l1.000446,0.649988l21.64785,-31.934762c4.702597,-7.110448 6.901319,-6.013925 10.942628,-3.939608l0.768665,-1.090847zm-76.457013,6.884343c-5.465638,-2.843034 -5.573014,-4.482168 -3.391269,-8.964335l16.402589,-33.687001l3.498698,1.752187c7.217825,3.498698 8.534777,5.578691 6.347407,13.559556l1.633458,0.768717l5.036131,-11.377862l-37.191322,-18.154776l-5.793496,11.050004l1.531758,0.768717c5.036079,-6.562161 7.319525,-6.895643 14.661755,-3.391321l3.498698,1.752187l-16.086136,32.923908c-2.294746,4.923079 -3.278268,6.347407 -9.405194,3.61175l-0.66134,1.311328l19.251351,9.405194l0.666964,-1.328252l-0.000052,0zm-48.563509,-18.697388l20.557003,7.432578l0.440859,-1.203899c-5.036079,-2.074317 -6.46046,-3.278268 -4.482168,-8.749582l11.151757,-30.516109c1.97824,-5.578691 3.832128,-5.358261 8.975636,-3.719127l0.440859,-1.311276l-20.455199,-7.545683l-0.440911,1.311328c5.573067,2.407799 6.240031,3.61175 4.369167,8.642153l-11.038704,30.623486c-1.86524,4.923079 -3.069139,5.793496 -8.975688,3.719179l-0.542611,1.316952z" id="svg_2"/>
   <path stroke="null" d="m598.133397,202.528114l19.692158,5.250885l0.333482,-1.311276c-5.363937,-1.859616 -5.686067,-3.391321 -4.493468,-8.093918l3.939556,-14.548754l21.438721,5.799172l-3.719127,13.779985c-1.413081,5.250885 -2.074369,6.782642 -8.093918,5.471314l-0.440911,1.311328l19.69221,5.250885l0.429559,-1.305652c-5.465638,-1.86524 -5.793496,-3.396997 -4.589544,-7.986541l8.421724,-31.499579c1.424329,-5.036079 2.515228,-5.686119 7.992165,-4.702649l0.322182,-1.311276l-19.680858,-5.250885l-0.333482,1.311328c5.143456,1.859564 5.906497,2.843034 4.482168,7.986489l-3.61175,13.780037l-21.546097,-5.79912l3.719127,-13.666985c1.311328,-5.036079 2.407851,-5.691743 7.992218,-4.708273l0.33343,-1.311276l-19.692158,-5.358313l-0.333482,1.418705c5.143456,1.752187 5.906549,2.735657 4.482168,7.986541l-8.201295,30.736538c-1.413029,5.250885 -2.074369,6.78259 -8.201295,5.471314l-0.333482,1.299976zm5.363885,-49.111744l-14.548702,-1.090899l0,1.424381c2.407851,0.435183 4.923026,0.876093 4.81565,3.713451c-0.113053,1.531758 -0.870417,3.719127 -1.633458,5.143508l-10.829575,24.174326l-7.884789,-25.59303c-0.98347,-2.956086 -1.746511,-4.59522 -1.633458,-5.79912c0.220429,-2.62828 3.611698,-2.62828 5.906497,-2.407851l0,-1.418705l-19.471728,-1.311276l-0.113053,1.311276c3.83218,0.440859 4.923026,0.876093 6.890019,7.110448l2.074317,6.234355l-9.286517,20.020016l-8.642153,-28.221311c-0.333482,-0.983522 -0.66134,-2.187422 -0.553911,-3.283944c0.113001,-1.859564 1.644758,-2.18737 4.923026,-2.18737l0.113053,-1.311328l-17.940023,-1.311276l-0.113053,1.418653c4.159986,0.655664 5.036079,2.843086 6.890019,9.07744c2.294746,7.545631 8.421724,28.763922 11.383486,40.249109l1.090847,0.113053l13.457855,-30.188251c2.616928,8.201295 7.540007,23.953896 9.518247,31.827385l1.090899,0c5.352585,-13.779985 12.242604,-28.984351 18.256529,-42.329154c1.203899,-2.735657 2.515228,-3.719127 6.126978,-4.046933l0.113001,-1.316952zm-97.454823,14.876508l-15.639601,2.515228l0.327858,1.531758c2.628228,-0.220429 4.702597,-0.220429 5.143456,2.515228c0.655664,4.482168 -2.843034,11.050004 -4.482168,14.220844a72.72091,72.72091 0 0 1 -11.813045,-13.452179c4.154362,-2.843034 10.168287,-7.110448 9.077388,-14.220896c-0.876093,-5.471262 -5.906497,-7.986489 -11.050004,-7.110396c-7.325201,1.090847 -10.168287,7.873489 -9.297818,13.124321c0.548235,3.498698 1.859564,5.686119 4.15431,9.846105l-2.515176,2.079993c-4.374791,3.498698 -10.173963,9.518299 -8.970012,17.06393c1.531705,9.518299 9.297818,10.173911 13.779985,9.518299c8.529153,-1.424381 12.361333,-6.234355 14.87656,-9.184817c2.515176,1.859564 7.545631,5.578691 13.344751,4.589596c7.766112,-1.203952 9.620052,-9.625676 9.620052,-9.846105l-1.203952,-0.655664c-1.299976,2.407851 -2.509552,4.374791 -6.341731,4.923026c-5.358261,0.876093 -10.942628,-4.046933 -11.699992,-4.923026c3.606074,-6.890019 3.606074,-6.890019 5.465638,-12.02785l1.418705,-3.611698c1.418705,-3.933932 3.498698,-4.59522 6.121302,-5.358313l-0.316506,-1.537382zm-75.253114,48.343079c-5.79912,1.859564 -7.110448,0.876093 -8.862583,-3.826504l-12.796567,-35.105705l3.719127,-1.424329c7.545683,-2.729981 9.953482,-2.18737 14.113519,4.81565l1.746511,-0.548235l-4.702597,-11.592616l-38.824832,14.107791l3.826556,11.926098l1.639082,-0.655664c-1.198223,-7.986489 0.113053,-9.959106 7.771788,-12.796515l3.719127,-1.316952l12.468709,34.455665c1.859564,5.030455 2.294746,6.782642 -3.933932,9.29787l0.548235,1.311276l20.127445,-7.330877l-0.559587,-1.316952zm-37.406075,15.645225c-5.471314,2.730033 -6.895695,1.859564 -9.29787,-2.515228l-17.612165,-33.031284l3.498698,-1.859616c7.110448,-3.832128 9.625624,-3.611698 14.763455,2.730033l1.531758,-0.763041l-6.239979,-10.829575l-36.53571,19.466105l5.471314,11.157381l1.531758,-0.763041c-2.300422,-7.873489 -1.203899,-10.060858 5.906497,-13.780037l3.498698,-1.865188l17.171358,32.381348c2.628228,4.702597 3.176516,6.347355 -2.515228,9.733052l0.542611,1.203899l18.923493,-10.060858l-0.638688,-1.203952zm-20.460927,9.512623c-2.729981,1.752187 -4.046933,1.639134 -9.077388,-1.203899l-39.70655,-22.207438l-1.203899,0.876093l9.518247,37.841362c0.876093,3.504322 2.294798,9.077388 1.966992,11.592616c-0.220481,1.865188 -1.090899,2.735657 -1.966992,3.504322l0.876093,1.090899l11.592616,-8.642206l-0.876093,-1.203899c-1.198275,0.989094 -3.933932,3.063463 -5.793496,0.548235a6.002625,6.002625 0 0 1 -1.203899,-2.515176l-2.515228,-8.862635l15.311743,-11.592616l6.675265,3.83218c0.98347,0.548235 3.17084,1.859564 3.826504,2.843034c1.64481,2.18737 -0.220429,3.61175 -2.407799,5.250885l0.876041,1.203899l14.87656,-11.264758l-0.768717,-1.090899z" id="svg_3"/>
   <path stroke="null" d="m333.441898,269.68731c-2.18737,1.972616 -4.374791,2.294798 -6.890019,2.079993l-23.84652,-2.515228c2.193046,-3.176516 7.653059,-11.157381 0.655664,-18.0474c-7.986541,-7.986541 -17.612217,-0.548235 -22.201761,4.046985l-14.328273,14.328273l0.98347,0.989094c4.046985,-3.283892 5.250885,-3.504322 9.077388,0.327858l22.422191,22.422191c3.933932,3.83218 4.810026,5.143456 0.876093,9.625624l0.983522,0.989146l14.328273,-14.333897l-0.983522,-0.983522c-4.261738,3.939608 -5.793444,3.391321 -9.297818,0l-10.173911,-10.281288l2.729981,-2.950462l28.334363,3.61175l8.308723,-8.314347l-0.977846,-0.99477zm-91.768756,31.720008c3.826504,-3.719127 5.030455,-3.719127 9.077388,-0.440859l24.281754,20.455199c4.041309,3.391321 5.358261,4.48222 1.752187,9.410922l0.98347,0.98347l13.237426,-15.752654l-1.096523,-0.876093c-3.719127,4.154362 -5.358261,4.374791 -9.405246,0.983522l-10.281288,-8.534829c1.311276,-1.311276 2.18737,-2.294746 3.391269,-3.611698c4.923079,-5.906549 6.890019,-10.388716 6.675265,-14.763507c-0.113053,-1.644758 -0.327858,-6.126978 -4.708273,-9.738676c-7.217825,-6.013925 -15.967407,-1.531758 -22.529567,6.234303l-12.361333,14.763507l0.98347,0.887393zm580.91384,336.886721l-0.763041,1.424381c0.649988,0.429559 1.85394,1.644758 0.870417,3.391269c-0.870417,1.64481 -5.036079,3.83218 -7.217825,7.658735c-3.391269,5.686067 -3.17084,13.446503 4.148738,17.719542c6.239979,3.61175 11.383486,1.090899 18.1604,-2.735605c10.829575,-6.240031 13.565232,-6.013925 17.165682,-3.939608c3.402621,1.978292 5.584367,6.680889 2.63958,11.700044c-4.923079,8.642153 -15.102613,7.110396 -18.714364,6.567837l-0.870417,1.424329l14.548702,5.906549l0.870417,-1.424381c-1.090899,-0.553911 -1.757811,-1.853887 -0.98347,-3.17084c1.090847,-1.86524 5.036079,-3.719179 7.873489,-8.534829c5.256509,-9.083012 1.531705,-16.956501 -3.83218,-20.127393c-13.016997,-7.438254 -26.4635,13.016997 -35.976123,7.540007c-3.939556,-2.294798 -4.052609,-6.669537 -2.294798,-9.834805c3.928256,-6.680837 11.920474,-7.438254 17.82697,-5.584315l0.870469,-1.526081l-14.322649,-6.454784l0,-0.000052zm16.069159,45.726151l-1.192599,1.633458c4.148686,6.997395 3.707827,11.270434 -1.64481,18.601311c-6.460408,8.851335 -6.460408,8.851335 -8.862583,7.110448l-14.757831,-10.716522l6.776914,-9.083064c3.61175,-4.80435 5.143508,-5.132156 10.388716,-2.407799l0.98347,-1.413081l-13.779985,-9.959106l-0.98347,1.424329c3.719127,3.61175 4.702597,5.245208 0.870417,10.609146l-6.669589,9.071712l-13.124321,-9.518247c-1.978292,-1.531758 -1.531758,-2.18737 -0.553911,-3.498698l5.793444,-7.980865c4.81565,-6.567837 6.788266,-7.438254 12.807867,-4.493468l0.98347,-1.413081l-8.534777,-6.013925l-22.86305,31.493955l1.090847,0.774341c2.956086,-3.498698 4.380415,-4.702597 9.083064,-1.203899l26.350447,19.03087c4.493468,3.391321 4.052609,5.132156 1.531758,9.071764l1.203899,0.870417l23.196532,-32.047866l-8.093918,-9.942182l0,0.000052zm-55.668281,14.220844l-12.140903,12.129603l0.99477,0.99477c3.707827,-3.176516 5.686119,-4.273038 11.592616,1.746511l17.278735,17.290035l-0.113053,0.113053l-44.731329,-5.143508l-8.851335,8.851335l0.983522,0.99477c2.074317,-2.085669 3.17084,-2.62828 7.873489,-2.198722l22.86305,22.863102c5.573014,5.686067 5.245208,7.551307 1.644758,11.699992l0.98347,0.98347l12.129603,-12.129551l-0.98347,-0.983522c-3.928256,3.60045 -6.126978,3.498698 -11.479615,-1.757811l-20.234769,-20.234769l0.113053,-0.113053l51.191737,5.584367l0.870469,-0.88177l-27.232217,-27.232165c-6.126926,-6.126978 -4.589544,-7.980917 -1.757811,-11.592616l-0.99477,-0.983522z" id="svg_4"/>
   <path stroke="null" d="m758.378248,784.532853l17.386112,-13.124373l-0.763041,-1.090847c-4.482168,3.17084 -6.347407,3.61175 -9.738728,-0.98347l-19.573481,-25.920888c-3.61175,-4.702649 -2.407799,-6.240031 1.746511,-9.625676l-0.870417,-1.090899l-17.397412,13.124373l0.88177,1.090899c5.024779,-3.498698 6.336055,-3.391321 9.625624,0.98347l19.573533,26.028265c3.17084,4.159986 3.17084,5.573067 -1.63351,9.518247l0.763041,1.090899z" id="svg_5"/>
   <path stroke="null" d="m745.903915,761.669803l-15.633925,10.179587l0.763041,1.090847c4.369115,-2.407851 5.573067,-3.170892 8.964335,1.96694l6.46046,9.959158c1.424329,2.18737 -1.85394,6.347407 -6.126978,9.071764c-9.518247,6.239979 -20.455199,3.391269 -27.673075,-7.760488c-10.055182,-15.532172 -3.498698,-25.270848 2.294798,-29.097404c8.642206,-5.573014 15.752601,-1.526081 20.347874,1.86524l1.424329,-0.99477l-8.964335,-12.576138l-1.311328,0.870469c0.649988,1.865188 -1.090847,3.498698 -1.644758,3.83218c-1.966992,1.311276 -6.126978,1.090847 -12.253956,5.143456c-13.124321,8.421776 -14.429973,23.953948 -7.653059,34.235236c5.143508,8.093918 9.405246,10.496093 14.978313,11.920474c7.438254,1.96694 15.424795,-0.65004 21.546097,-4.589596c6.788266,-4.369115 12.587386,-13.237374 12.033474,-14.107843l-7.980865,-12.366957c-2.84871,-4.369115 -1.311328,-5.573014 1.203899,-7.551307l-0.774341,-1.090847z" id="svg_6"/>
   <path stroke="null" d="m698.877788,766.055894l-15.752601,7.110448l0.553911,1.203899c4.691297,-1.64481 6.776966,-1.978292 10.275664,5.686067l9.959106,22.422191l-0.113053,0l-40.03998,-20.777381l-11.479615,5.132156l0.553911,1.311328c2.724357,-1.203899 3.928308,-1.424381 8.201347,0.763041l13.124321,29.543939c3.278268,7.217825 2.294798,8.851283 -2.628228,11.479563l0.542611,1.203899l15.752601,-6.997395l-0.649988,-1.203899c-4.923079,1.96694 -6.997395,1.090899 -10.066534,-5.793496l-11.592616,-26.141318l0.113053,-0.113001l45.822176,23.62609l1.090899,-0.440859l-15.633925,-35.326135c-3.498698,-7.760436 -1.531758,-8.964335 2.503875,-11.372186l-0.536935,-1.316952zm-34.896524,54.68481l-1.966992,0.542611c-1.090847,7.992165 -3.939556,11.163057 -12.796515,13.678285c-10.496093,3.057787 -10.496093,2.944786 -11.383486,0.113001l-4.923026,-17.510412l10.829575,-2.944786c5.906497,-1.64481 7.217825,-0.983522 9.738676,4.369115l1.531758,-0.429559l-4.589596,-16.306513l-1.644758,0.440859c0.649988,5.245208 0.440859,7.110448 -5.906549,8.964335l-10.829575,3.069139l-4.482168,-15.645225c-0.649988,-2.407851 0.220429,-2.62828 1.633458,-3.057839l9.529599,-2.735657c7.873489,-2.294798 9.947806,-1.644758 12.796515,4.369167l1.85394,-0.553911l-3.170892,-10.055234l-37.411752,10.716522l0.440859,1.424329c4.482168,-0.98347 6.347407,-0.98347 7.873489,4.589596l8.975688,31.284774c1.633458,5.352637 0.113001,6.44916 -4.273091,8.093918l0.333482,1.311328l38.061792,-10.942628l-0.220429,-12.785215zm-59.059602,15.854354l-2.074369,0.220429c-2.294798,7.771736 -5.697367,10.400016 -14.769131,11.490863c-10.829575,1.413081 -10.829575,1.300028 -11.259134,-1.644758l-2.198722,-18.0474l11.270434,-1.311328c6.013925,-0.649988 7.217877,0.220429 8.851335,6.013925l1.644758,-0.220429l-2.074317,-16.945253l-1.64481,0.209129c-0.220429,5.256561 -0.649988,7.121748 -7.217825,7.992218l-11.151757,1.311276l-1.97824,-16.19346c-0.322182,-2.407851 0.553911,-2.515228 2.074369,-2.724357l9.846053,-1.203899c8.093918,-0.994822 10.066534,0 11.920474,6.228679l1.865188,-0.209129l-1.531705,-10.286964l-38.615703,4.702597l0.220429,1.424381c4.589596,-0.220429 6.347407,0 7.110448,5.686067l3.939556,32.381348c0.65004,5.573014 -0.870417,6.460408 -5.476938,7.330877l0.113053,1.311276l39.265691,-4.81565l1.870864,-12.700439z" id="svg_7"/>
   <path stroke="null" d="m542.029881,805.751144l-20.67568,0.661288l0,1.424329c4.702597,0.209129 6.449108,0.542611 6.669537,6.336107l1.090899,32.601778c0.220429,5.573014 -1.413029,6.347407 -6.115678,6.776966l0,1.424329l39.48612,-1.424329l3.057839,-12.903944l-1.865188,0.113053c-3.82088,9.738676 -8.523529,10.168287 -19.460481,10.609146c-6.126978,0.220429 -7.438254,0.220429 -7.551307,-2.735657l-1.203899,-34.664795c-0.220429,-5.804796 1.644758,-6.347407 6.567837,-6.901319l0,-1.316952z" id="svg_8"/>
   <path stroke="null" d="m484.275932,802.472876c5.906497,0.98347 6.78259,2.074317 6.126926,7.438254l-3.939556,32.268296c-0.655664,5.132156 -1.644758,6.336055 -7.653059,5.686067l-0.214753,1.424381l24.276078,2.944786c16.08046,1.97824 18.816116,-7.873489 19.138298,-10.609146c0.99477,-7.653059 -4.48222,-11.920474 -10.609146,-14.000467l0,-0.113053c3.402621,-0.440859 9.959106,-1.203899 10.942628,-9.297818c1.424329,-11.270434 -11.151757,-13.887414 -17.499164,-14.661755l-20.455251,-2.503928l-0.113001,1.424381zm-7.223501,45.172188c-3.170892,-0.870417 -3.933932,-1.96694 -5.030455,-7.653059l-8.421724,-44.742629l-1.418705,-0.333482l-22.964802,31.725684c-2.079993,2.735657 -5.471314,7.438254 -7.545631,8.851335c-1.639134,1.090847 -2.843086,0.99477 -4.046985,0.774341l-0.220429,1.311276l14.113467,3.278268l0.327858,-1.311328c-1.531758,-0.33343 -4.917402,-1.090847 -4.154362,-4.159986a5.313061,5.313061 0 0 1 1.203899,-2.503928l5.143508,-7.658683l18.703064,4.369115l1.424329,7.438306c0.220429,1.203899 0.548287,3.719127 0.327806,4.923026c-0.661288,2.62828 -3.063463,2.074369 -5.686067,1.531758l-0.333482,1.299976l18.267829,4.273038l0.310882,-1.413029zm-92.752226,-26.683929l19.466105,7.426954c20.896057,8.105218 31.505203,-3.278268 35.003901,-12.355656c5.906549,-15.311743 -2.18737,-27.023035 -18.595635,-33.359142l-18.48831,-6.997395l-0.440859,1.311276c5.030455,2.407851 5.578691,3.391321 3.61175,8.421776l-11.705668,30.403056c-1.752187,4.81565 -3.063463,5.573067 -8.308671,3.83218l-0.542611,1.316952zm15.204366,-47.037427l-15.091313,-8.421724l-0.655664,1.203899c4.154362,2.735657 5.686067,4.273038 1.639134,11.699992l-11.920474,21.325668l-0.113053,0l-7.432578,-44.5109l-10.937004,-6.013873l-0.768665,1.203899c2.622604,1.424329 3.504322,2.294798 4.261738,6.997395l-15.639601,28.215687c-3.832128,6.901267 -5.686067,7.110396 -10.716522,4.81565l-0.768665,1.203899l15.096937,8.314347l0.655664,-1.203899c-4.482168,-2.724357 -5.143456,-4.923079 -1.418705,-11.592616l13.89309,-24.937418l0.113001,0l8.749582,50.858307l1.090899,0.553911l18.703064,-33.692625c4.15431,-7.551307 6.347355,-6.669589 10.60347,-4.81565l0.655664,-1.203952zm-64.316162,4.374791l-1.644758,-1.203899c-6.997395,3.939556 -11.26481,3.509998 -18.595687,-1.966992c-8.749582,-6.567785 -8.642153,-6.669537 -6.890019,-9.071712l10.942628,-14.548702l8.970012,6.889967c4.81565,3.83218 5.030455,5.256561 2.294798,10.496145l1.311276,0.98347l10.168287,-13.553932l-1.311328,-0.98347c-3.719127,3.611698 -5.358261,4.589544 -10.60347,0.649988l-9.077388,-6.776966l9.840429,-13.016945c1.531758,-1.978292 2.193046,-1.424381 3.396945,-0.553911l7.980865,6.013873c6.454836,4.815702 7.330877,6.890019 4.267414,12.796567l1.424329,1.102147l6.121354,-8.534777l-31.07002,-23.416961l-0.870469,1.090847c3.498698,3.176516 4.589596,4.49352 1.090899,9.196117l-19.579157,25.920888c-3.391321,4.589544 -5.137832,4.052609 -9.077388,1.424329l-0.763041,1.203899l31.612632,23.733519l10.060858,-7.873489z" id="svg_9"/>
   <path stroke="null" d="m299.534468,700.643209c3.391321,4.148738 3.283944,5.352637 -0.440859,8.964388l-22.857373,22.100009c-3.719179,3.707827 -5.036131,4.81565 -9.518299,0.763041l-1.096523,0.870417l14.333949,14.769131l0.98347,-0.870417c-3.83218,-4.273038 -3.939556,-5.917797 -0.113053,-9.625676l9.625676,-9.196065c1.090847,1.311328 2.074317,2.407851 3.278268,3.61175c5.358261,5.584367 9.518247,7.992165 13.893038,8.201295c1.746511,0.113053 6.126978,0.333482 10.28134,-3.61175c6.675213,-6.556537 3.17084,-15.741301 -3.933932,-23.072179l-13.344803,-13.887414l-1.090847,0.983522l-0.000052,-0.000052zm-25.81346,23.626142l-1.311328,-1.531758c-7.766112,2.085669 -11.813045,0.661288 -17.606541,-6.46046c-6.78259,-8.523477 -6.78259,-8.523477 -4.487844,-10.388664l14.220896,-11.479615l7.003071,8.851335c3.713451,4.81565 3.606074,6.239979 -0.440859,10.620446l1.096523,1.299976l13.23175,-10.609094l-1.090899,-1.311328c-4.482168,2.62828 -6.341731,3.176516 -10.496093,-1.96694l-7.110448,-8.755258l12.689139,-10.275664c1.966992,-1.531705 2.515228,-0.870417 3.504374,0.333482l6.234355,7.760436c5.137832,6.240031 5.358261,8.534829 0.98347,13.457855l1.203899,1.424329l7.986541,-6.776914l-24.502184,-30.193979l-1.090899,0.870469c2.622604,3.83218 3.391321,5.476938 -1.096523,9.071712l-25.265224,20.455251c-4.482168,3.61175 -6.013925,2.735657 -9.184765,-0.763041l-1.090899,0.870417l24.937418,30.742214l11.683068,-5.245208z" id="svg_10"/>
   <path stroke="null" d="m211.699645,657.324961l10.722198,17.82697c11.485187,19.251299 26.791306,16.843448 35.218706,11.813045c14.000467,-8.534777 14.876508,-22.64262 5.793496,-37.733934l-10.173963,-16.956553l-1.203899,0.763041c2.515228,5.036079 2.300474,6.126978 -2.294746,8.862635l-27.893505,16.8435c-4.374791,2.628228 -5.906549,2.515176 -8.970012,-2.187422l-1.198275,0.768717zm52.175259,-84.658308a260.339307,260.339307 0 0 1 -9.953482,-71.206181c0,-1.639082 0.113053,-3.17084 0.113053,-4.809974c3.611698,0 7.217825,-0.113053 10.281288,-0.333482l0,5.143456c0,22.642672 2.956086,44.623952 8.642206,65.627438a14.927384,14.927384 0 0 0 -9.083064,5.578743zm526.884693,62.569599c-49.224797,83.460033 -142.960545,140.004407 -250.041044,140.004407c-100.303533,0 -189.01445,-49.654355 -240.200563,-124.579611c4.482168,0.209129 8.964335,0.429559 13.016945,0.542611c49.987837,68.589149 133.221817,113.761336 227.183618,113.761336c100.405286,0 188.686644,-51.632648 237.1258,-128.411791a343.188928,343.188928 0 0 1 12.915244,-1.316952zm35.766993,-155.429254c0.649988,7.110448 0.98347,14.441325 0.98347,21.65915c0,19.364352 -2.18737,38.282221 -6.240031,56.442621a68.85483,68.85483 0 0 0 -9.738676,-3.719127a247.20931,247.20931 0 0 0 5.686067,-52.723494c0,-5.358261 -0.209129,-10.501769 -0.542611,-15.752601a115.360946,115.360946 0 0 1 9.851781,-5.906549zm-285.808037,-252.007984c97.013964,0 183.102329,46.376139 235.051483,117.25441c-2.62828,2.515228 -5.024779,5.471314 -6.997395,7.986541c-49.874837,-69.346565 -133.555299,-114.953988 -228.054088,-114.953988c-88.16263,0 -167.021818,39.700874 -217.665371,101.394432c-4.046933,0 -8.534777,0.107377 -13.237374,0.107377c52.282636,-67.718731 136.392708,-111.788772 230.902745,-111.788772z" id="svg_11"/>
   <path stroke="null" d="m936.885357,364.626957a392.854584,392.854584 0 0 1 24.496508,136.833567c0,224.555338 -189.00315,407.663291 -420.668988,407.663291s-420.674612,-183.107953 -420.674612,-407.663291c0,-13.344803 0.655664,-26.689605 2.079993,-39.813979a147.29576,147.29576 0 0 0 10.501769,-1.531705a371.054157,371.054157 0 0 0 -2.294798,41.345684c0,218.869271 184.413606,397.376328 410.393324,397.376328c225.974043,0 410.387648,-178.507057 410.387648,-397.376328a382.403743,382.403743 0 0 0 -22.64262,-129.830548a75.60352,75.60352 0 0 1 8.421776,-7.003071l0,0.000052zm-396.166804,-270.8241c161.437503,0 302.10325,88.925722 372.659391,218.869271c-3.61175,0.98347 -6.997395,2.18737 -9.846105,3.498698c-69.018759,-125.896615 -205.852326,-211.979304 -362.80761,-211.979304c-167.683158,0 -312.49759,98.22354 -375.943283,238.448428c-3.933932,-0.113053 -7.766112,-0.220429 -11.157433,-0.440859c64.203109,-145.797902 213.725815,-248.396234 387.09504,-248.396234z" id="svg_12"/>
   <path stroke="null" d="m964.123198,332.471662c-0.220429,-0.435183 -0.66134,-0.763041 -1.203952,-0.655612c-29.860445,2.843034 -63.33264,25.044795 -74.925256,33.466519c17.499164,-27.673075 66.723961,-50.202643 67.260948,-50.423072c0.553911,-0.220429 0.774341,-0.763041 0.661288,-1.311328a1.186975,1.186975 0 0 0 -1.090899,-0.870417c-50.858255,0.435235 -86.297442,33.359142 -97.025265,44.844382c6.240031,-15.967407 26.039565,-39.050886 26.254371,-39.378744a0.989146,0.989146 0 0 0 0.113053,-1.203899c-0.220429,-0.435235 -0.649988,-0.655664 -1.090899,-0.548235c-28.549117,4.81565 -51.299166,41.453061 -58.630043,54.690434c2.735657,-19.686534 19.03087,-45.064811 19.251351,-45.279564c0.220429,-0.440859 0.220429,-0.876093 0,-1.203952a1.203899,1.203899 0 0 0 -1.090899,-0.548235c-21.546097,2.84871 -39.808302,41.679166 -47.026127,59.393084c2.83741,-15.86003 9.834805,-43.860912 9.947858,-44.296094a1.051323,1.051323 0 0 0 -0.429559,-1.096523a0.99477,0.99477 0 0 0 -1.203952,-0.107429c-15.102613,8.529153 -26.254371,34.014807 -29.753068,42.871765c-0.99477,-5.686067 0.983522,-14.220844 0.983522,-14.322597a1.243476,1.243476 0 0 0 -0.983522,-1.424381c-17.069554,-1.424329 -23.84652,13.124373 -25.598706,17.934399c-6.336055,-4.48222 -11.699992,-5.906549 -16.074783,-4.154362c-5.363885,2.18737 -7.438254,8.529153 -8.105218,11.044328c-15.091313,-3.283892 -24.716989,-2.843034 -28.328687,1.531758a6.73739,6.73739 0 0 0 -1.413081,5.900873c-16.086084,-0.876093 -25.061719,1.090899 -27.243465,5.906549c-1.090899,2.515176 0,5.036079 1.090847,6.78259c-13.226074,-1.531758 -21.218291,-0.107377 -23.84652,4.267414c-1.63351,2.843034 -0.649988,6.239979 0.333482,8.314347c-10.388716,-1.639134 -17.165682,-0.655664 -19.68091,2.95041c-1.757811,2.407851 -1.311276,5.143508 -0.774341,6.890019c-9.625676,-0.435235 -15.311743,1.090847 -17.278683,4.708273c-1.203952,2.294746 -0.553911,4.809974 0.220429,6.454784c-3.391321,-0.220429 -6.347407,0.327806 -8.534777,1.96694a9.761328,9.761328 0 0 0 -3.61175,5.030455c-4.923079,-4.923026 -22.86305,-23.298284 -56.001815,-59.280031c-33.907378,-36.643087 -58.73742,-39.921355 -80.611323,-42.877441c-3.939556,-0.548235 -7.766112,-0.98347 -11.377862,-1.752187c-21.546097,-3.939556 -196.334027,-0.876041 -290.182776,0.655664l-33.692625,0.548287c-74.812255,0.98347 -111.45529,-33.687001 -111.890525,-34.014807a1.051323,1.051323 0 0 0 -1.531758,0a1.158699,1.158699 0 0 0 -0.33343,0.763041a0.98347,0.98347 0 0 0 0,1.090847c24.174326,46.924374 89.366581,59.393084 104.898753,61.800935c-21.766527,9.405194 -112.003577,11.37781 -112.879671,11.37781c-0.548235,0 -0.876093,0.327858 -1.096523,0.870469a1.090899,1.090899 0 0 0 0.440911,1.203899c34.127807,24.389131 113.535283,15.973031 141.100929,12.140851c-29.860445,9.518299 -96.471353,13.452179 -97.24007,13.452179c-0.548235,0 -0.98347,0.440911 -0.98347,0.876093c-0.113053,0.548287 0.113053,1.090899 0.548287,1.311328c37.078269,17.612165 96.036118,13.344803 112.879619,11.705668c-17.176982,8.636529 -69.894853,14.000415 -70.437464,14.107843c-0.440859,0 -0.768665,0.327806 -0.989094,0.768665a1.232176,1.232176 0 0 0 0.333482,1.203899c15.091313,13.23175 92.203939,6.341783 112.223955,4.374791c-15.311743,6.997395 -61.032218,9.29787 -61.574829,9.29787c-0.661288,0 -1.209523,0.763041 -0.989094,1.418653c1.639134,6.240031 11.807369,10.829575 23.62609,10.394392c9.405194,-0.327858 51.513919,0.655612 60.70436,0.876093c-1.418653,3.063463 -1.418653,5.793444 0,8.088242c7.438306,11.490863 52.610494,7.110448 64.864398,5.691743c-4.374791,5.030455 -5.686067,8.749582 -4.154362,11.705668c3.606126,6.669589 22.201761,4.261738 28.656545,3.278268c-2.079993,5.465638 -1.859564,9.851729 0.876093,13.016945c5.137832,6.126978 16.736124,5.465638 21.325668,4.261738c5.799172,-1.633458 14.441325,-1.424329 17.82697,-1.203899c-1.639134,5.143456 -1.090847,9.303494 1.531758,12.366957c7.653059,8.534777 30.07525,5.036079 37.84131,3.498698c-3.278216,5.686119 -2.18737,9.625676 -0.435183,11.920474c3.611698,5.036079 13.016945,6.460408 17.606541,5.036079c5.036079,-1.64481 16.080407,-3.176516 20.675628,-3.719127c-1.96694,4.589544 -1.96694,8.201295 0.113053,10.716522c5.030455,6.556537 21.110863,3.939556 26.361747,2.944786c-1.090847,5.363885 -1.203899,7.992165 0.113053,9.625624c1.531758,1.978292 4.482168,1.86524 9.953482,1.757863l7.217825,0c-3.391269,0.98347 -10.281288,1.96694 -16.515642,1.311276c-7.330877,-0.661288 -8.970012,1.090899 -10.060858,3.278268c-0.548287,0.870469 -0.768717,1.311328 -2.843086,1.090899l-1.096523,-0.113053c-6.562161,-0.763041 -20.127393,-2.294798 -33.138713,-0.649988c-5.686067,0.649988 -7.545631,1.424329 -7.438254,2.944786c0.220429,3.069139 12.796515,3.278268 15.311743,3.278268c2.402175,0 3.170892,0.553911 3.278268,0.774341c0.113053,0.113053 0,0.429559 -0.548235,0.98347c-1.966992,1.96694 -7.653059,3.719127 -13.672661,1.203899c-9.733052,-4.052609 -13.344751,-2.074317 -14.543026,-0.98347c-2.62828,0 -5.578691,0.220429 -6.019601,2.074369c-0.655612,2.294746 3.170892,5.363885 6.997395,7.658683c-5.900873,0.322182 -9.512571,1.311328 -11.157381,3.057839c-9.840429,-1.64481 -24.722613,0.113053 -35.552188,1.424329c-5.137832,0.542611 -9.512623,1.090899 -11.372186,0.98347c-2.843034,-0.113001 -9.953482,0.763041 -18.154776,1.85394c-8.970012,1.215199 -19.03087,2.515228 -23.411337,2.419099c-6.234355,-0.33343 -14.763507,0.322182 -22.309138,0.763093c0,0 -6.562161,0.429559 -6.895643,0.429559c-0.870469,-1.746563 -2.402175,-6.013925 -1.198275,-8.093918c0.548287,-0.870469 1.418705,-1.311328 2.843034,-1.311328c3.719127,-0.322182 5.686119,-1.853887 7.653059,-3.498698c1.752187,-1.413029 3.719127,-2.944786 7.43263,-3.61175c0.220429,0 0.548235,0 0.768665,-0.113053c1.090899,-0.101701 2.187422,-0.220429 3.61175,-0.220429c4.046985,0.118729 11.920474,-0.101701 21.986956,-0.32213c21.65915,-0.553911 54.362681,-1.424381 75.145737,0.32213c0.548235,0.118729 1.090847,-0.429559 1.203899,-0.98347c0,-0.649988 -0.440859,-1.192599 -1.090847,-1.192599c-20.890485,-1.86524 -53.707016,-0.99477 -75.366167,-0.440859c-9.953482,0.333482 -17.82697,0.542611 -21.873903,0.440859c-1.418705,0 -2.730033,0 -3.939608,0.209129c-1.644758,-1.203899 -7.325201,-5.686119 -5.030403,-10.275664c2.515228,-4.81565 13.339127,-2.074369 19.906963,-0.440859c0.98347,0.220429 1.859564,0.440859 2.735657,0.661288c1.090847,0.220429 2.729981,0.649988 4.702597,1.203899c9.077388,2.407851 24.281754,6.556537 31.833061,4.815702c0.655664,-0.113053 0.98347,-0.774393 0.870417,-1.311328c-0.220429,-0.661288 -0.763041,-0.98347 -1.311276,-0.881717c-6.997395,1.644758 -21.986956,-2.396551 -30.29568,-4.589596c-0.113053,-0.322182 -1.418705,-4.482168 0.548235,-6.556537c1.531758,-1.531705 4.810026,-1.644758 9.405246,-0.220429c15.639601,4.589596 17.719594,4.702597 22.749997,4.148686c4.702649,-0.32213 16.408266,2.735657 19.138298,5.47699a1.186975,1.186975 0 0 0 1.644758,0a1.316952,1.316952 0 0 0 0,-1.531758c-3.504322,-3.498698 -16.19346,-6.556537 -21.003486,-6.239979c-3.504322,0.440859 -5.250885,0.553911 -13.344803,-1.63351c0,-1.203899 0.435235,-4.81565 3.391321,-6.567837c3.606074,-2.18737 9.840429,-0.870417 18.267829,3.61175a0.98347,0.98347 0 0 0 1.090899,0c0.327806,-0.220429 0.548235,-0.542611 0.548235,-0.870417c0,-0.220429 0.107429,-3.278268 3.063515,-5.573067c3.498698,-2.735657 9.625624,-3.278268 17.934347,-1.424329c4.923026,1.090847 9.077388,2.18737 12.796515,3.278268c0.655664,1.96694 0,2.628228 -0.220429,2.848658c-2.294798,2.294798 -11.807421,0.220481 17.391736,-1.644758c-0.542611,-0.220429 -1.203899,0.113053 -1.418653,0.763041c-0.107429,0.553911 0.113001,1.203899 0.768665,1.424329c1.531758,0.440911 15.639601,5.143508 19.579157,0.983522c0.98347,-0.870469 1.311276,-2.074369 1.090847,-3.60045c11.26481,3.498698 18.375258,6.556537 32.596102,6.556537a1.090899,1.090899 0 1 0 0,-2.181746c-19.251299,0 -25.485654,-5.804796 -47.359557,-10.609146c-9.077388,-1.97824 -15.752654,-1.311328 -19.799587,1.96694c-2.294798,1.746563 -3.278268,3.939608 -3.61175,5.46569c-8.529153,-4.369167 -14.983937,-5.46569 -19.138246,-2.83741c-3.391321,2.074369 -4.267414,5.906549 -4.48222,7.873489c-1.752135,-0.542611 -3.83218,-1.090899 -6.347355,-1.85394c-5.471314,-1.644758 -9.405246,-1.311276 -11.485239,0.870469c-2.18737,2.18737 -1.859564,5.573014 -1.531758,7.438254c-2.079993,-0.553911 -3.61175,-0.98347 -5.465638,-1.424381c-7.658683,-1.853887 -19.143922,-4.81565 -22.427867,1.531758c-2.515176,5.132208 1.424381,9.625676 4.154362,11.920474c-3.063463,0.870417 -4.809974,2.294746 -6.454784,3.611698c-1.859564,1.531758 -3.391321,2.724357 -6.454784,2.944786c-2.079993,0.220429 -3.61175,0.983522 -4.482168,2.515228c-1.752187,2.956086 -0.113053,7.551307 0.768665,9.625676c-2.956086,0.763041 -5.143456,2.62828 -6.013873,5.256509c-1.096523,3.498698 0.220429,7.540007 3.498698,10.388716c1.090847,0.870417 3.063463,1.424329 5.578691,1.746511c-4.046985,3.719127 -4.046985,7.110448 -3.170892,9.416546c1.64481,4.041309 6.890019,6.449108 9.077388,6.228679c0.440911,0 1.424381,-0.220429 2.950462,-0.542611c-0.435235,1.85394 -0.655664,3.498698 0.440859,4.923026c1.418705,1.746563 4.810026,2.515228 12.02785,2.515228c5.137832,0 9.733052,-0.661288 13.666933,-1.424329c0.113053,0.113053 0.220481,0.333482 0.440911,0.429559c12.033474,6.013925 35.439135,-0.101753 50.863931,-4.148686c5.250885,-1.424381 9.733052,-2.62828 11.485239,-2.62828c5.793444,0 19.579105,-5.793496 26.141318,-8.534777c0.98347,-0.429559 1.752135,-0.763041 2.294746,-0.98347c2.843086,-1.090899 14.441325,-1.424381 20.127445,-1.424381c3.283892,0 5.691743,-1.746511 6.78259,-2.628228c1.418705,0.33343 2.95041,0.440859 4.589544,0.33343c2.622656,-0.113001 5.250885,-0.113001 8.201347,-0.113001c5.143456,0.113001 10.609146,0.113001 14.876508,-1.090899c1.859564,-0.649988 3.063463,-0.440859 3.283944,0.113053c0.327806,0.870417 -0.983522,3.278268 -4.923079,5.036079c-3.391321,1.424381 -5.143456,3.170892 -4.923026,5.143508c0.220429,2.074317 2.735657,3.707827 6.78259,4.482168c0.113053,0 0.220429,0.113053 0.327858,0.113053c-0.327858,0.209129 -0.763093,0.542611 -1.096523,0.649988c-1.639134,1.203899 -3.391321,2.407799 -3.719179,4.159986c0,0.322182 0,0.649988 0.107429,1.090899l-8.529153,0c-0.548235,-1.424381 -1.311328,-2.515228 -2.402175,-3.069139c-1.096523,-0.542611 -2.407851,-0.542611 -3.83218,0.113053c-0.661288,0.33343 -1.639134,-0.429611 -3.063463,-1.63351c-0.655664,-0.553911 -1.418705,-1.203899 -2.187422,-1.757811c-2.074317,-1.311328 -2.294746,-2.187422 -2.294746,-2.187422l0,0.113053c0,-0.661288 -0.440859,-1.203899 -1.090899,-1.203899c-0.655664,0 -1.096523,0.542611 -1.096523,1.203899c0,0.333482 0.107429,2.074369 3.283944,3.928256l1.96694,1.64481c1.644758,1.311276 3.391321,2.84871 5.358261,1.853887c0.768717,-0.209129 1.531758,-0.32213 1.972616,0c0.655664,0.333482 1.198275,1.102199 1.531758,2.419151a1.186975,1.186975 0 0 0 1.090847,0.870417l10.609146,0c0.763041,1.311328 1.531758,2.724357 2.18737,3.928256l-11.264758,0a1.237852,1.237852 0 0 0 -0.876093,0.333482c-6.126978,7.110448 -13.124373,6.680889 -19.251299,6.240031a31.963038,31.963038 0 0 0 -3.176568,-0.220429c-6.449108,-0.220429 -10.496093,-3.057839 -11.044328,-5.036131c-0.548287,-3.057787 -6.013925,-6.228679 -6.669589,-6.556485c-0.548235,-0.220429 -1.203899,-0.113053 -1.531705,0.440859c-0.327858,0.542611 -0.113053,1.299976 0.435183,1.526081c2.187422,1.203899 5.358261,3.61175 5.578691,5.143456c0.327858,1.090899 1.090899,2.187422 2.187422,3.170892c-3.063463,0.440859 -5.686119,1.86524 -5.906549,1.97824c-0.548235,0.322182 -0.655612,0.983522 -0.435183,1.526134c0.327806,0.553911 0.98347,0.661288 1.531705,0.440859c0.113053,-0.113053 4.708273,-2.515228 8.314347,-1.86524c0.113053,0.113053 0.220429,0.113053 0.333482,0c2.074369,0.88177 4.482168,1.424381 7.110448,1.424381c0.98347,0 2.074369,0.113001 3.176516,0.220429c6.121302,0.440859 13.887414,0.98347 20.670004,-6.567837l12.140903,0c1.644758,2.735657 3.61175,5.143456 6.239979,5.917797c1.752187,0.429559 3.606126,0.209129 5.46569,-0.881717c3.504322,-2.074369 5.250885,-1.090899 7.658683,0.333482c2.074369,1.203899 4.482168,2.515228 8.201295,1.311276c4.923079,-1.644758 11.920474,0.333482 16.187836,1.531758c1.972616,0.542611 3.283944,0.870417 4.160038,0.870417c6.121302,0 26.802606,-0.33343 36.196552,-5.573014c7.992165,-4.493468 19.364352,-2.84871 25.378277,-1.978292c1.311276,0.113053 2.407799,0.333482 3.176516,0.333482l1.746511,0.220429c6.013925,0.763093 22.100009,2.735657 41.67349,2.735657c21.772203,0 70.883947,-7.771736 83.900943,-11.383486c13.016945,-3.498698 64.638292,-11.699992 65.079151,-11.813045c0.113053,0 0.220429,0 0.333482,-0.113053c1.526081,0 3.278268,-0.113001 5.465638,-0.220429c15.311795,-0.98347 26.14137,-2.294746 34.896576,-3.278268c8.201295,-1.090847 14.107843,-1.746511 19.03087,-1.531705c3.170892,0.220429 5.245208,0.553911 6.776966,0.774341c3.719127,0.649988 4.589544,0.649988 8.201295,-2.956086c0.113053,-0.113053 0.113053,-0.322182 0.220429,-0.429559c2.407851,0.429559 4.81565,0.649988 6.890019,0.209129c4.052609,-1.090899 17.940023,5.697367 26.361747,10.507393c0.440859,0.209129 0.98347,0.209129 1.311328,-0.113053a1.153023,1.153023 0 0 0 0.220429,-1.311328c-0.113053,-0.33343 -4.052609,-8.642153 -15.102613,-14.989561c1.424329,0.113053 2.956086,0.113053 4.380415,0.113053c6.336107,-0.322182 16.402642,4.273038 19.143922,10.179587c1.311328,2.944786 0.65004,5.906497 -1.97824,8.630853l0,0.113053a1.073923,1.073923 0 0 0 0,1.531758a1.186975,1.186975 0 0 0 1.644758,0l0,-0.113053c0.65004,-0.649988 15.424795,-17.069606 14.661755,-25.050471c-0.774341,-8.201295 -2.735657,-11.151757 -21.116539,-21.438721c-0.870417,-1.311276 -5.245208,-7.653007 -10.818223,-8.523477l-0.113053,0a7.212201,7.212201 0 0 0 -0.66134,-2.306098c-1.633458,-3.278216 -5.906497,-4.589544 -10.055182,-5.906497c-3.719127,-1.203899 -7.658735,-2.407851 -8.421776,-4.81565c-1.531705,-4.589596 -5.363885,-5.906549 -9.083012,-7.110448c-2.515228,-0.763041 -4.815702,-1.633458 -6.669589,-3.391321c-2.294798,-2.294746 -4.369115,-2.628228 -6.890019,-3.057839c-3.176516,-0.440859 -7.217825,-1.090847 -14.107843,-6.013873c-11.490863,-8.201347 -38.83608,-15.102613 -44.629576,-16.623071c5.906549,-25.050471 71.533987,-63.660498 105.876599,-80.831804c14.548702,-7.110448 23.196532,-17.82697 27.899129,-34.676095c5.573067,-19.138298 23.29266,-38.50265 36.089175,-51.299166c13.565232,-13.565232 44.855682,-36.643087 45.172188,-36.85784c0.423935,-0.333482 0.644364,-0.768717 0.423935,-1.316952l-34.783523,0l0.000052,0z" id="svg_13"/>
   <path stroke="null" d="m255.340127,612.152722c0.768665,-2.515176 3.283892,-4.052609 6.675213,-4.261738l6.454784,-0.333482c7.438254,-0.553911 15.973031,-1.090847 22.094385,-0.870417c4.59522,0.101753 14.333897,-1.102147 23.739143,-2.407799c7.873489,-0.983522 15.19869,-1.978292 17.82697,-1.86524c2.074317,0.113053 6.341731,-0.333482 11.699992,-0.98347c10.496093,-1.203952 24.82999,-2.84871 34.342613,-1.531758c-0.113001,2.956086 3.83218,6.013925 6.240031,7.551307a10.083458,10.083458 0 0 0 -1.096523,0.98347c-1.311328,0.113053 -14.763507,0.774341 -19.466105,2.074369c-3.719127,1.102147 -11.050004,1.102147 -18.703064,0.99477l-4.708273,0c-5.900873,0 -11.920422,0.98347 -18.816064,2.074369a319.461085,319.461085 0 0 1 -13.559608,1.853887c-3.278268,0.440859 -7.432578,1.203952 -12.248228,2.074369c-13.452231,2.306098 -33.687001,5.804796 -37.73961,2.526528c-2.515228,-2.193046 -3.606074,-5.250885 -2.735657,-7.879165z" fill="#fff" id="svg_14"/>
   <path stroke="null" d="m408.581959,625.056665c-2.843034,0 -17.171306,0.113053 -20.997862,1.644758a69.465242,69.465242 0 0 0 -2.300422,0.983522c-5.906549,2.515176 -19.901339,8.421724 -25.265224,8.421724c-1.972616,0 -6.234355,1.090899 -12.033474,2.62828c-13.452231,3.498698 -35.55224,9.297818 -47.359609,5.132156c4.923026,-1.203899 8.743906,-2.616928 11.151757,-3.17084c1.752135,-0.333482 4.046933,-1.311328 6.675213,-2.407851c5.137832,-2.18737 11.592616,-4.923026 17.719542,-4.923026c9.733052,0 15.526548,0 19.251351,-2.294798c3.283892,-1.85394 9.846105,-1.85394 9.953482,-1.85394c0.548235,0 1.090847,-0.553911 1.090847,-1.090847a1.090899,1.090899 0 0 0 -1.090847,-1.090899c-0.327858,0 -7.223501,0 -11.050004,2.187422c-3.170892,1.853887 -8.856959,1.853887 -18.154828,1.853887c-6.562161,0 -13.237374,2.84871 -18.595635,5.143508c-2.515228,1.090847 -4.702597,1.96694 -6.234355,2.294798c-1.198275,0.220429 -2.735657,0.763041 -4.482168,1.203899c-5.250885,1.644758 -13.344803,4.052609 -23.298284,4.052609c-6.013925,0 -9.41087,-0.553911 -10.28134,-1.64481c-0.553911,-0.553911 -0.33343,-1.644758 0.107429,-3.391269l0.107377,-0.553911c24.066949,-4.589596 37.954363,-7.330877 37.954363,-7.330877c1.418705,-0.113053 3.826556,-0.763041 6.890019,-1.413081c6.454784,-1.531705 15.19869,-3.509998 21.218291,-3.62305c8.534777,-0.32213 21.546097,-2.407799 25.59303,-4.482168c2.843034,-1.424329 11.157433,-1.526081 14.000467,-1.424329c0.661288,0 1.198275,-0.429559 1.198275,-1.079547a1.096523,1.096523 0 0 0 -1.090899,-1.102199c-0.440859,0 -11.157381,-0.333482 -15.091313,1.64481c-3.391321,1.746511 -15.639549,3.832128 -24.60956,4.148686c-6.234355,0.118677 -15.198742,2.19867 -21.766579,3.719127c-2.843034,0.661288 -5.363885,1.203899 -6.675213,1.424329c-0.113053,0 -5.250885,1.090899 -5.250885,1.090899c-10.609094,2.074317 -35.659565,6.889967 -38.06174,7.217825c-1.090899,0.113053 -5.358261,-1.746511 -6.675213,-4.923079c-1.203952,-3.278216 1.644758,-6.449108 4.482168,-8.410424c7.330877,-0.118677 18.0474,-1.757811 30.521733,-3.939556c4.702649,-0.870417 8.964388,-1.64481 12.135227,-1.97824c5.030455,-0.65004 9.410922,-1.311328 13.672661,-1.966992c6.889967,-1.090847 12.796515,-1.96694 18.482582,-1.96694l4.708273,0c7.873489,0 15.311743,0.113053 19.358728,-1.090899c3.719127,-1.090847 13.779985,-1.757811 17.612165,-1.97824a4.182638,4.182638 0 0 0 -0.113053,1.97824c0.983522,4.369167 7.545683,8.093918 15.091313,8.3144c6.895695,0.32213 11.270486,1.96694 15.317419,3.057787a7.777412,7.777412 0 0 1 -3.815204,0.989146z" fill="#fff" id="svg_15"/>
   <path stroke="null" d="m403.331075,636.869711s2.407851,0.88177 2.407851,2.407851c0,1.757811 0.98347,4.589544 3.176516,6.567837c1.859564,1.633458 4.261738,2.407799 6.997395,2.074317c0.655664,-0.113053 1.090847,-0.661288 0.98347,-1.203899c0,-0.649988 -0.548287,-1.090899 -1.203899,-0.98347c-2.080045,0.220429 -3.933932,-0.333482 -5.250885,-1.64481c-1.752187,-1.526081 -2.407851,-3.83218 -2.407851,-4.81565c0,-3.17084 -3.939556,-4.482168 -4.046933,-4.482168a1.090899,1.090899 0 0 0 -1.418705,0.649988c-0.220429,0.666964 0.107377,1.209576 0.763041,1.430005zm-4.267414,9.088688c0,-2.18737 -2.843034,-5.143456 -3.391269,-5.804744a1.209576,1.209576 0 0 0 -1.64481,0a1.198275,1.198275 0 0 0 0,1.644758c1.203952,1.090899 2.843034,3.176516 2.843034,4.159986c0,1.203952 0.763093,2.396551 1.531758,3.057839c1.639134,1.64481 4.046985,2.735657 6.121302,2.735657c2.515228,0 4.154362,1.090899 4.59522,2.074369c0.107429,0.649988 0.763041,0.98347 1.418705,0.763041c0.548235,-0.209129 0.870417,-0.870417 0.655664,-1.413029c-0.768717,-2.198722 -3.396997,-3.719179 -6.675213,-3.719179c-1.752187,0 -3.498698,-0.99477 -4.59522,-1.97824c-0.633064,-0.649988 -0.859169,-1.299976 -0.859169,-1.520457z" id="svg_16"/>
   <path stroke="null" d="m239.700526,404.76869a2.402175,2.402175 0 0 0 2.294798,-2.407851a2.407851,2.407851 0 0 0 -2.407851,-2.294746c-15.091313,0.548235 -52.395688,-3.176516 -52.71787,-3.176516a2.430451,2.430451 0 0 0 -2.628228,2.079993a2.390875,2.390875 0 0 0 2.079993,2.515228c1.644758,0.113001 37.960039,3.724751 53.379158,3.283892zm35.766993,-0.107377c1.096523,0.327806 25.485654,8.308671 47.359609,5.578691a2.424775,2.424775 0 0 0 2.079993,-2.62828c-0.220429,-1.203899 -1.311328,-2.18737 -2.62828,-1.96694c-20.783057,2.62828 -45.064811,-5.358261 -45.28524,-5.358261a2.311722,2.311722 0 1 0 -1.526081,4.374791zm45.613046,16.623071c1.203952,-0.327858 1.859616,-1.639134 1.531758,-2.843086c-0.440859,-1.311276 -1.752187,-1.96694 -2.956086,-1.531705c-3.391321,0.98347 -19.579157,0.763041 -29.091728,0.327806a2.407851,2.407851 0 0 0 -2.407851,2.294798c0,1.203899 0.98347,2.300422 2.18737,2.407799c2.622604,0.113053 25.485706,0.989146 30.736538,-0.655664l0,0.000052zm-7.438254,8.421724a2.204346,2.204346 0 0 0 1.966992,2.622604c10.609094,1.531758 28.984351,3.719127 32.596102,1.424329c1.096523,-0.768665 1.418653,-2.18737 0.655612,-3.283892a2.379575,2.379575 0 0 0 -3.17084,-0.655664l0.113053,0c-2.300474,0.98347 -17.171358,-0.220429 -29.538315,-2.079993c-1.311276,-0.101753 -2.509552,0.768717 -2.622604,1.972616zm35.218706,7.551307a2.204346,2.204346 0 0 0 -2.622604,1.96694c-0.220429,1.203952 0.655664,2.407851 1.966992,2.62828c7.658683,1.090847 33.144337,4.154362 37.954363,-0.655664c0.98347,-0.98347 0.98347,-2.407799 0,-3.283892c-0.876093,-0.98347 -2.294798,-0.98347 -3.283944,0c-1.961264,1.96694 -17.493488,1.639134 -34.014807,-0.655664zm-2.515176,27.017411c-0.983522,-0.876093 -2.407851,-0.876093 -3.283944,0.113053c-7.658683,8.093918 -33.359142,10.281288 -42.65696,10.388664a2.334374,2.334374 0 0 0 -2.294798,2.407851c0,1.198275 1.090899,2.294798 2.407851,2.294798c1.418653,-0.113053 35.439135,-0.655664 45.940904,-11.920474a2.373899,2.373899 0 0 0 -0.113053,-3.283892zm-59.500512,-25.598706c-21.986956,17.504788 -66.068297,5.471314 -66.50348,5.250885a2.373899,2.373899 0 0 0 -2.84871,1.644758a2.373899,2.373899 0 0 0 1.644758,2.843034c1.85394,0.548287 46.703945,12.796567 70.544841,-6.013873c0.98347,-0.876093 1.203899,-2.294798 0.327806,-3.283944a2.260898,2.260898 0 0 0 -3.165216,-0.440859zm51.627024,-56.216568c-2.515228,2.843034 -4.702649,6.454784 -3.504374,9.733052c1.311328,3.283892 5.363937,4.923026 12.694815,5.143456c-1.972616,1.966992 -3.498698,4.48222 -2.956086,7.110448c1.311276,5.358261 10.501717,7.879165 29.860445,7.986541c1.311328,0.113053 2.294798,-0.98347 2.402175,-2.294798a2.379575,2.379575 0 0 0 -2.294798,-2.294746c-24.061325,-0.220481 -25.372601,-4.267414 -25.372601,-4.487844c-0.333482,-1.418705 3.498698,-4.702597 6.997395,-6.556537a2.294798,2.294798 0 0 0 1.090847,-2.735657c-0.220429,-1.090847 -1.311276,-1.752187 -2.402175,-1.639134c-14.113467,1.090899 -15.532172,-1.531705 -15.645225,-1.859564c-0.655664,-1.639134 3.063463,-6.126978 6.782642,-8.970012c0.876041,-0.548235 1.096523,-1.639134 0.768665,-2.622604c-0.327806,-0.98347 -1.311276,-1.531758 -2.402175,-1.531758c-16.19346,1.424381 -17.725218,-1.531705 -17.832594,-1.96694c-0.655664,-1.859564 4.15431,-7.110448 8.970012,-10.501717a2.260898,2.260898 0 0 0 0.548235,-3.176568a2.317398,2.317398 0 0 0 -3.283892,-0.548235c-3.063515,2.18737 -12.796567,9.625676 -10.609146,15.859978c1.418705,3.815256 6.454784,5.567443 16.187836,5.352637zm-76.24226,-3.61175c-4.482168,5.573067 -2.95041,15.639601 -2.729981,16.736124a2.362599,2.362599 0 0 0 2.729981,1.96694a2.368275,2.368275 0 0 0 1.859616,-2.735657c-0.435235,-2.515228 -0.983522,-9.733052 1.752135,-13.124373c2.294798,-2.956086 0.327858,-6.454784 -1.311276,-9.184765c-1.203952,-2.079993 -2.515228,-4.374791 -1.86524,-5.79912c0.333482,-0.876093 1.86524,-2.622656 7.879165,-4.046985a2.345675,2.345675 0 0 0 1.752135,-2.83741a2.475651,2.475651 0 0 0 -2.843034,-1.752135c-6.239979,1.531705 -9.738676,3.719127 -11.050004,6.78259c-1.531758,3.61175 0.440859,7.110448 2.18737,9.953482c0.66134,1.305652 1.972616,3.60045 1.639134,4.041309zm-56.87218,7.658735c1.305652,0 32.375672,-0.548287 40.797397,-2.187422c1.203952,-0.327806 2.079993,-1.531758 1.752187,-2.843034c-0.220429,-1.203899 -1.418705,-1.96694 -2.729981,-1.746511c-7.879165,1.639134 -39.599173,2.181746 -39.921355,2.181746c-1.203899,0 -2.300422,1.096523 -2.300422,2.407799c0.101753,1.198275 1.090847,2.294798 2.402175,2.187422zm159.363134,95.487883a2.249546,2.249546 0 0 0 -2.407851,-2.187422c-16.300837,0.548287 -41.453061,13.89309 -42.549583,14.548702a2.193046,2.193046 0 0 0 -0.98347,2.950462a2.379575,2.379575 0 0 0 3.176516,0.98347c0.220429,-0.113053 25.265224,-13.344803 40.577019,-13.893038c1.203899,0.005624 2.18737,-1.090899 2.18737,-2.402175zm34.342613,13.124321a2.306098,2.306098 0 0 0 -2.294746,-2.294746c-16.623071,0 -42.657012,14.543026 -43.753535,15.096937c-1.090847,0.649988 -1.531705,2.074369 -0.876093,3.170892s2.080045,1.531705 3.170892,0.870417c0.226105,-0.113053 26.141318,-14.656079 41.453061,-14.656079a2.221322,2.221322 0 0 0 2.300422,-2.187422zm35.439187,20.020016a2.334374,2.334374 0 0 0 0.548235,-3.289568a2.396499,2.396499 0 0 0 -3.283892,-0.429559c-12.02785,8.851335 -32.26262,11.151757 -32.483049,11.151757a2.419151,2.419151 0 0 0 -2.080045,2.62828c0.107429,1.203899 1.311328,2.18737 2.515228,1.97824c0.88177,-0.005676 21.772203,-2.424775 34.783523,-12.039151zm37.304375,3.82088a2.283498,2.283498 0 0 0 -3.283944,-0.209129c-11.485187,9.947858 -35.326083,17.82697 -35.552188,17.82697a2.464351,2.464351 0 0 0 -1.531758,2.944786c0.435235,1.203899 1.752187,1.85394 2.950462,1.531758c0.98347,-0.333482 24.937418,-8.201347 37.191322,-18.82174c0.989146,-0.864793 1.102147,-2.390875 0.226105,-3.272644zm25.920888,13.124373c-5.578743,5.143456 -27.452646,13.678233 -35.439187,16.515642a2.447375,2.447375 0 0 0 -1.424329,3.069139a2.260898,2.260898 0 0 0 2.95041,1.311328c1.203952,-0.440859 29.645692,-10.716522 37.078322,-17.397412c0.876093,-0.870417 0.989094,-2.407851 0.113053,-3.278268a2.283498,2.283498 0 0 0 -3.278268,-0.220429zm-74.490073,-178.173627a2.334374,2.334374 0 0 0 -2.18737,2.509604c0.113053,1.203899 1.203899,2.18737 2.515228,2.079993c0.548235,0 55.018293,-3.283944 92.639173,28.549117a2.407851,2.407851 0 0 0 3.289568,-0.33343a2.396499,2.396499 0 0 0 -0.333482,-3.278268c-39.152638,-32.918284 -93.622696,-29.634391 -95.923118,-29.527015zm229.043182,153.123156c-2.515176,-1.746511 -5.143456,1.978292 -2.735657,3.83218l28.340039,20.347822a1.95564,1.95564 0 0 0 1.526081,0.440911c0.113053,0 14.107843,-0.774393 20.014392,9.405194c1.531705,2.62828 5.476938,0.220429 3.939556,-2.407799c-4.81565,-8.201347 -14.328273,-11.700044 -23.405661,-11.592616l-27.678751,-20.025692zm16.736124,-17.708242a2.272198,2.272198 0 0 0 3.17084,0.435183a2.210022,2.210022 0 0 0 0.553911,-3.176516c-11.592616,-15.532172 -40.03998,-15.19869 -41.243931,-15.19869a2.317398,2.317398 0 0 0 -2.294746,2.294746c0,1.311328 1.102147,2.300474 2.407799,2.300474c0.214805,-0.005676 27.237841,-0.333482 37.406128,13.344803zm-28.44174,-25.383953c0.33343,0 32.697802,-0.876093 43.968288,15.532172a2.311722,2.311722 0 0 0 3.278216,0.548287c0.983522,-0.655664 1.311328,-2.187422 0.542611,-3.170892c-12.796515,-18.488258 -46.585216,-17.499112 -48.009597,-17.499112a2.18737,2.18737 0 0 0 -2.18737,2.407799a2.181746,2.181746 0 0 0 2.407851,2.181746zm17.278683,-15.091313c0.333482,0 29.651316,3.939556 38.174792,16.187836a2.311722,2.311722 0 0 0 3.278268,0.548287c0.994822,-0.66134 1.311328,-2.193046 0.553911,-3.176568c-9.738676,-13.893038 -40.141732,-17.939971 -41.453061,-18.154776c-1.203899,-0.113053 -2.407851,0.763041 -2.515228,1.96694a2.204346,2.204346 0 0 0 1.961316,2.62828zm14.989561,-16.074783c-1.203899,-0.220429 -2.407799,0.655664 -2.628228,1.96694a2.407851,2.407851 0 0 0 2.074317,2.622604c0.220429,0 22.86305,3.283944 30.956968,15.424795c0.66134,1.090899 2.187422,1.418705 3.176568,0.655664a2.193046,2.193046 0 0 0 0.649988,-3.170892c-9.179141,-14.000415 -33.133089,-17.391736 -34.229612,-17.499112zm51.084412,10.060858c-4.702649,-10.609146 -28.215687,-21.65915 -29.312209,-22.094333c-1.102199,-0.548287 -2.515228,0 -3.069139,1.090847a2.407851,2.407851 0 0 0 1.203899,3.170892c6.347407,2.95041 23.626142,12.248228 27.011787,19.799534c0.440859,1.090899 1.865188,1.639134 3.069139,1.090899c1.096523,-0.542611 1.633458,-1.859564 1.096523,-3.057839zm-6.347407,-28.984351a2.283498,2.283498 0 0 0 -0.220429,3.278268c3.402621,4.046933 12.253904,15.645225 12.694763,21.331292c0,1.311328 1.090899,2.294798 2.407851,2.187422a2.339998,2.339998 0 0 0 2.18737,-2.515228c-0.553911,-8.201295 -12.474333,-22.422191 -13.785661,-23.953948a2.390875,2.390875 0 0 0 -3.283892,-0.327806zm19.69221,-3.939556a2.328698,2.328698 0 0 0 -2.956086,-1.424381a2.328698,2.328698 0 0 0 -1.424381,2.956086c0.220429,0.548287 5.256509,15.639601 15.210042,23.190908a2.176069,2.176069 0 0 0 3.17084,-0.435235c0.870417,-0.98347 0.649988,-2.407799 -0.440859,-3.176516c-8.636529,-6.675213 -13.559556,-20.896109 -13.559556,-21.110863zm32.155191,-6.454784a2.306098,2.306098 0 0 0 -2.848658,1.752135c-1.424381,6.234355 -5.793496,27.12484 0.333482,32.155243a2.390875,2.390875 0 0 0 3.278216,-0.327806c0.763093,-0.989146 0.65004,-2.515228 -0.33343,-3.283944c-2.62828,-2.079993 -1.424381,-15.973031 1.311276,-27.559971a2.402175,2.402175 0 0 0 -1.740887,-2.735657zm48.235703,-17.171358c-1.311328,0.327858 -2.074369,1.531758 -1.746511,2.735657c1.203899,4.81565 0.870417,15.752654 -2.515228,18.703064c-5.036079,4.374791 -6.788266,16.736124 -6.997395,18.0474c-0.113053,1.311328 0.763041,2.515228 1.96694,2.622604a2.210022,2.210022 0 0 0 2.62828,-1.972616c0.649988,-4.589544 2.61698,-12.796515 5.465638,-15.204314c5.573067,-4.815702 5.143508,-18.375258 3.939556,-23.298284a2.266522,2.266522 0 0 0 -2.741281,-1.63351zm33.359142,-7.76606c-1.311276,-0.220429 -2.407799,0.768665 -2.515228,2.074317c0,0 -1.090847,8.642206 -5.352585,13.022621c-4.600897,4.59522 -17.82697,23.62609 -17.82697,29.204833c0,1.311276 0.98347,2.402175 2.294798,2.402175s2.294746,-1.090899 2.294746,-2.402175c0,-3.063515 11.050004,-20.562627 16.515694,-25.926565c5.465638,-5.573014 6.556485,-15.424795 6.669537,-15.859978a2.260898,2.260898 0 0 0 -2.079993,-2.515228zm16.515694,19.251299c-0.333482,-3.176516 3.391269,-11.050004 5.906497,-15.311743c0.553911,-1.096523 0.220429,-2.515228 -0.870417,-3.176516s-2.515228,-0.220429 -3.170892,0.876093c-1.203899,2.079993 -7.121748,12.576086 -6.460408,18.0474c0.113001,0.977794 -2.84871,4.046933 -4.702649,6.121302c-4.482168,4.708273 -9.959106,10.609146 -10.275612,17.940023c-0.113053,1.203899 0.870417,2.294746 2.18737,2.407799c1.311276,0 2.407851,-0.989094 2.407851,-2.193046c0.32213,-5.686067 5.143456,-10.829575 9.071712,-14.983885c3.385645,-3.713503 6.234355,-6.663965 5.906549,-9.727428zm5.906497,-15.311743l-0.113053,0l0.113053,0zm2.62828,10.173911c-5.686119,3.826556 -6.776966,12.576086 -7.658683,19.686534c-0.322182,2.402175 -0.542611,4.810026 -0.983522,6.562161c-1.311276,5.250885 -8.630853,11.705668 -11.372134,13.780037a2.407851,2.407851 0 0 0 -0.440911,3.283892a2.396499,2.396499 0 0 0 3.289568,0.435235c0.429559,-0.333482 11.151757,-8.529153 13.005697,-16.408266c0.553911,-2.079993 0.774341,-4.482168 1.102147,-7.110448c0.763041,-6.121302 1.633458,-13.779985 5.686119,-16.408266c1.090847,-0.655664 1.311276,-2.18737 0.649988,-3.170892c-0.763041,-1.090847 -2.187422,-1.418653 -3.278268,-0.649988zm-69.018759,169.751851c2.294798,0.333482 3.939608,0.542611 5.686119,2.294798c2.074317,2.18737 4.923026,3.057839 7.551307,4.041309c3.391321,1.102147 6.449108,2.085669 7.653059,5.697367c1.102147,3.498698 5.584315,4.81565 9.846053,6.126978c3.719179,1.203899 7.551307,2.407851 8.755258,4.81565c0.542611,1.203899 0.542611,2.61698 -0.113053,4.482168c-1.203899,3.278268 -2.84871,5.352637 -5.036079,5.906549c-2.62828,0.763041 -6.013925,-0.440859 -10.055234,-3.498698c-0.333482,-0.333482 -0.661288,-0.774341 -1.090899,-1.311328c-2.628228,-3.498698 -7.110396,-9.297818 -30.742162,-3.069139a0.977846,0.977846 0 0 0 -0.763041,1.311328c0.113001,0.661288 0.763041,0.98347 1.311276,0.870417a97.29657,97.29657 0 0 1 11.479615,-2.396499c-0.113053,0.649988 -1.424381,5.686067 0.98347,9.405194c1.311276,2.074369 3.402569,3.391321 6.126926,3.82088c4.923079,0.88177 7.551307,-0.209129 9.196117,-0.870417c1.633458,-0.649988 2.18737,-0.870417 3.707827,0.440859c0.661288,0.649988 0.881717,1.311328 0.553911,2.074369c-0.870417,2.515228 -6.776966,6.460408 -18.590011,6.460408c-0.661288,0 -1.102199,0.429611 -1.102199,1.090899c0,0.649988 0.440911,1.090847 1.102199,1.090847c12.242604,0 19.251299,-4.052609 20.66438,-7.771736a3.883056,3.883056 0 0 0 -1.203952,-4.589544c-2.628228,-2.294798 -4.261738,-1.63351 -5.906497,-0.870469c-1.746563,0.65004 -3.719127,1.531758 -7.980917,0.763093c-2.18737,-0.429611 -3.719127,-1.311328 -4.702597,-2.724357c-1.865188,-3.176568 -0.661288,-7.658735 -0.661288,-7.771788c0.113053,-0.220429 0,-0.542611 -0.113053,-0.763041c10.507393,-0.870417 13.124373,2.515228 14.882184,4.815702c0.440859,0.649988 0.98347,1.311276 1.531758,1.746511c4.589544,3.61175 8.630853,4.923026 12.033474,3.939556c2.83741,-0.870417 5.024779,-3.391321 6.556537,-7.438254c0.113053,-0.542611 0.333482,-1.090899 0.440859,-1.64481c5.024779,0.88177 9.297818,7.658683 9.405246,7.771736l0.33343,0.333482c18.590011,10.496093 19.573533,12.903944 20.234821,19.901339c0.322182,4.052609 -4.713897,11.699992 -9.303494,17.499164c0,-1.413081 -0.322182,-2.724357 -0.870417,-3.719179c-3.057839,-6.889967 -14.220896,-11.920422 -21.218291,-11.592616c-9.297818,0.553911 -20.234769,-3.611698 -20.347822,-3.611698c-0.553911,-0.333482 -1.203899,0 -1.424381,0.553911a1.215199,1.215199 0 0 0 0.66134,1.526081c0.322182,0.118677 5.793444,2.19867 12.355656,3.176516c0,0.429559 0.220429,0.870417 0.553911,0.98347a40.961326,40.961326 0 0 1 14.757831,11.920422c-6.556537,-3.498698 -19.353052,-9.846053 -24.163078,-8.642153c-5.363885,1.311328 -14.548702,-3.278268 -14.661755,-3.391321c-0.553911,-0.220429 -1.203899,0 -1.424329,0.553911c-0.333482,0.542611 -0.113053,1.203952 0.440859,1.531758c0.220429,0.101753 3.278268,1.526081 6.890019,2.61698c-2.294798,2.294746 -2.735657,2.294746 -5.686119,1.865188a38.926533,38.926533 0 0 0 -6.997395,-0.774341c-5.143456,-0.322182 -11.050004,0.440859 -19.364352,1.424329a545.72341,545.72341 0 0 1 -34.783471,3.391321c-6.997395,0.440859 -9.738728,0.220429 -10.942628,-0.113053c1.865188,-1.203899 7.330877,-3.17084 12.807815,-4.81565c-0.113053,0.553911 0.113053,0.994822 0.542611,1.311328c0.440859,0.333482 1.203899,0.113053 1.531758,-0.429559c2.84871,-4.713949 8.851283,-7.438254 8.851283,-7.438254c0.553911,-0.220481 0.88177,-0.870469 0.66134,-1.424381c-0.333482,-0.553911 -0.983522,-0.870417 -1.531758,-0.649988c-0.220429,0.101753 -4.589596,2.074369 -7.980865,5.793496l-0.113053,0c-19.68091,2.724357 -23.84652,1.853887 -24.716989,1.413029c0.542611,-0.763041 2.62828,-2.074369 4.923079,-3.057839a1.113499,1.113499 0 0 0 0.542611,-1.203899c-0.113053,-0.542611 -0.542611,-0.98347 -1.090899,-0.98347c-9.405194,0 -11.050004,-1.090899 -11.270434,-1.424381c0.113053,-0.440859 1.644758,-1.526081 3.176516,-2.18737l0.220429,-0.220429c6.997395,0.113053 17.719594,-0.209129 34.122183,-1.311328c0.553911,0 1.090899,-0.542611 0.983522,-1.090847c0,-0.65004 -0.542611,-1.090899 -1.203952,-1.090899c-35.326083,2.294798 -43.306948,1.090899 -45.064811,0.333482c1.424381,-0.98347 6.347407,-2.735657 10.716522,-3.83218c0.66134,-0.113053 0.983522,-0.649988 0.870469,-1.311276c-0.101753,-0.542611 -0.649988,-0.870469 -1.203899,-0.870469c-11.700044,1.64481 -12.796567,-0.113053 -12.903944,-0.333482c-0.220429,-0.649988 1.090847,-2.407799 2.515228,-3.498698c0.440859,-0.333482 0.553911,-0.763041 0.440859,-1.203899c-0.220429,-0.440859 -0.661288,-0.763041 -1.090899,-0.763041c-9.959106,0 -10.399964,-1.757811 -10.399964,-1.757811c-0.209129,-1.090899 4.159986,-4.148738 8.975636,-6.240031a1.192599,1.192599 0 0 0 0.649988,-1.090847c-0.113053,-0.542611 -0.429559,-0.870469 -0.870417,-0.983522c-21.438721,-5.352585 -22.309138,-8.534777 -22.201761,-9.071712c0.101753,-2.407851 11.259134,-4.923079 21.546097,-5.793496a0.98347,0.98347 0 0 0 0.98347,-0.98347c0,-0.553911 -0.333482,-1.102199 -0.881717,-1.203899c-15.424795,-3.289568 -17.719594,-5.256561 -18.0361,-5.804796c0.98347,-1.311328 8.964335,-2.724357 17.82697,-3.170892c0.542611,0 1.090899,-0.440859 1.090899,-0.98347c0.113001,-0.553911 -0.333482,-1.090847 -0.88177,-1.203899c-11.372186,-2.84871 -13.226074,-4.482168 -13.553932,-5.036079c1.203952,-1.531758 13.344803,-2.735657 23.953948,-2.83741c0.542611,0 0.98347,-0.440859 1.090847,-0.99477a1.045646,1.045646 0 0 0 -0.661288,-1.203952c-1.090847,-0.542611 -1.746511,-0.870417 -2.074317,-1.203899c1.531705,-0.649988 6.776914,-1.090899 12.253904,-0.98347c0.542611,0 0.98347,-0.322182 1.203899,-0.870469c0.113053,-0.440859 -0.220429,-0.98347 -0.661288,-1.203899c-3.719127,-1.644758 -6.890019,-4.052609 -6.890019,-5.036079c0.113053,-0.113053 0.333482,-0.429559 0.98347,-0.649988c5.584367,-2.294798 20.67568,-2.294798 20.896109,-2.294798s0.333482,-0.113053 0.542611,-0.220429c10.066534,2.735657 29.860445,8.534777 38.836132,14.870884c7.336501,5.363885 11.818669,6.013925 15.096937,6.562161z" fill="#fff" id="svg_17"/>
   <path stroke="null" d="m844.466561,608.654024c2.515228,-0.220429 6.556537,-1.644758 7.110448,-4.81565c0.101753,-1.090847 1.96694,-0.870417 1.96694,-0.870417c0.65004,0 1.203952,-0.440859 1.311328,-0.98347c0,-0.66134 -0.440859,-1.203952 -0.98347,-1.311328c-1.424381,-0.113053 -4.159986,0.209129 -4.493468,2.83741c-0.322182,1.531758 -2.83741,2.735657 -5.024831,2.84871a1.266076,1.266076 0 0 0 -1.090847,1.203899a1.260452,1.260452 0 0 0 1.203899,1.090847zm-26.582177,-19.251299c-0.661288,-0.113053 -1.203899,0.220429 -1.311276,0.870417c-0.113053,0.553911 0.220429,1.203952 0.870417,1.311328c0,0 3.498698,0.774341 4.702597,3.61175c0.220429,0.553911 0.88177,0.881717 1.424381,0.661288a1.2265,1.2265 0 0 0 0.661288,-1.531758c-1.64481,-3.939556 -6.126978,-4.923026 -6.347407,-4.923026z" id="svg_18"/>
   <path stroke="null" d="m467.212002,192.682061c-0.983522,-6.347407 3.826504,-10.501769 6.675213,-13.124373c3.933932,5.363885 8.743906,11.157381 13.666985,15.532172c-4.369167,5.030455 -7.653059,6.121302 -9.405246,6.347407c-5.143508,0.870417 -10.066534,-3.176516 -10.936952,-8.755258l0,0.000052zm6.341731,-28.984403c-0.655664,-4.482168 1.639134,-6.675213 4.702597,-7.110448c3.063463,-0.548235 5.906549,1.531758 6.562213,5.137832c0.876041,6.019601 -4.917402,10.394392 -6.776966,11.705668c-1.859616,-2.729981 -3.939608,-6.234355 -4.487844,-9.733052zm-139.784029,85.754831l-5.471314,-21.218239l18.923493,11.044328l-13.452179,10.173911zm-53.379158,14.21522c-1.531705,-1.531705 -1.418705,-2.294746 1.311328,-5.030403c2.079993,-2.187422 9.077388,-8.749582 15.967407,-1.859564c7.438254,7.325201 -0.327858,15.19869 -4.59522,19.686534l-12.683515,-12.796567zm-27.017411,29.753068c-1.859564,-1.531705 -1.418705,-2.18737 0,-3.83218c2.079993,-2.515176 9.077388,-10.609094 17.171306,-3.826504c8.529153,7.110448 2.187422,14.656079 0.440911,16.736072c-0.983522,1.203952 -1.966992,2.187422 -2.950462,3.176568l-14.661755,-12.253956zm244.897588,514.308608c0.113001,-1.090847 0.33343,-2.085669 1.859564,-1.865188c0.655612,0 1.752135,0.113001 3.283892,0.33343c5.143508,0.553911 12.587386,2.956086 11.479563,11.592616c-1.090847,8.642206 -9.727376,7.771788 -11.807369,7.438306l-6.895695,-0.763041l2.080045,-16.736124zm-2.402175,19.573481c6.997395,0.88177 9.184765,1.531758 11.592616,2.515228c3.724751,1.64481 6.889967,4.482168 6.228679,10.496093c-1.192599,9.738728 -10.055234,9.297818 -14.870884,8.755206c-4.261738,-0.553911 -5.578691,-0.98347 -5.250885,-3.719127l2.300474,-18.0474zm-49.880513,-4.702597l12.689191,-17.719594l3.724751,21.546097l-16.41389,-3.826504l-0.000052,0zm-33.251714,-36.750463c0.548235,-1.424329 0.98347,-2.735657 4.267362,-1.424329c8.534777,3.289568 11.699992,6.567837 13.893038,10.829575c3.063515,6.013873 2.622656,12.253904 0.327858,17.939971c-7.653059,19.901339 -24.389131,13.457855 -28.876975,11.813045c-3.283944,-1.311276 -3.826556,-2.074317 -2.950462,-4.369115l13.339179,-34.789147zm-106.424887,-72.74351c1.752187,-1.64481 2.294798,-1.203899 3.83218,0.440859c2.294798,2.294798 9.62,10.055234 2.079993,17.386112c-7.986489,7.771736 -14.876508,0.661288 -16.736072,-1.311328a25.802212,25.802212 0 0 1 -2.843034,-3.278268l13.666933,-13.237374zm-50.637825,-65.94962c1.311276,-0.774341 2.402175,-1.531758 4.261738,1.413029c4.702597,7.992218 5.143456,12.474385 4.267362,17.176982c-1.311276,6.669589 -5.471314,11.151757 -10.716522,14.328273c-18.375206,11.050004 -27.673023,-4.482168 -30.080874,-8.421724c-1.752187,-3.057839 -1.752187,-4.052609 0.327806,-5.352637l31.94049,-19.143922z" fill="#fff" id="svg_19"/>
  </g>
 </g>
</svg>