<svg width="172" height="172" xmlns="http://www.w3.org/2000/svg">
 <metadata id="metadata8">image/svg+xml</metadata>
 <defs>
  <clipPath id="clipPath16" clipPathUnits="userSpaceOnUse">
   <path id="path18" d="m1.599811,133.641l919.533,0l0,-135.241l-919.533,0l0,135.241z"/>
  </clipPath>
 </defs>
 <g>
  <title>background</title>
  <rect fill="none" id="canvas_background" height="174" width="174" y="-1" x="-1"/>
 </g>
 <g>
  <title>Layer 1</title>
  <g transform="matrix(1.25,0,0,-1.25,0,169.05125) " id="g10">
   <g id="g12">
    <g clip-path="url(#clipPath16)" id="g14">
     <g id="g20">
      <path fill="#2260a5" fill-rule="nonzero" id="path22" d="m31.547011,61.259299c-0.468,0.322 -0.905,0.189 -1.312,0.189c-6.526,0.002 -13.054,0.05 -19.579,-0.047c-2.615,-0.039 -5.232,-0.04 -7.846,-0.112c-0.701,-0.019 -0.954,0.177 -1.021,0.889c-0.248,2.656 -0.264,5.299 0.024,7.956c0.084,0.777 0.369,0.873 1.02,0.867c2.791,-0.027 5.582,-0.014 8.373,-0.011c6.956,0.007 13.912,0.017 20.867,0.025c0.172,0 0.344,0.002 0.516,0c0.344,-0.005 0.805,-0.056 0.876,0.338c0.093,0.515 -0.461,0.408 -0.742,0.479c-3.711,0.934 -7.428,1.846 -11.144,2.76c-5.907,1.453 -11.809,2.927 -17.728,4.33c-0.792,0.188 -0.898,0.381 -0.749,1.166c0.454,2.391 1.131,4.712 1.856,7.028c0.26,0.831 0.602,1.034 1.463,0.793c9.906,-2.777 19.822,-5.517 29.737,-8.257c0.464,-0.128 1.185,-0.582 1.38,-0.114c0.288,0.695 -0.641,0.742 -1.051,0.969c-8.955,4.958 -17.921,9.893 -26.906,14.794c-0.79,0.431 -0.979,0.75 -0.543,1.598c0.977,1.9 2.019,3.752 3.157,5.56c0.553,0.88 1,0.975 1.889,0.457c9.042,-5.264 18.105,-10.491 27.168,-15.72c0.72,-0.415 1.407,-0.925 2.33,-1.077c0.068,0.625 -0.392,0.881 -0.698,1.172c-7.578,7.212 -15.157,14.423 -22.762,21.606c-1.846,1.744 -1.898,1.723 -0.12,3.537c1.082,1.102 2.216,2.153 3.294,3.258c0.585,0.599 0.987,0.621 1.63,-0.021c7.958,-7.938 15.949,-15.843 23.93,-23.757c0.538,-0.533 1.057,-1.09 1.826,-1.508c0.201,0.761 -0.279,1.186 -0.558,1.649c-5.894,9.763 -11.786,19.527 -17.723,29.264c-0.51,0.838 -0.384,1.208 0.384,1.709c1.61,1.05 3.26,2.015 4.97,2.894c0.734,0.377 1.044,0.321 1.459,-0.417c3.076,-5.474 6.191,-10.927 9.313,-16.376c3.054,-5.33 6.13,-10.648 9.199,-15.97c0.142,-0.245 0.218,-0.567 0.7,-0.615c0.163,0.992 -0.263,1.901 -0.501,2.773c-3.077,11.235 -6.2,22.458 -9.359,33.671c-0.288,1.022 -0.156,1.527 0.913,1.779c1.572,0.37 3.125,0.82 4.686,1.239c0.818,0.22 1.295,0.007 1.531,-0.901c3.31,-12.76 6.643,-25.513 9.99,-38.264c0.185,-0.703 0.061,-0.925 -0.693,-1.068c-5.614,-1.059 -10.464,-3.597 -14.39,-7.768c-4.078,-4.332 -6.398,-9.457 -7.012,-15.416c-1.348,-13.085 7.578,-25.203 20.476,-27.899c9.152,-1.914 17.233,0.599 23.87,7.125c4.767,4.687 7.307,10.537 7.55,17.282c0.028,0.778 0.215,1.015 1.015,1.013c13.139,-0.024 26.278,-0.024 39.417,0c0.786,0.001 0.998,-0.197 1.013,-0.996c0.088,-4.773 -0.503,-9.46 -1.587,-14.098c-0.144,-0.619 -0.308,-0.955 -1.093,-0.852c-3.643,0.479 -7.296,0.883 -10.946,1.312c-0.28,0.033 -0.644,0.226 -0.772,-0.174c-0.16,-0.5 0.367,-0.522 0.619,-0.641c3.201,-1.505 6.398,-3.02 9.637,-4.44c0.913,-0.4 1.058,-0.805 0.761,-1.722c-1.413,-4.356 -3.275,-8.496 -5.649,-12.414c-0.394,-0.65 -0.703,-0.734 -1.387,-0.414c-3.437,1.604 -6.899,3.155 -10.359,4.708c-0.444,0.199 -0.879,0.532 -1.446,0.341c-0.04,-0.642 0.498,-0.884 0.849,-1.2c2.736,-2.464 5.475,-4.926 8.264,-7.33c0.722,-0.623 0.94,-0.991 0.296,-1.898c-2.396,-3.373 -5.141,-6.42 -8.102,-9.294c-0.764,-0.741 -1.259,-0.76 -2.09,-0.01c-3.211,2.903 -6.508,5.71 -9.773,8.551c-0.187,0.162 -0.353,0.378 -0.781,0.266c0.486,-1.431 1.386,-2.609 2.134,-3.851c1.697,-2.818 3.452,-5.6 5.217,-8.374c0.339,-0.533 0.334,-0.812 -0.196,-1.223c-3.117,-2.42 -6.407,-4.551 -9.932,-6.336c-1.012,-0.512 -1.506,-0.506 -2.164,0.596c-2.388,3.996 -4.927,7.901 -7.418,11.835c-0.17,0.269 -0.245,0.664 -0.891,0.697c0.282,-1.186 0.52,-2.324 0.825,-3.444c1.05,-3.855 2.101,-7.709 3.21,-11.547c0.192,-0.663 0.192,-0.942 -0.52,-1.236c-3.633,-1.499 -7.408,-2.485 -11.247,-3.262c-0.722,-0.147 -0.812,0.252 -0.972,0.82c-1.413,5.032 -2.867,10.053 -4.31,15.077c-0.047,0.163 -0.066,0.346 -0.154,0.483c-0.178,0.278 0.028,0.925 -0.6,0.77c-0.447,-0.11 -0.264,-0.578 -0.265,-0.888c-0.011,-5.067 -0.008,-10.134 -0.008,-15.2c-0.001,-2.081 -0.006,-2.006 -2.088,-2.149c-3.042,-0.211 -6.07,-0.244 -9.113,-0.018c-0.972,0.072 -1.214,0.34 -1.214,1.275c0,5.493 -0.059,10.987 -0.106,16.48c-0.004,0.583 0.091,1.189 -0.322,1.843c-0.516,-0.495 -0.633,-1.116 -0.791,-1.686c-1.471,-5.33 -2.95,-10.658 -4.359,-16.005c-0.232,-0.881 -0.534,-1.041 -1.397,-0.865c-3.213,0.655 -6.389,1.41 -9.485,2.519c-0.861,0.308 -0.945,0.674 -0.742,1.417c1.571,5.74 3.128,11.484 4.681,17.228c0.175,0.646 0.3,1.306 0.447,1.954c-0.577,0.22 -0.654,-0.215 -0.808,-0.473c-2.723,-4.593 -5.439,-9.19 -8.153,-13.789c-0.541,-0.918 -1.101,-1.827 -1.584,-2.776c-0.353,-0.693 -0.721,-0.745 -1.408,-0.416c-2.78,1.33 -5.421,2.88 -7.996,4.573c-0.997,0.655 -0.949,1.167 -0.419,2.037c1.802,2.954 3.561,5.934 5.328,8.908c1.722,2.898 3.436,5.801 5.146,8.706c0.184,0.313 0.636,0.719 0.287,1.002c-0.424,0.345 -0.735,-0.207 -1.016,-0.485c-4.887,-4.825 -9.779,-9.645 -14.634,-14.503c-0.659,-0.66 -1.081,-0.854 -1.856,-0.14c-2.235,2.065 -4.425,4.163 -6.393,6.492c-0.466,0.552 -0.315,0.788 0.104,1.193c3.976,3.849 7.94,7.712 11.903,11.574c1.687,1.645 3.367,3.296 5.044,4.95c0.203,0.201 0.495,0.365 0.442,0.833c-1.03,-0.155 -1.848,-0.766 -2.695,-1.252c-6.185,-3.549 -12.368,-7.103 -18.512,-10.723c-0.821,-0.485 -1.142,-0.284 -1.572,0.377c-1.557,2.397 -2.982,4.864 -4.27,7.419c-0.431,0.853 -0.173,1.141 0.516,1.519c6.921,3.799 13.833,7.614 20.743,11.434c0.853,0.472 1.678,0.997 2.66,1.583c-0.788,0.396 -1.37,0.116 -1.945,-0.04c-8.044,-2.186 -16.094,-4.356 -24.123,-6.599c-0.849,-0.237 -1.12,-0.061 -1.374,0.683c-0.878,2.582 -1.542,5.219 -2.083,7.889c-0.143,0.708 0.002,1.119 0.886,1.335c8.919,2.178 17.822,4.426 26.732,6.643c0.374,0.093 0.768,0.089 1.004,0.59"/>
     </g>
     <g id="g104">
      <path fill="#2361a5" fill-rule="nonzero" id="path106" d="m66.031108,103.872099c0,9.473 0.021,18.945 -0.029,28.417c-0.005,1.081 0.283,1.4 1.33,1.346c1.54,-0.08 3.09,-0.085 4.63,-0.016c0.877,0.038 1.06,-0.277 1.044,-1.088c-0.108,-5.441 -0.202,-10.882 -0.24,-16.323c-0.044,-6.305 -0.019,-12.611 -0.039,-18.916c-0.004,-1.455 -0.094,-2.911 -0.09,-4.366c0.002,-0.656 -0.171,-0.894 -0.878,-0.852c-1.283,0.075 -2.596,0.188 -3.853,-0.002c-1.48,-0.223 -1.627,0.519 -1.622,1.634c0.016,3.389 0.006,6.777 0.006,10.166c-0.086,0 -0.173,0 -0.259,0"/>
     </g>
     <g id="g108">
      <path fill="#2361a5" fill-rule="nonzero" id="path110" d="m84.827807,131.8776c1.429,-0.272 3.012,-0.773 4.615,-1.198c0.959,-0.254 0.941,-0.735 0.726,-1.487c-1.356,-4.74 -2.695,-9.484 -4.036,-14.228c-2.231,-7.894 -4.48,-15.783 -6.659,-23.692c-0.248,-0.901 -0.563,-0.927 -1.279,-0.646c-1.189,0.466 -2.415,0.81 -3.682,1.009c-0.744,0.117 -1.108,0.309 -0.835,1.327c3.42,12.722 6.763,25.465 10.118,38.205c0.12,0.457 0.1,1 1.032,0.71"/>
     </g>
     <g id="g112">
      <path fill="#2361a5" fill-rule="nonzero" id="path114" d="m106.479114,122.335303c-0.193,-0.34 -0.393,-0.716 -0.613,-1.079c-3.925,-6.504 -7.848,-13.007 -11.779,-19.507c-2.805,-4.636 -5.637,-9.255 -8.413,-13.909c-0.421,-0.706 -0.655,-0.881 -1.393,-0.34c-1.026,0.752 -2.158,1.375 -3.298,1.948c-0.631,0.318 -0.768,0.509 -0.376,1.179c4.721,8.062 9.406,16.146 14.1,24.224c1.928,3.319 3.876,6.627 5.765,9.969c0.417,0.738 0.78,0.992 1.554,0.499c1.258,-0.802 2.562,-1.533 3.829,-2.321c0.239,-0.148 0.546,-0.28 0.624,-0.663"/>
     </g>
     <g id="g116">
      <path fill="#2361a5" fill-rule="nonzero" id="path118" d="m120.20061,110.578101c-0.287,-0.204 -0.635,-0.396 -0.916,-0.661c-4.834,-4.558 -9.659,-9.127 -14.488,-13.691c-4.708,-4.45 -9.428,-8.886 -14.112,-13.36c-0.582,-0.556 -0.897,-0.62 -1.367,0.074c-0.652,0.963 -1.501,1.774 -2.4,2.498c-0.599,0.482 -0.423,0.739 0.018,1.169c8.568,8.356 17.123,16.723 25.683,25.087c0.949,0.926 1.936,1.815 2.85,2.773c0.456,0.478 0.831,0.368 1.19,-0.003c1.073,-1.109 2.118,-2.244 3.171,-3.371c0.086,-0.092 0.149,-0.205 0.371,-0.515"/>
     </g>
     <g id="g120">
      <path fill="#2361a5" fill-rule="nonzero" id="path122" d="m129.672015,96.688399c0.045,-0.622 -0.493,-0.674 -0.828,-0.857c-7.484,-4.08 -14.975,-8.144 -22.465,-12.211c-4.046,-2.196 -8.103,-4.37 -12.127,-6.606c-0.703,-0.391 -1.065,-0.375 -1.309,0.401c-0.038,0.121 -0.101,0.234 -0.148,0.353c-0.322,0.81 -1.337,1.572 -1.035,2.31c0.257,0.63 1.358,0.922 2.096,1.345c9.584,5.491 19.169,10.978 28.753,16.468c1.406,0.805 2.801,1.63 4.212,2.425c0.225,0.127 0.517,0.529 0.767,0.152c0.8,-1.207 1.53,-2.46 2.084,-3.78"/>
     </g>
     <g id="g124">
      <path fill="#2361a5" fill-rule="nonzero" id="path126" d="m135.574908,80.077101c0.047,-0.482 -0.438,-0.295 -0.718,-0.363c-4.214,-1.024 -8.429,-2.046 -12.648,-3.053c-8.557,-2.044 -17.118,-4.068 -25.671,-6.127c-0.917,-0.221 -1.582,-0.241 -1.582,0.941c0,0.875 -0.918,1.871 -0.343,2.478c0.515,0.543 1.661,0.482 2.525,0.701c12.148,3.089 24.299,6.167 36.436,9.298c0.798,0.206 1.089,0.082 1.25,-0.663c0.224,-1.039 0.482,-2.07 0.751,-3.212"/>
     </g>
     <g id="g140"/>
    </g>
   </g>
  </g>
 </g>
</svg>