<svg width="2500" height="2500" xmlns="http://www.w3.org/2000/svg">
 <style type="text/css">.st0{fill:#F04A26;}
	.st1{fill:#595A5C;}</style>

 <g stroke="null">
  <title>background</title>
  <rect x="-1" y="-1" width="2502" height="2502" id="canvas_background" fill="none" stroke="null"/>
 </g>
 <g stroke="null">
  <title>Layer 1</title>
  <g id="svg_1" stroke="null">
   <g id="svg_53" stroke="null">
    <path class="st1" d="m264.713194,1615.034171c-12.30916,12.30916 -26.66984,18.46374 -45.13358,18.46374c-18.46374,0 -34.87595,-6.15458 -45.13358,-18.46374c-12.30916,-12.30916 -16.41221,-30.7729 -16.41221,-51.28816c0,-20.51526 6.15458,-36.92747 16.41221,-49.23663c12.30916,-12.30916 26.66984,-18.46374 45.13358,-18.46374c18.46374,0 32.82442,6.15458 45.13358,18.46374c12.30916,12.30916 16.41221,28.72137 16.41221,49.23663c2.05153,22.56679 -4.10305,38.979 -16.41221,51.28816m14.36069,-289.26522l0,139.50379c-12.30916,-18.46373 -41.03053,-36.92747 -84.11259,-36.92747c-36.92747,0 -67.70037,12.30916 -92.31868,38.979c-22.56679,26.66984 -34.87595,59.49427 -34.87595,98.47327c0,38.979 12.30916,73.85495 34.87595,100.52479c22.56679,26.66984 53.33968,38.979 92.31868,38.979c38.97901,0 67.70037,-14.36068 88.21564,-41.03053l2.05152,0l0,34.87595l82.06106,0l0,-373.3778l-88.21563,0z" id="svg_31" stroke="null"/>
    <path class="st1" d="m490.381094,1537.076171c2.05153,-28.72137 22.56679,-53.33969 55.39121,-53.33969c34.87595,0 53.33969,26.66985 55.39122,53.33969l-110.78243,0zm188.74043,20.51526c0,-38.979 -12.30916,-69.75189 -36.92748,-94.37021c-24.61831,-24.61832 -57.44273,-36.92748 -96.42174,-36.92748c-41.03052,0 -75.90647,12.30916 -102.57631,36.92748c-28.72137,24.61832 -41.03053,57.44274 -41.03053,100.52479c0,43.08206 12.30916,77.958 38.979,102.57632c26.66984,24.61832 61.54579,36.92747 102.57632,36.92747c34.87595,0 61.54579,-8.2061 82.06105,-14.36068c22.56679,-10.25763 30.7729,-16.41221 38.979,-24.61832l4.10306,-4.10305l-34.87595,-45.13358c-24.61832,16.41221 -51.28816,24.61832 -80.00953,24.61832c-36.92747,0 -63.59732,-18.46374 -67.70037,-55.39122l190.79195,0l2.05153,-26.66984z" id="svg_32" stroke="null"/>
    <path class="st1" d="m894.531794,1563.746011c-8.20611,-8.2061 -20.51527,-14.36068 -34.87595,-20.51526c-10.25763,-4.10306 -22.56679,-8.20611 -36.92748,-12.30916c-26.66984,-8.20611 -38.979,-16.41221 -38.979,-26.66984c0,-12.30916 10.25763,-18.46374 32.82443,-18.46374c10.25763,0 22.56679,2.05152 34.87594,8.2061c14.36069,6.15458 24.61832,12.30916 32.82443,18.46374l28.72136,-51.28816c-26.66984,-22.56679 -61.54579,-32.82442 -102.57631,-32.82442c-28.72137,0 -53.33969,8.2061 -71.80343,22.56679c-18.46373,14.36068 -28.72137,34.87595 -28.72137,61.54579c0,32.82442 14.36069,55.39121 45.13358,69.7519c10.25764,4.10305 22.56679,8.2061 36.92748,12.30916c0,0 14.36068,4.10305 22.56679,6.15457c4.10305,2.05153 8.2061,2.05153 12.30916,6.15458c10.25763,4.10306 14.36068,10.25764 14.36068,16.41221c0,14.36069 -12.30916,22.56679 -36.92747,22.56679c-10.25763,0 -24.61832,-4.10305 -38.979,-8.2061c-16.41221,-6.15458 -28.72137,-14.36069 -38.979,-22.56679l-32.82443,51.28816c28.72137,28.72137 65.64885,41.03053 112.83395,41.03053c34.87595,0 61.54579,-8.20611 82.06106,-22.56679c20.51526,-16.41222 30.77289,-38.97901 30.77289,-65.64885c-4.10305,-24.61831 -10.25763,-41.03053 -24.61831,-55.39121" id="svg_33" stroke="null"/>
    <path class="st1" d="m1352.022174,1586.312801c-24.61832,26.66984 -59.49427,38.979 -100.52479,38.979c-32.82443,0 -57.44274,-10.25763 -80.00953,-30.77289c-20.51527,-20.51527 -32.82442,-49.23664 -32.82442,-84.11258c0,-34.87595 10.25763,-63.59732 30.77289,-84.11259c20.51526,-20.51526 47.18511,-30.77289 80.00953,-30.77289c20.51526,0 41.03053,4.10305 59.49426,14.36068c18.46374,10.25764 30.7729,18.46374 36.92748,24.61832l26.66984,-71.80342c-8.2061,-10.25764 -24.61831,-18.46374 -45.13358,-28.72137c-22.56679,-10.25763 -49.23663,-14.36069 -82.06105,-14.36069c-55.39121,0 -102.57632,16.41221 -139.5038,53.33969c-36.92747,34.87595 -55.39121,82.06105 -55.39121,139.50379c0,59.49427 18.46374,104.62785 55.39121,141.55532c36.92748,34.87595 84.11259,51.28816 139.5038,51.28816c57.44274,0 102.57632,-16.41221 135.40074,-51.28816l-28.72137,-67.70037z" id="svg_34" stroke="null"/>
    <path class="st1" d="m1581.793124,1428.345271c-36.92748,0 -61.54579,14.36069 -77.958,43.08205l0,-55.39121l0,-88.21563l-86.16411,0l0,373.3778l86.16411,0l0,-131.29769c0,-47.18511 16.41221,-69.7519 47.1851,-69.7519c32.82443,0 41.03053,22.56679 41.03053,61.54579l0,139.5038l86.16411,0l0,-157.96753c0,-73.85495 -24.61832,-114.88548 -96.42174,-114.88548" id="svg_35" stroke="null"/>
    <path class="st1" d="m1805.409494,1537.076171c2.05153,-28.72137 22.56679,-53.33969 55.39122,-53.33969c34.87594,0 53.33968,26.66985 55.39121,53.33969l-110.78243,0zm190.79196,20.51526c0,-38.979 -12.30916,-69.75189 -36.92748,-94.37021c-24.61832,-24.61832 -57.44274,-36.92748 -96.42174,-36.92748c-41.03053,0 -75.90647,12.30916 -102.57632,36.92748c-26.66984,24.61832 -41.03052,57.44274 -41.03052,100.52479c0,43.08206 12.30916,77.958 38.979,102.57632c26.66984,24.61832 61.54579,36.92747 102.57632,36.92747c34.87594,0 61.54579,-8.2061 82.06105,-14.36068c22.56679,-10.25763 30.7729,-16.41221 38.979,-24.61832l4.10305,-4.10305l-34.87594,-45.13358c-24.61832,16.41221 -51.28816,24.61832 -80.00953,24.61832c-36.92748,0 -63.59732,-18.46374 -67.70037,-55.39122l190.79195,0l2.05153,-26.66984z" id="svg_36" stroke="null"/>
    <path class="st1" d="m2166.478134,1381.160161c10.25764,0 20.51527,2.05153 32.82443,4.10306l4.10305,-59.49427l-6.15458,-2.05152c-10.25763,-2.05153 -32.82442,-6.15458 -51.28816,-6.15458c-32.82442,0 -57.44274,10.25763 -73.85495,28.72137c-14.36068,14.36068 -22.56679,38.979 -22.56679,71.80342l0,14.36068l-34.87595,0l0,65.64885l34.87595,0l0,201.04958l88.21564,0l0,-201.04958l57.44273,0l0,-65.64885l-57.44273,0l0,-16.41221c-2.05153,-24.61831 8.2061,-34.87595 28.72137,-34.87595" id="svg_37" stroke="null"/>
    <path class="st1" d="m2410.609774,1563.746011c-8.2061,-8.2061 -20.51526,-14.36068 -34.87595,-20.51526c-10.25763,-4.10306 -22.56678,-8.20611 -36.92747,-12.30916c-26.66984,-8.20611 -38.979,-16.41221 -38.979,-26.66984c0,-12.30916 10.25763,-18.46374 32.82442,-18.46374c10.25763,0 22.56679,2.05152 34.87595,8.2061c14.36068,6.15458 24.61831,12.30916 32.82442,18.46374l28.72137,-51.28816c-26.66984,-22.56679 -61.54579,-32.82442 -102.57632,-32.82442c-28.72137,0 -53.33968,8.2061 -71.80342,22.56679c-16.41221,12.30916 -24.61832,28.72137 -26.66984,47.18511c0,0 0,0 0,2.05152c0,4.10305 0,8.20611 0,12.30916c0,32.82442 14.36068,55.39121 45.13358,69.7519c10.25763,4.10305 22.56679,8.2061 36.92747,12.30915c0,0 14.36069,4.10306 22.56679,6.15458c4.10305,2.05153 8.20611,2.05153 12.30916,6.15458c10.25763,4.10306 14.36068,10.25763 14.36068,16.41221c0,14.36069 -12.30915,22.56679 -36.92747,22.56679c-10.25763,0 -24.61832,-4.10305 -38.979,-8.2061c-16.41221,-6.15458 -28.72137,-14.36069 -38.979,-22.56679l-32.82443,51.28816c28.72137,28.72137 65.64885,41.03052 112.83395,41.03052c34.87595,0 61.5458,-8.2061 82.06106,-22.56679c20.51526,-16.41221 30.7729,-38.979 30.7729,-65.64884c-6.15458,-24.61832 -12.30916,-41.03053 -26.66985,-55.39121" id="svg_38" stroke="null"/>
    <g id="svg_39" stroke="null">
     <polygon class="st1" points="100.59103393554688,808.7837724685669 100.59103393554688,1182.161702156067 316.0013732910156,1182.161702156067 316.0013732910156,1110.3583574295044 186.7550506591797,1110.3583574295044 186.7550506591797,808.7837724685669 " id="svg_40" stroke="null"/>
     <g id="svg_41" stroke="null">
      <path class="st1" d="m533.463154,1110.358681c-6.15458,12.30916 -22.56679,24.61832 -45.13358,24.61832c-24.61832,0 -41.03053,-12.30916 -41.03053,-32.82442c0,-20.51527 14.36068,-30.7729 43.08205,-32.82442l43.08206,-2.05153l0,43.08205zm55.39121,-168.22516c-22.56679,-20.51526 -55.39121,-30.77289 -100.52479,-30.77289c-38.979,0 -77.95801,8.2061 -114.88548,26.66984l22.56679,55.39121c16.41221,-12.30916 51.28816,-24.61832 82.06105,-24.61832c36.92748,0 55.39122,14.36069 55.39122,43.08206l0,6.15458l-67.70037,2.05152c-36.92748,2.05153 -65.64885,10.25764 -88.21564,34.87595c-10.25763,12.30916 -16.41221,26.66985 -16.41221,47.18511c0,26.66984 10.25763,49.23663 28.72137,63.59731c18.46374,14.36069 41.03053,22.5668 67.70037,22.5668c26.66984,0 51.28816,-12.30916 61.54579,-20.51527c4.10305,-4.10305 10.25763,-8.2061 16.41221,-14.36068l2.05153,28.72136l82.06105,0l0,-149.76142c0,-38.979 -10.25763,-69.7519 -30.77289,-90.26716" id="svg_42" stroke="null"/>
     </g>
     <g id="svg_43" stroke="null">
      <path class="st1" d="m908.892474,1182.162111l88.21564,0l0,-270.80148l-88.21564,0l0,270.80148zm-96.42174,-305.67743l281.05912,0l0,-65.64885l-281.05912,0l0,65.64885z" id="svg_44" stroke="null"/>
      <g id="svg_45" stroke="null">
       <path class="st1" d="m1224.827534,1110.358681c-6.15458,12.30916 -22.56679,24.61832 -45.13358,24.61832c-24.61831,0 -41.03052,-12.30916 -41.03052,-32.82442c0,-20.51527 14.36068,-30.7729 43.08205,-32.82442l43.08205,-2.05153l0,43.08205zm55.39121,-168.22516c-22.56679,-20.51526 -55.39121,-30.77289 -100.52479,-30.77289c-41.03052,0 -77.958,8.2061 -114.88548,26.66984l22.56679,55.39121c16.41222,-12.30916 51.28816,-24.61832 82.06106,-24.61832c36.92747,0 55.39121,14.36069 55.39121,43.08206l0,6.15458l-67.70037,2.05152c-36.92747,2.05153 -65.64884,10.25764 -88.21563,34.87595c-10.25763,12.30916 -16.41221,26.66985 -16.41221,47.18511c0,26.66984 10.25763,49.23663 28.72137,63.59731c18.46373,14.36069 41.03052,22.5668 67.70037,22.5668c26.66984,0 51.28815,-12.30916 61.54579,-20.51527c4.10305,-4.10305 10.25763,-8.2061 16.41221,-14.36068l2.05152,28.72136l82.06106,0l0,-149.76142c2.05152,-38.979 -10.25763,-69.7519 -30.7729,-90.26716" id="svg_46" stroke="null"/>
      </g>
      <rect x="1708.987759" y="808.784308" class="st1" width="86.164108" height="373.377799" id="svg_47" stroke="null"/>
      <g id="svg_48" stroke="null">
       <rect x="1875.161395" y="808.784308" class="st1" width="209.25569" height="65.648844" id="svg_49" stroke="null"/>
       <path class="st1" d="m1928.501084,1022.143051c2.05152,-28.72137 22.56679,-53.33969 55.39121,-53.33969c34.87595,0 53.33969,26.66985 55.39121,53.33969l-110.78242,0zm190.79195,20.51526c0,-38.979 -12.30916,-69.75189 -36.92748,-94.37021c-24.61831,-24.61832 -57.44273,-36.92747 -96.42173,-36.92747c-41.03053,0 -75.90648,12.30915 -102.57632,36.92747c-26.66985,24.61832 -41.03053,57.44274 -41.03053,100.52479c0,43.08206 12.30916,77.958 38.979,102.57632c26.66984,24.61832 61.54579,36.92748 102.57632,36.92748c34.87595,0 61.54579,-8.20611 82.06105,-14.36069c22.56679,-10.25763 30.7729,-16.41221 38.97901,-24.61831l4.10305,-4.10306l-34.87595,-45.13358c-24.61832,16.41221 -51.28816,24.61832 -80.00953,24.61832c-36.92747,0 -63.59732,-18.46374 -67.70037,-55.39121l190.79195,0l2.05153,-26.66985z" id="svg_50" stroke="null"/>
      </g>
      <path class="st1" d="m2240.333084,1022.143051c2.05153,-28.72137 22.56679,-53.33969 55.39122,-53.33969c34.87594,0 53.33968,26.66985 55.39121,53.33969l-110.78243,0zm190.79196,20.51526c0,-38.979 -12.30916,-69.75189 -36.92748,-94.37021c-24.61831,-24.61832 -57.44274,-36.92747 -96.42174,-36.92747c-41.03052,0 -75.90647,12.30915 -102.57631,36.92747c-28.72137,24.61832 -41.03053,57.44274 -41.03053,100.52479c0,43.08206 12.30916,77.958 38.979,102.57632c26.66984,24.61832 61.54579,36.92748 102.57632,36.92748c34.87595,0 61.54579,-8.20611 82.06105,-14.36069c22.56679,-10.25763 30.7729,-16.41221 38.979,-24.61831l4.10306,-4.10306l-34.87595,-45.13358c-24.61832,16.41221 -51.28816,24.61832 -80.00953,24.61832c-36.92747,0 -63.59732,-18.46374 -67.70037,-55.39121l190.79195,0l2.05153,-26.66985z" id="svg_51" stroke="null"/>
      <path class="st1" d="m1559.226334,1098.049531c-12.30916,12.30915 -26.66984,18.46373 -45.13358,18.46373c-18.46374,0 -34.87595,-6.15458 -45.13358,-18.46373c-12.30916,-12.30916 -16.41221,-30.7729 -16.41221,-51.28816c0,-20.51527 6.15458,-36.92748 16.41221,-49.23664c12.30916,-12.30915 26.66984,-18.46373 45.13358,-18.46373c18.46374,0 32.82442,6.15458 45.13358,18.46373c12.30916,12.30916 16.41221,28.72137 16.41221,49.23664c0,22.56679 -6.15458,38.979 -16.41221,51.28816m69.7519,-147.7099c-22.56679,-26.66985 -53.33969,-38.979 -90.26716,-38.979c-41.03053,0 -69.7519,16.41221 -84.11258,36.92747l-2.05153,0l2.05153,-49.23663l0,-90.26716l-86.16411,0l0,373.3778l82.06105,0l0,-34.87595l0,0c18.46374,28.72137 49.23664,41.03053 88.21564,41.03053c36.92747,0 67.70037,-12.30916 92.31868,-38.97901c22.56679,-26.66984 34.87595,-59.49426 34.87595,-100.52479c-2.05152,-38.979 -12.30916,-71.80342 -36.92747,-98.47326" id="svg_52" stroke="null"/>
     </g>
    </g>
   </g>
  </g>
 </g>
</svg>