<svg width="1500" height="1500" xmlns="http://www.w3.org/2000/svg">
 <style type="text/css">.st0{fill:#F04A26;}
	.st1{fill:#595A5C;}</style>

 <g stroke="null">
  <title>background</title>
  <rect x="-1" y="-1" width="1502" height="1502" id="canvas_background" fill="none" stroke="null"/>
 </g>
 <g stroke="null">
  <title>Layer 1</title>
  <g id="svg_1" stroke="null">
   <g id="svg_53" stroke="null">
    <g stroke="null" id="svg_2">
     <path stroke="null" class="st1" d="m731.253921,850.390703c-20.020525,20.020525 -43.377793,30.030787 -73.408579,30.030787c-30.030787,0 -56.724814,-10.010262 -73.408579,-30.030787c-20.020525,-20.020525 -26.694027,-50.051312 -26.694027,-83.418842c0,-33.36753 10.010262,-60.061558 26.694027,-80.082082c20.020525,-20.020525 43.377793,-30.030787 73.408579,-30.030787c30.030787,0 53.388055,10.010262 73.408579,30.030787c20.020525,20.020525 26.694027,46.714552 26.694027,80.082082c3.33676,36.70429 -6.673503,63.398317 -26.694027,83.418842m23.357284,-470.482264l0,226.899241c-20.020525,-30.030771 -66.735077,-60.061558 -136.806913,-60.061558c-60.061558,0 -110.112869,20.020525 -150.153902,63.398317c-36.70429,43.377793 -56.724814,96.765864 -56.724814,160.164181c0,63.398317 20.020525,120.123132 56.724814,163.500924c36.70429,43.377793 86.755585,63.398317 150.153902,63.398317c63.398333,0 110.112869,-23.357268 143.480416,-66.735077l3.336743,0l0,56.724814l133.470153,0l0,-607.289161l-143.480399,0z" id="svg_31"/>
     <path stroke="null" class="st1" d="m1436.028204,800.42323c-40.041049,43.377793 -96.765864,63.398317 -163.500924,63.398317c-53.388071,0 -93.429104,-16.683765 -130.133394,-50.051295c-33.367546,-33.367546 -53.388055,-80.082099 -53.388055,-136.806897c0,-56.724814 16.683765,-103.439366 50.051295,-136.806913c33.36753,-33.36753 76.745339,-50.051295 130.133394,-50.051295c33.36753,0 66.735077,6.673503 96.765847,23.357268c30.030787,16.683781 50.051312,30.030787 60.061574,40.041049l43.377793,-116.786372c-13.347006,-16.683781 -40.041033,-30.030787 -73.408579,-46.714552c-36.70429,-16.683765 -80.082082,-23.357284 -133.470137,-23.357284c-90.092345,0 -166.837684,26.694027 -226.899258,86.755601c-60.061558,56.724814 -90.092345,133.470137 -90.092345,226.899241c0,96.765864 30.030787,170.174443 90.092345,230.236001c60.061574,56.724814 136.806913,83.418842 226.899258,83.418842c93.429104,0 166.837684,-26.694027 220.225738,-83.418842l-46.714552,-110.112869z" id="svg_34"/>
     <g stroke="null" id="svg_39">
      <g stroke="null" id="svg_41"/>
      <g stroke="null" id="svg_43">
       <path stroke="null" class="st1" d="m175.304525,985.589329l143.480416,0l0,-440.451477l-143.480416,0l0,440.451477zm-156.827421,-497.176291l457.135258,0l0,-106.776126l-457.135258,0l0,106.776126z" id="svg_44"/>
       <g stroke="null" id="svg_48"/>
      </g>
     </g>
    </g>
   </g>
  </g>
 </g>
</svg>