<svg id="svg" version="1.1" width="400" height="400" viewBox="0 0 400 400" xmlns="http://www.w3.org/2000/svg" xmlns:xlink="http://www.w3.org/1999/xlink" ><g id="svgg"><path id="path0" d="M113.516 66.357 C 112.700 66.529,111.350 67.120,110.516 67.670 C 109.682 68.221,108.550 68.946,108.000 69.281 C 107.450 69.616,106.217 71.388,105.261 73.218 C 102.471 78.555,103.182 83.178,107.594 88.400 C 108.760 89.780,110.839 92.637,111.800 94.180 C 112.240 94.887,113.089 96.081,113.687 96.833 C 114.286 97.585,115.366 98.970,116.087 99.910 C 116.809 100.851,117.869 102.201,118.441 102.910 C 119.014 103.620,119.964 104.920,120.553 105.800 C 122.892 109.297,123.577 110.248,124.585 111.400 C 125.163 112.060,126.520 113.860,127.601 115.400 C 130.113 118.979,131.456 120.800,133.200 122.990 C 134.585 124.729,135.200 125.606,137.622 129.300 C 138.308 130.345,139.030 131.200,139.226 131.200 C 139.423 131.200,139.946 131.910,140.389 132.779 C 140.832 133.647,141.431 134.502,141.719 134.679 C 142.008 134.855,142.672 135.720,143.196 136.600 C 143.720 137.480,144.571 138.740,145.089 139.400 C 145.607 140.060,146.698 141.448,147.515 142.484 C 149.972 145.602,153.507 150.431,154.600 152.163 C 155.040 152.861,155.796 153.820,156.279 154.295 C 156.762 154.769,157.320 155.842,157.518 156.679 C 157.716 157.516,158.200 159.460,158.592 161.000 C 158.985 162.540,159.494 164.610,159.724 165.600 C 160.602 169.387,160.248 197.313,159.271 201.400 C 158.797 203.380,158.122 206.800,157.770 209.000 C 157.406 211.271,156.626 214.153,155.965 215.667 C 154.717 218.524,154.442 221.088,155.347 221.435 C 156.016 221.692,159.577 219.351,159.887 218.450 C 160.011 218.093,160.606 216.630,161.210 215.200 C 161.813 213.770,162.518 211.114,162.776 209.298 C 163.034 207.482,163.593 204.983,164.019 203.744 C 165.180 200.369,165.599 194.314,165.600 180.900 C 165.600 169.292,165.633 168.767,166.408 167.992 L 167.216 167.184 169.031 168.196 C 170.028 168.753,171.330 169.563,171.922 169.995 C 173.110 170.860,181.646 172.400,185.258 172.400 C 188.184 172.400,190.491 173.816,191.812 176.424 C 192.623 178.024,193.423 178.809,195.910 180.444 L 199.000 182.476 203.709 182.275 C 209.492 182.029,209.502 182.035,210.141 186.200 C 210.571 189.011,212.433 192.896,214.193 194.656 C 221.906 202.369,236.203 197.680,237.086 187.148 C 237.424 183.111,237.979 182.553,241.888 182.314 C 245.296 182.107,249.943 180.078,251.141 178.275 C 251.461 177.794,252.140 176.945,252.650 176.390 C 254.717 174.139,254.554 163.200,252.454 163.200 C 252.278 163.200,251.881 162.724,251.570 162.143 C 251.258 161.562,250.328 160.660,249.502 160.138 C 246.510 158.249,247.945 154.246,252.800 150.932 C 256.258 148.572,262.131 143.922,265.595 140.800 C 271.828 135.182,271.747 135.048,271.444 150.397 C 271.316 156.889,271.164 162.920,271.106 163.800 C 270.909 166.777,274.177 165.888,275.845 162.511 C 276.797 160.583,277.171 140.999,276.418 132.538 C 276.048 128.384,276.054 126.909,276.449 125.538 C 277.405 122.217,277.168 110.066,276.115 108.400 C 275.628 107.630,274.788 106.190,274.248 105.200 C 273.708 104.210,272.891 103.087,272.433 102.704 C 271.210 101.682,271.411 100.802,273.306 98.894 C 274.238 97.955,275.941 96.245,277.091 95.094 C 281.121 91.060,282.200 89.163,281.286 87.725 C 279.900 85.546,266.262 85.059,260.716 86.991 C 257.827 87.997,257.518 87.651,256.824 82.635 C 256.370 79.352,255.766 78.545,254.164 79.079 C 252.035 79.788,251.522 81.028,251.990 84.330 C 252.771 89.835,251.394 94.832,249.483 93.425 C 248.997 93.067,247.700 92.325,246.600 91.777 C 245.500 91.228,243.970 90.379,243.200 89.889 C 241.116 88.565,231.819 88.554,229.400 89.872 C 228.520 90.352,227.024 91.115,226.075 91.569 C 224.380 92.379,220.406 95.866,220.402 96.547 C 220.401 96.738,219.868 97.500,219.218 98.241 C 218.568 98.981,217.816 100.320,217.548 101.217 C 217.279 102.114,216.350 103.653,215.482 104.639 L 213.905 106.430 210.010 106.162 C 202.859 105.669,201.375 106.140,197.609 110.100 C 196.825 110.925,195.887 111.600,195.525 111.600 C 194.524 111.600,191.806 108.266,191.225 106.324 C 190.941 105.377,190.189 104.010,189.554 103.287 C 188.919 102.564,188.400 101.791,188.400 101.569 C 188.400 100.838,184.706 97.200,183.964 97.200 C 182.872 97.200,181.200 98.061,181.200 98.624 C 181.200 99.169,183.634 102.932,184.806 104.200 C 185.213 104.640,185.894 105.813,186.318 106.806 C 186.743 107.799,187.369 108.843,187.710 109.125 C 188.051 109.408,188.550 110.576,188.819 111.720 C 189.087 112.864,189.546 114.272,189.838 114.849 C 191.545 118.228,190.770 119.366,186.819 119.282 C 184.323 119.229,182.793 119.471,179.585 120.424 L 175.516 121.633 173.307 119.916 C 172.093 118.972,170.717 117.937,170.250 117.616 C 169.782 117.294,168.809 116.529,168.086 115.916 C 167.363 115.302,166.463 114.799,166.086 114.799 C 163.778 114.793,160.785 109.963,159.837 104.712 C 159.689 103.893,159.151 102.723,158.640 102.112 C 158.130 101.500,157.425 100.440,157.075 99.755 C 156.064 97.784,148.027 90.063,145.736 88.863 C 144.403 88.165,143.307 86.062,142.661 82.964 C 142.319 81.321,141.556 79.328,140.836 78.193 C 140.156 77.121,139.600 76.053,139.600 75.820 C 139.600 75.587,138.682 74.497,137.561 73.398 C 136.440 72.299,135.135 71.021,134.661 70.558 C 134.187 70.095,132.900 69.269,131.800 68.721 C 130.700 68.174,129.170 67.391,128.400 66.981 C 126.861 66.162,116.512 65.728,113.516 66.357 M124.814 71.003 C 128.003 71.674,129.010 72.301,132.558 75.828 C 135.943 79.193,137.085 80.920,137.616 83.476 C 137.867 84.686,138.329 86.289,138.642 87.038 C 138.955 87.788,139.479 89.673,139.806 91.227 C 140.675 95.358,140.945 95.752,142.395 95.002 C 144.104 94.119,145.026 94.257,146.400 95.600 C 147.075 96.260,147.758 96.800,147.917 96.800 C 148.209 96.800,151.053 100.101,153.229 102.966 C 153.883 103.828,154.524 104.998,154.653 105.566 C 154.782 106.135,155.416 107.710,156.061 109.067 C 156.981 111.001,157.350 112.583,157.766 116.383 C 158.382 121.998,158.377 121.987,159.786 120.578 C 161.005 119.359,163.341 119.421,165.143 120.720 C 165.661 121.094,166.673 121.760,167.392 122.200 C 169.672 123.597,172.400 126.526,172.792 128.000 C 172.997 128.770,173.457 130.833,173.816 132.585 C 174.569 136.265,175.291 137.843,176.746 138.985 C 177.317 139.433,178.214 140.169,178.739 140.620 L 179.695 141.440 178.605 143.620 C 178.006 144.819,176.989 146.354,176.346 147.031 C 173.803 149.709,173.344 160.944,175.683 163.283 C 177.724 165.324,174.511 165.832,171.460 163.950 C 169.033 162.453,164.921 157.940,162.600 154.224 C 161.755 152.872,160.587 151.317,158.586 148.879 C 157.918 148.065,156.878 146.680,156.275 145.800 C 153.873 142.299,153.191 141.368,152.467 140.600 C 152.052 140.160,151.378 139.215,150.970 138.500 C 150.561 137.785,150.099 137.200,149.943 137.200 C 149.786 137.200,149.024 136.156,148.248 134.879 C 147.473 133.603,146.470 132.225,146.019 131.817 C 145.569 131.410,145.200 130.901,145.200 130.686 C 145.200 130.472,144.615 129.612,143.900 128.776 C 143.185 127.939,142.096 126.568,141.481 125.727 C 140.866 124.887,139.786 123.414,139.081 122.452 C 138.376 121.491,137.440 120.140,137.000 119.449 C 136.560 118.758,135.750 117.733,135.200 117.171 C 134.650 116.609,133.887 115.621,133.505 114.975 C 133.123 114.329,132.004 112.720,131.019 111.400 C 130.034 110.080,128.771 108.370,128.212 107.600 C 127.653 106.830,126.379 105.120,125.381 103.800 C 124.384 102.480,123.260 100.881,122.884 100.246 C 122.508 99.611,121.705 98.569,121.100 97.932 C 120.495 97.294,120.000 96.599,120.000 96.387 C 120.000 96.176,119.407 95.327,118.682 94.501 C 117.957 93.676,117.050 92.550,116.666 92.000 C 116.283 91.450,115.164 89.920,114.179 88.600 C 113.195 87.280,112.077 85.682,111.695 85.050 C 111.313 84.417,110.581 83.385,110.069 82.755 C 107.928 80.124,108.126 76.881,110.596 74.138 C 111.358 73.292,111.986 72.487,111.991 72.349 C 112.047 70.835,120.032 69.997,124.814 71.003 M272.833 89.821 C 274.306 90.731,272.813 93.982,270.400 95.118 C 269.850 95.377,268.892 95.996,268.271 96.494 C 265.962 98.346,257.159 97.653,257.205 95.624 C 257.270 92.746,269.949 88.038,272.833 89.821 M241.037 94.701 C 243.572 96.134,244.952 97.028,246.159 98.020 C 250.777 101.815,255.031 103.165,262.452 103.193 C 266.241 103.207,271.261 107.430,271.863 111.110 C 272.676 116.079,271.998 123.302,270.514 125.489 C 269.950 126.319,269.288 127.582,269.041 128.294 C 268.204 130.712,261.540 138.143,257.211 141.487 C 254.032 143.943,251.211 143.459,251.194 140.456 C 251.191 139.875,250.966 139.014,250.694 138.542 C 249.044 135.674,246.891 133.053,245.173 131.819 C 242.899 130.185,242.857 129.958,244.018 125.600 C 244.913 122.239,244.851 121.657,243.106 117.083 C 240.391 109.966,235.401 107.763,224.708 108.962 C 222.022 109.263,221.584 109.224,221.368 108.660 C 221.078 107.906,222.639 103.771,223.655 102.600 C 224.036 102.160,224.855 101.054,225.474 100.142 C 229.050 94.874,236.646 92.218,241.037 94.701 M210.244 110.991 C 213.551 111.973,215.200 114.462,215.200 118.473 C 215.200 120.399,214.345 123.158,213.720 123.245 C 213.286 123.305,203.693 123.682,202.227 123.696 C 200.713 123.711,199.772 122.543,199.423 120.214 C 198.384 113.286,203.445 108.972,210.244 110.991 M234.701 113.996 C 239.167 115.917,241.519 122.765,238.975 126.436 C 237.569 128.465,237.147 128.682,233.980 129.007 C 232.513 129.158,230.507 129.710,229.330 130.286 C 226.496 131.675,224.965 131.365,222.863 128.976 C 215.470 120.578,224.231 109.492,234.701 113.996 M189.103 125.099 C 192.813 127.636,193.184 132.746,189.885 135.863 C 184.263 141.174,174.977 134.482,178.770 127.852 C 181.371 123.307,185.050 122.326,189.103 125.099 M215.031 129.668 C 219.857 132.775,221.010 134.579,220.649 138.461 C 220.263 142.609,218.804 144.374,214.400 146.017 C 212.584 146.695,209.440 149.738,208.576 151.654 C 207.180 154.750,204.470 155.118,201.270 152.649 C 193.609 146.737,193.450 136.282,200.940 130.894 C 204.436 128.379,204.360 128.403,208.831 128.401 C 212.903 128.400,213.137 128.448,215.031 129.668 M240.925 134.568 C 249.169 138.173,249.039 151.046,240.718 155.202 L 238.435 156.342 236.776 154.671 C 235.864 153.752,234.805 152.325,234.423 151.501 C 233.474 149.452,230.438 146.676,228.218 145.828 C 223.037 143.850,225.735 135.221,231.854 134.194 C 232.704 134.051,233.580 133.862,233.800 133.774 C 234.592 133.455,239.678 134.022,240.925 134.568 M190.883 146.044 C 191.258 146.245,191.683 147.038,191.828 147.806 C 191.972 148.574,192.609 149.857,193.245 150.656 C 193.880 151.456,194.400 152.274,194.400 152.475 C 194.400 152.676,195.055 153.441,195.855 154.174 C 196.998 155.221,197.258 155.710,197.068 156.453 C 196.820 157.423,193.785 160.800,193.162 160.800 C 192.972 160.800,192.472 161.475,192.051 162.300 C 188.662 168.940,178.400 163.838,178.400 155.513 C 178.400 148.746,185.652 143.245,190.883 146.044 M226.588 150.175 C 230.744 152.933,232.000 155.063,232.000 159.353 C 232.000 170.394,216.207 173.797,211.767 163.713 C 210.509 160.856,211.091 155.309,212.830 153.570 C 213.254 153.146,213.600 152.626,213.600 152.412 C 213.600 151.912,217.894 149.084,219.200 148.725 C 221.415 148.114,224.353 148.691,226.588 150.175 M119.000 159.472 C 112.528 160.924,110.501 162.370,108.140 167.224 C 106.829 169.919,106.667 170.624,106.429 174.696 C 106.169 179.136,106.148 179.209,104.783 180.618 L 103.400 182.044 103.400 185.926 L 103.400 189.808 105.000 191.743 C 106.698 193.797,109.462 195.315,112.793 196.022 C 113.787 196.233,115.017 196.501,115.526 196.617 C 117.317 197.026,117.717 199.032,117.399 206.019 C 116.997 214.867,117.253 215.869,120.918 219.750 C 122.503 221.429,124.097 222.802,124.460 222.801 C 124.823 222.801,126.083 223.248,127.260 223.796 C 134.598 227.212,144.743 221.085,145.930 212.521 C 146.206 210.524,146.169 208.851,145.797 206.524 C 145.134 202.387,144.928 202.005,141.293 198.207 C 140.437 197.312,139.706 195.903,139.171 194.121 C 138.723 192.624,138.277 191.163,138.181 190.874 C 138.084 190.584,138.910 189.390,140.016 188.221 C 142.336 185.768,144.335 182.128,144.665 179.755 C 145.204 175.879,141.076 170.019,137.068 168.969 C 135.800 168.637,134.768 168.083,134.400 167.537 C 130.249 161.370,124.338 158.275,119.000 159.472 M292.506 159.827 C 288.624 160.678,286.276 162.483,282.514 167.509 C 281.893 168.338,281.155 168.769,280.054 168.945 C 278.195 169.242,275.365 171.442,274.200 173.496 C 273.760 174.271,273.178 175.287,272.906 175.753 C 271.248 178.596,273.558 185.547,277.043 188.206 C 279.064 189.747,278.701 194.949,276.402 197.400 C 272.056 202.031,272.278 201.677,271.426 205.350 C 269.576 213.329,272.599 220.521,278.776 222.832 C 279.994 223.287,281.245 223.871,281.555 224.129 C 284.429 226.514,294.716 222.727,297.592 218.225 C 298.023 217.551,298.695 216.559,299.087 216.021 C 299.718 215.154,299.800 214.062,299.800 206.564 C 299.800 196.818,299.857 196.641,303.146 196.169 C 309.986 195.186,314.000 191.481,314.000 186.153 C 314.000 183.573,313.582 182.091,312.569 181.078 C 311.185 179.694,310.733 178.217,310.403 174.000 C 310.031 169.252,308.236 164.548,306.376 163.449 C 305.729 163.067,305.200 162.589,305.200 162.387 C 305.200 160.392,297.245 158.788,292.506 159.827 M204.754 162.176 C 209.964 164.870,211.347 173.391,207.087 176.550 C 205.216 177.938,197.600 177.831,197.600 176.417 C 197.600 176.241,196.904 175.379,196.054 174.503 C 190.804 169.094,198.111 158.741,204.754 162.176 M244.777 162.793 C 253.431 165.275,249.596 178.770,240.619 177.424 C 238.834 177.156,238.578 176.960,235.928 173.833 C 231.432 168.528,237.664 160.753,244.777 162.793 M123.862 164.996 C 126.450 165.765,128.531 167.782,129.384 170.352 C 130.211 172.841,130.544 173.110,133.445 173.626 C 136.975 174.254,136.998 174.267,138.346 176.437 C 140.537 179.961,139.463 182.319,134.446 185.000 C 131.864 186.379,131.596 187.134,132.401 190.749 C 133.011 193.491,132.384 194.249,129.056 194.791 C 127.787 194.997,126.126 195.551,125.365 196.021 L 123.982 196.876 122.430 195.324 C 121.441 194.335,120.708 193.122,120.412 191.985 C 120.156 191.003,119.771 189.525,119.558 188.700 C 119.166 187.186,118.275 186.706,117.861 187.785 C 117.295 189.261,112.868 190.881,111.485 190.119 C 108.993 188.745,108.400 187.985,108.400 186.163 C 108.400 183.820,108.657 183.331,110.409 182.347 C 112.944 180.922,113.604 179.205,112.438 177.070 C 110.782 174.038,111.876 169.312,114.980 166.090 C 116.248 164.774,121.102 164.176,123.862 164.996 M300.541 165.533 C 304.508 167.287,306.505 173.197,304.440 177.071 C 303.324 179.166,303.862 180.516,306.552 182.367 C 309.897 184.668,309.749 187.699,306.192 189.784 L 304.365 190.854 302.482 189.968 C 301.447 189.480,300.125 188.643,299.544 188.108 C 298.348 187.006,298.281 187.064,297.233 190.092 C 295.393 195.410,293.472 197.447,291.601 196.064 C 290.923 195.563,289.363 194.989,288.134 194.789 C 285.226 194.316,283.837 193.430,284.178 192.266 C 285.692 187.094,285.546 186.376,282.714 185.036 C 276.052 181.885,275.997 174.659,282.627 173.822 C 285.685 173.435,286.469 172.861,287.852 169.995 C 290.359 164.800,295.109 163.130,300.541 165.533 M226.703 176.430 C 233.997 178.893,235.046 188.143,228.540 192.624 C 221.703 197.333,211.140 188.792,215.101 181.758 C 217.470 177.550,217.822 177.248,221.600 176.168 C 223.992 175.485,223.888 175.479,226.703 176.430 M265.214 188.372 C 264.322 190.146,263.390 192.538,263.144 193.686 C 262.898 194.834,262.283 196.410,261.778 197.187 C 261.273 197.964,260.666 199.342,260.428 200.248 C 260.191 201.154,259.631 202.361,259.183 202.931 C 258.735 203.500,258.013 205.000,257.578 206.264 C 257.143 207.528,256.434 208.938,256.002 209.398 C 255.570 209.858,255.008 210.857,254.753 211.617 C 254.498 212.378,253.864 213.573,253.345 214.273 C 252.105 215.944,252.736 217.027,255.712 218.337 C 256.258 218.578,258.856 215.468,259.669 213.600 C 260.101 212.610,260.780 211.440,261.178 211.000 C 261.576 210.560,262.123 209.480,262.394 208.600 C 262.664 207.720,263.315 206.362,263.840 205.583 C 264.365 204.804,265.080 203.202,265.430 202.025 C 265.779 200.847,266.484 199.235,266.996 198.442 C 267.508 197.649,268.044 196.370,268.188 195.600 C 268.332 194.830,268.713 193.300,269.035 192.200 C 269.593 190.291,269.575 190.091,268.634 187.808 C 267.310 184.598,267.094 184.634,265.214 188.372 M135.004 200.402 C 140.950 202.662,143.119 212.464,138.558 216.465 C 130.897 223.186,120.698 217.344,122.457 207.243 C 123.386 201.908,129.787 198.418,135.004 200.402 M289.844 201.041 C 293.867 203.732,294.801 205.362,294.798 209.687 C 294.787 221.818,277.362 222.797,276.132 210.736 C 275.868 208.150,276.898 204.233,278.096 203.262 C 278.546 202.898,279.473 202.131,280.157 201.559 C 282.538 199.564,287.259 199.312,289.844 201.041 M238.595 215.609 C 236.813 218.491,239.808 231.387,243.945 238.648 C 244.737 240.038,247.907 243.867,250.087 246.066 C 254.252 250.266,255.543 251.228,260.732 254.000 C 262.173 254.770,263.892 256.077,264.550 256.905 L 265.748 258.410 264.866 259.505 C 264.381 260.107,263.652 261.323,263.247 262.206 C 262.841 263.089,262.222 264.050,261.870 264.342 C 261.518 264.634,260.863 265.854,260.414 267.054 C 259.965 268.253,259.251 269.722,258.827 270.317 C 258.404 270.913,257.770 272.555,257.419 273.967 C 257.069 275.379,256.432 277.100,256.005 277.792 C 255.577 278.484,254.962 280.693,254.637 282.702 C 254.312 284.711,253.663 287.580,253.194 289.077 C 251.189 295.483,251.276 316.594,253.342 324.800 C 253.869 326.890,254.426 329.692,254.580 331.026 C 255.093 335.451,256.027 335.502,257.040 331.160 C 257.368 329.755,257.969 328.041,258.375 327.352 C 258.782 326.663,259.420 325.042,259.793 323.750 C 260.166 322.457,260.735 321.105,261.057 320.745 C 261.379 320.385,262.001 319.148,262.438 317.996 C 262.876 316.844,263.676 315.322,264.217 314.613 C 264.758 313.904,265.200 313.135,265.200 312.902 C 265.200 312.670,265.850 311.517,266.645 310.340 C 267.439 309.163,268.255 307.768,268.457 307.240 C 268.660 306.712,269.283 305.722,269.841 305.040 C 270.930 303.710,272.062 302.106,274.006 299.135 C 275.758 296.456,279.074 295.448,280.043 297.300 C 281.003 299.135,287.602 306.145,291.911 309.906 C 292.852 310.728,294.107 311.895,294.700 312.500 C 295.293 313.105,295.938 313.600,296.134 313.600 C 296.330 313.600,297.568 314.410,298.885 315.400 C 300.202 316.390,301.463 317.200,301.687 317.200 C 301.911 317.200,302.709 317.740,303.461 318.400 C 304.213 319.060,305.056 319.600,305.336 319.600 C 305.615 319.600,306.712 320.151,307.773 320.824 C 308.835 321.497,310.445 322.344,311.351 322.706 C 312.258 323.068,313.610 323.777,314.356 324.282 C 315.102 324.787,316.013 325.200,316.382 325.200 C 316.751 325.200,318.469 325.920,320.200 326.800 C 322.579 328.009,323.818 328.400,325.274 328.400 C 327.631 328.400,327.649 328.150,325.500 325.356 C 324.565 324.141,323.383 322.573,322.874 321.873 C 322.365 321.173,321.619 320.240,321.218 319.800 C 320.817 319.360,320.022 318.068,319.452 316.928 C 318.882 315.789,318.237 314.746,318.019 314.612 C 317.801 314.477,317.249 313.522,316.792 312.488 C 316.335 311.455,315.635 310.248,315.236 309.805 C 314.837 309.362,314.300 308.370,314.042 307.600 C 313.784 306.830,313.142 305.549,312.616 304.754 C 312.090 303.958,311.453 302.518,311.200 301.554 C 310.947 300.589,310.302 299.126,309.767 298.303 C 309.231 297.480,308.597 295.860,308.357 294.703 C 308.117 293.546,307.504 291.874,306.994 290.987 C 306.485 290.100,305.778 287.968,305.423 286.249 C 305.068 284.530,304.423 282.430,303.991 281.582 C 303.558 280.734,302.937 278.186,302.609 275.920 C 302.282 273.654,301.654 270.669,301.214 269.286 C 299.929 265.251,299.511 259.201,299.387 242.855 C 299.261 226.206,299.235 226.027,297.193 227.744 C 296.503 228.325,295.729 228.800,295.473 228.800 C 295.217 228.800,293.655 229.468,292.004 230.284 L 289.000 231.769 281.800 231.925 C 273.802 232.099,269.541 231.667,267.197 230.445 C 266.338 229.997,264.513 229.340,263.141 228.985 C 261.770 228.630,260.222 228.004,259.702 227.594 C 259.181 227.184,257.886 226.561,256.824 226.208 C 255.763 225.855,254.576 225.215,254.187 224.785 C 253.797 224.355,252.561 223.552,251.439 223.000 C 249.105 221.852,245.952 219.695,245.480 218.923 C 245.304 218.635,244.584 218.109,243.880 217.753 C 243.176 217.397,242.240 216.791,241.800 216.406 C 240.796 215.527,238.932 215.063,238.595 215.609 M175.155 216.254 C 174.856 216.614,173.979 217.337,173.206 217.860 C 172.433 218.384,170.720 219.618,169.400 220.603 C 168.080 221.587,166.280 222.765,165.400 223.221 C 164.520 223.676,163.181 224.492,162.424 225.035 C 161.667 225.579,160.587 226.129,160.024 226.258 C 159.461 226.387,158.342 226.934,157.538 227.474 C 156.734 228.014,155.032 228.729,153.755 229.062 C 152.479 229.395,150.767 230.009,149.950 230.425 C 147.476 231.688,143.217 232.113,135.200 231.898 L 127.800 231.699 124.200 230.000 C 122.220 229.065,120.193 227.929,119.695 227.476 C 117.958 225.893,117.788 226.782,117.925 236.722 C 118.073 247.533,117.413 262.050,116.620 265.400 C 115.247 271.207,114.843 273.189,114.439 276.108 C 114.202 277.817,113.644 279.930,113.198 280.804 C 112.753 281.677,112.133 283.727,111.820 285.361 C 111.508 286.994,110.854 289.110,110.367 290.064 C 109.881 291.017,109.245 292.816,108.955 294.061 C 108.664 295.306,107.971 296.997,107.413 297.818 C 106.856 298.640,106.400 299.631,106.400 300.022 C 106.400 300.412,105.680 302.091,104.800 303.752 C 103.920 305.413,103.200 307.013,103.200 307.308 C 103.200 307.603,102.732 308.465,102.161 309.222 C 101.589 309.980,100.775 311.388,100.353 312.352 C 99.930 313.315,99.138 314.634,98.592 315.282 C 98.046 315.931,97.598 316.673,97.596 316.931 C 97.594 317.189,96.964 318.190,96.196 319.156 C 95.428 320.122,94.800 321.073,94.800 321.270 C 94.800 321.466,94.215 322.234,93.500 322.977 C 91.156 325.411,89.549 327.594,89.800 328.001 C 90.409 328.985,94.738 328.214,96.800 326.754 C 97.350 326.365,98.820 325.757,100.066 325.404 C 101.313 325.052,102.544 324.508,102.803 324.196 C 103.061 323.885,104.291 323.250,105.536 322.786 C 106.781 322.322,108.160 321.610,108.600 321.203 C 109.040 320.797,110.210 320.153,111.200 319.772 C 112.190 319.392,113.450 318.680,114.000 318.191 C 114.550 317.702,115.470 317.054,116.044 316.751 C 117.843 315.802,122.885 312.018,125.573 309.600 C 126.428 308.830,127.334 308.020,127.584 307.800 C 127.973 307.458,130.537 304.752,135.162 299.800 C 135.779 299.140,136.493 298.199,136.751 297.709 C 137.985 295.359,141.076 296.142,143.062 299.308 C 143.645 300.239,144.635 301.626,145.261 302.391 C 145.888 303.156,146.400 303.943,146.400 304.138 C 146.400 304.334,146.895 305.079,147.500 305.793 C 148.555 307.038,150.171 309.699,151.734 312.761 C 152.138 313.553,152.884 314.830,153.391 315.600 C 153.899 316.370,154.535 317.699,154.806 318.554 C 155.077 319.409,155.726 320.739,156.248 321.509 C 156.771 322.280,157.382 323.650,157.607 324.555 C 157.832 325.460,158.460 327.115,159.004 328.233 C 159.548 329.352,160.110 330.882,160.253 331.633 C 161.053 335.843,162.171 334.862,162.798 329.400 C 163.050 327.200,163.623 323.960,164.071 322.200 C 165.784 315.471,165.748 296.549,164.010 290.450 C 163.548 288.827,162.982 286.037,162.753 284.250 C 162.499 282.267,161.899 280.065,161.213 278.600 C 160.595 277.280,159.963 275.390,159.809 274.400 C 159.655 273.410,159.092 271.925,158.559 271.100 C 158.025 270.275,157.220 268.614,156.769 267.408 C 156.317 266.202,155.776 265.109,155.566 264.979 C 155.357 264.850,154.732 263.850,154.179 262.758 C 153.625 261.666,152.819 260.419,152.386 259.986 C 150.889 258.489,153.154 255.071,156.343 254.019 C 157.204 253.735,158.514 252.985,159.254 252.352 C 159.994 251.719,160.796 251.201,161.036 251.201 C 161.729 251.199,170.416 242.728,171.086 241.400 C 171.419 240.740,172.094 239.750,172.586 239.200 C 173.078 238.650,173.792 237.390,174.173 236.400 C 174.555 235.410,175.236 234.000,175.687 233.266 C 177.322 230.607,179.278 218.858,178.444 216.700 C 177.948 215.413,176.065 215.158,175.155 216.254 M171.120 226.880 C 171.992 227.752,171.697 230.945,170.595 232.570 C 170.042 233.385,169.313 234.715,168.976 235.526 C 168.638 236.337,168.015 237.360,167.592 237.800 C 167.169 238.240,166.010 239.548,165.017 240.706 C 163.374 242.624,161.513 244.336,157.901 247.254 C 157.183 247.833,155.877 248.606,154.998 248.972 C 154.119 249.338,152.770 250.059,152.000 250.575 C 151.230 251.091,149.640 251.734,148.466 252.004 C 144.894 252.827,141.452 257.200,144.377 257.200 C 144.800 257.200,149.200 263.674,149.200 264.297 C 149.200 264.540,149.657 265.282,150.217 265.947 C 150.776 266.611,151.524 268.009,151.880 269.053 C 152.236 270.097,152.937 271.556,153.439 272.296 C 153.941 273.035,154.558 274.635,154.810 275.850 C 155.063 277.065,155.702 278.901,156.231 279.930 C 156.787 281.010,157.374 283.152,157.621 285.000 C 157.856 286.760,158.408 289.424,158.847 290.920 C 161.751 300.813,160.437 316.291,157.151 310.900 C 156.648 310.075,155.919 309.169,155.531 308.886 C 155.143 308.604,154.466 307.559,154.026 306.566 C 153.586 305.572,152.851 304.273,152.391 303.679 C 151.512 302.544,150.333 300.862,148.553 298.200 C 147.964 297.320,147.014 296.020,146.441 295.310 C 145.869 294.601,144.770 293.195,144.000 292.185 C 143.230 291.176,141.713 289.436,140.628 288.320 L 138.656 286.290 137.915 287.245 C 137.507 287.770,136.846 288.560,136.446 289.000 C 136.045 289.440,135.397 290.430,135.004 291.200 C 134.612 291.970,133.686 293.276,132.945 294.101 C 132.205 294.927,131.600 295.759,131.600 295.950 C 131.600 296.316,122.559 305.415,120.314 307.308 C 117.472 309.704,115.330 311.230,113.800 311.947 C 112.920 312.359,111.876 313.059,111.480 313.502 C 108.753 316.552,104.303 314.665,106.784 311.511 C 107.216 310.962,107.943 309.514,108.399 308.293 C 108.856 307.072,109.495 305.853,109.819 305.584 C 110.143 305.315,110.699 304.084,111.054 302.848 C 111.410 301.611,112.121 299.876,112.635 298.991 C 113.149 298.106,113.774 296.396,114.024 295.191 C 114.275 293.986,114.920 292.233,115.459 291.296 C 115.998 290.358,116.687 288.198,116.990 286.496 C 117.293 284.793,117.940 282.506,118.428 281.413 C 118.952 280.237,119.532 277.656,119.848 275.091 C 120.141 272.706,120.740 269.596,121.177 268.179 C 122.156 265.010,122.729 258.150,122.978 246.600 C 123.209 235.901,122.890 236.470,128.425 236.859 C 138.383 237.560,147.571 237.043,150.347 235.627 C 151.242 235.170,153.064 234.543,154.395 234.232 C 155.725 233.922,157.576 233.227,158.507 232.688 C 159.438 232.149,160.880 231.488,161.710 231.220 C 162.541 230.951,163.711 230.323,164.310 229.824 C 164.910 229.324,166.053 228.703,166.852 228.443 C 167.650 228.183,168.623 227.617,169.014 227.185 C 169.829 226.284,170.436 226.196,171.120 226.880 M248.225 227.241 C 248.375 227.483,249.139 227.950,249.923 228.277 C 250.708 228.605,251.901 229.284,252.575 229.787 C 253.249 230.290,254.520 230.923,255.400 231.193 C 256.280 231.464,257.630 232.109,258.400 232.627 C 259.170 233.144,260.790 233.777,262.000 234.033 C 263.210 234.290,265.049 234.927,266.087 235.450 C 268.821 236.827,274.629 237.369,283.000 237.029 C 295.009 236.541,293.800 235.447,294.132 247.105 C 294.508 260.334,295.039 266.612,296.018 269.421 C 296.474 270.730,297.106 273.739,297.422 276.110 C 297.739 278.480,298.424 281.450,298.944 282.710 C 299.464 283.969,300.111 286.164,300.382 287.587 C 300.653 289.009,301.309 291.030,301.840 292.078 C 302.370 293.126,303.000 294.932,303.239 296.091 C 303.479 297.251,304.093 298.849,304.604 299.642 C 305.116 300.435,305.811 302.016,306.150 303.156 C 306.488 304.295,307.137 305.749,307.591 306.387 C 308.045 307.025,308.673 308.272,308.985 309.159 C 309.298 310.045,309.935 311.286,310.402 311.917 C 311.219 313.022,311.226 314.890,310.415 315.391 C 309.945 315.681,305.963 314.103,305.039 313.259 C 304.577 312.838,303.570 312.178,302.800 311.791 C 300.362 310.568,295.225 306.249,290.322 301.300 C 286.320 297.259,284.225 294.753,282.200 291.580 C 278.342 285.536,278.925 285.866,276.502 288.350 C 272.757 292.189,272.000 293.046,272.000 293.451 C 272.000 293.676,271.533 294.297,270.962 294.830 C 270.391 295.364,269.650 296.340,269.314 297.000 C 268.637 298.333,266.781 300.969,265.099 302.987 C 264.493 303.714,263.707 305.004,263.352 305.854 C 262.997 306.704,262.232 307.958,261.653 308.641 C 261.074 309.323,260.286 310.462,259.902 311.171 C 256.793 316.908,255.482 298.261,258.388 289.635 C 258.808 288.390,259.418 285.712,259.744 283.683 C 260.071 281.654,260.697 279.411,261.136 278.697 C 261.574 277.984,262.233 276.230,262.599 274.800 C 262.965 273.370,263.580 271.840,263.966 271.400 C 264.351 270.960,264.984 269.738,265.372 268.684 C 265.761 267.631,266.470 266.281,266.948 265.684 C 267.426 265.088,268.140 263.894,268.535 263.032 C 269.285 261.392,270.129 260.181,272.300 257.630 C 274.391 255.173,273.231 253.472,268.465 252.011 C 265.967 251.245,261.328 248.825,259.292 247.227 C 255.458 244.217,251.529 240.624,251.036 239.676 C 250.728 239.084,250.009 238.164,249.438 237.630 C 248.867 237.097,248.400 236.461,248.400 236.217 C 248.400 235.973,247.770 234.795,247.000 233.600 C 245.620 231.459,245.186 229.144,245.843 227.433 C 246.119 226.712,247.814 226.576,248.225 227.241 M231.327 240.585 C 229.387 242.226,227.170 244.123,226.400 244.800 C 222.658 248.089,217.111 252.000,216.188 252.000 C 215.942 252.000,215.321 252.445,214.809 252.990 C 214.298 253.534,213.052 254.284,212.040 254.657 C 211.028 255.029,209.840 255.650,209.400 256.037 C 208.960 256.423,207.647 257.114,206.482 257.571 C 205.317 258.028,203.877 258.751,203.282 259.177 C 202.687 259.603,201.390 260.157,200.400 260.408 C 199.410 260.660,197.880 261.280,197.000 261.787 C 196.120 262.294,194.245 263.003,192.833 263.363 C 191.421 263.723,189.693 264.372,188.993 264.804 C 188.294 265.236,186.360 265.851,184.696 266.169 C 183.031 266.488,180.954 267.113,180.080 267.559 C 179.206 268.005,177.255 268.559,175.745 268.789 C 167.712 270.016,165.331 271.295,166.462 273.777 C 167.019 274.998,167.241 275.011,173.604 274.183 C 176.397 273.820,179.323 273.169,180.728 272.598 C 182.039 272.065,184.320 271.436,185.797 271.200 C 187.274 270.964,189.361 270.327,190.433 269.783 C 191.505 269.240,193.332 268.597,194.491 268.355 C 195.651 268.113,197.500 267.419,198.600 266.814 C 199.700 266.208,201.452 265.485,202.492 265.207 C 203.533 264.928,204.581 264.463,204.822 264.174 C 205.062 263.884,206.504 263.172,208.027 262.590 C 209.549 262.008,210.899 261.363,211.027 261.157 C 211.154 260.950,212.391 260.268,213.775 259.640 C 215.159 259.013,216.413 258.302,216.562 258.061 C 216.711 257.820,217.591 257.254,218.517 256.802 C 220.453 255.858,223.830 253.609,225.000 252.482 C 225.440 252.059,226.394 251.408,227.121 251.035 C 227.847 250.663,228.544 250.091,228.669 249.764 C 228.794 249.438,229.370 248.917,229.948 248.607 C 232.986 246.981,237.626 241.833,237.352 240.392 C 236.657 236.740,235.840 236.766,231.327 240.585 M108.803 253.989 C 108.475 254.197,107.215 254.484,106.003 254.628 C 104.792 254.772,102.630 255.389,101.200 255.999 C 99.770 256.609,97.102 257.320,95.271 257.580 C 93.440 257.840,90.650 258.473,89.071 258.988 C 87.492 259.503,84.130 260.129,81.600 260.379 C 74.808 261.049,73.909 261.345,74.492 262.712 C 75.264 264.520,75.524 264.695,78.517 265.420 C 80.102 265.804,82.210 266.533,83.200 267.041 C 84.190 267.549,86.237 268.159,87.749 268.398 C 89.261 268.636,91.536 269.268,92.805 269.802 C 94.110 270.351,96.737 270.968,98.856 271.223 C 100.915 271.471,103.584 272.017,104.786 272.437 C 107.599 273.419,107.500 273.437,108.276 271.811 C 109.593 269.048,107.256 267.369,100.691 266.361 C 97.238 265.830,95.066 265.003,95.298 264.307 C 95.552 263.544,103.395 260.462,106.782 259.795 C 110.188 259.124,110.733 258.725,111.067 256.663 C 111.405 254.585,110.169 253.126,108.803 253.989 " stroke="none" fill="#f9f9f0" fill-rule="evenodd"></path><path id="path1" d="M0.000 200.000 L 0.000 400.000 200.000 400.000 L 400.000 400.000 400.000 200.000 L 400.000 0.000 200.000 0.000 L 0.000 0.000 0.000 200.000 M128.400 66.981 C 129.170 67.391,130.700 68.174,131.800 68.721 C 132.900 69.269,134.187 70.095,134.661 70.558 C 135.135 71.021,136.440 72.299,137.561 73.398 C 138.682 74.497,139.600 75.587,139.600 75.820 C 139.600 76.053,140.156 77.121,140.836 78.193 C 141.556 79.328,142.319 81.321,142.661 82.964 C 143.307 86.062,144.403 88.165,145.736 88.863 C 148.027 90.063,156.064 97.784,157.075 99.755 C 157.425 100.440,158.130 101.500,158.640 102.112 C 159.151 102.723,159.689 103.893,159.837 104.712 C 160.785 109.963,163.778 114.793,166.086 114.799 C 166.463 114.799,167.363 115.302,168.086 115.916 C 168.809 116.529,169.782 117.294,170.250 117.616 C 170.717 117.937,172.093 118.972,173.307 119.916 L 175.516 121.633 179.585 120.424 C 182.793 119.471,184.323 119.229,186.819 119.282 C 190.770 119.366,191.545 118.228,189.838 114.849 C 189.546 114.272,189.087 112.864,188.819 111.720 C 188.550 110.576,188.051 109.408,187.710 109.125 C 187.369 108.843,186.743 107.799,186.318 106.806 C 185.894 105.813,185.213 104.640,184.806 104.200 C 183.634 102.932,181.200 99.169,181.200 98.624 C 181.200 98.061,182.872 97.200,183.964 97.200 C 184.706 97.200,188.400 100.838,188.400 101.569 C 188.400 101.791,188.919 102.564,189.554 103.287 C 190.189 104.010,190.941 105.377,191.225 106.324 C 191.806 108.266,194.524 111.600,195.525 111.600 C 195.887 111.600,196.825 110.925,197.609 110.100 C 201.375 106.140,202.859 105.669,210.010 106.162 L 213.905 106.430 215.482 104.639 C 216.350 103.653,217.279 102.114,217.548 101.217 C 217.816 100.320,218.568 98.981,219.218 98.241 C 219.868 97.500,220.401 96.738,220.402 96.547 C 220.406 95.866,224.380 92.379,226.075 91.569 C 227.024 91.115,228.520 90.352,229.400 89.872 C 231.819 88.554,241.116 88.565,243.200 89.889 C 243.970 90.379,245.500 91.228,246.600 91.777 C 247.700 92.325,248.997 93.067,249.483 93.425 C 251.394 94.832,252.771 89.835,251.990 84.330 C 251.522 81.028,252.035 79.788,254.164 79.079 C 255.766 78.545,256.370 79.352,256.824 82.635 C 257.518 87.651,257.827 87.997,260.716 86.991 C 266.262 85.059,279.900 85.546,281.286 87.725 C 282.200 89.163,281.121 91.060,277.091 95.094 C 275.941 96.245,274.238 97.955,273.306 98.894 C 271.411 100.802,271.210 101.682,272.433 102.704 C 272.891 103.087,273.708 104.210,274.248 105.200 C 274.788 106.190,275.628 107.630,276.115 108.400 C 277.168 110.066,277.405 122.217,276.449 125.538 C 276.054 126.909,276.048 128.384,276.418 132.538 C 277.171 140.999,276.797 160.583,275.845 162.511 C 274.177 165.888,270.909 166.777,271.106 163.800 C 271.164 162.920,271.316 156.889,271.444 150.397 C 271.747 135.048,271.828 135.182,265.595 140.800 C 262.131 143.922,256.258 148.572,252.800 150.932 C 247.945 154.246,246.510 158.249,249.502 160.138 C 250.328 160.660,251.258 161.562,251.570 162.143 C 251.881 162.724,252.278 163.200,252.454 163.200 C 254.554 163.200,254.717 174.139,252.650 176.390 C 252.140 176.945,251.461 177.794,251.141 178.275 C 249.943 180.078,245.296 182.107,241.888 182.314 C 237.979 182.553,237.424 183.111,237.086 187.148 C 236.203 197.680,221.906 202.369,214.193 194.656 C 212.433 192.896,210.571 189.011,210.141 186.200 C 209.502 182.035,209.492 182.029,203.709 182.275 L 199.000 182.476 195.910 180.444 C 193.423 178.809,192.623 178.024,191.812 176.424 C 190.491 173.816,188.184 172.400,185.258 172.400 C 181.646 172.400,173.110 170.860,171.922 169.995 C 171.330 169.563,170.028 168.753,169.031 168.196 L 167.216 167.184 166.408 167.992 C 165.633 168.767,165.600 169.292,165.600 180.900 C 165.599 194.314,165.180 200.369,164.019 203.744 C 163.593 204.983,163.034 207.482,162.776 209.298 C 162.518 211.114,161.813 213.770,161.210 215.200 C 160.606 216.630,160.011 218.093,159.887 218.450 C 159.577 219.351,156.016 221.692,155.347 221.435 C 154.442 221.088,154.717 218.524,155.965 215.667 C 156.626 214.153,157.406 211.271,157.770 209.000 C 158.122 206.800,158.797 203.380,159.271 201.400 C 160.248 197.313,160.602 169.387,159.724 165.600 C 159.494 164.610,158.985 162.540,158.592 161.000 C 158.200 159.460,157.716 157.516,157.518 156.679 C 157.320 155.842,156.762 154.769,156.279 154.295 C 155.796 153.820,155.040 152.861,154.600 152.163 C 153.507 150.431,149.972 145.602,147.515 142.484 C 146.698 141.448,145.607 140.060,145.089 139.400 C 144.571 138.740,143.720 137.480,143.196 136.600 C 142.672 135.720,142.008 134.855,141.719 134.679 C 141.431 134.502,140.832 133.647,140.389 132.779 C 139.946 131.910,139.423 131.200,139.226 131.200 C 139.030 131.200,138.308 130.345,137.622 129.300 C 135.200 125.606,134.585 124.729,133.200 122.990 C 131.456 120.800,130.113 118.979,127.601 115.400 C 126.520 113.860,125.163 112.060,124.585 111.400 C 123.577 110.248,122.892 109.297,120.553 105.800 C 119.964 104.920,119.014 103.620,118.441 102.910 C 117.869 102.201,116.809 100.851,116.087 99.910 C 115.366 98.970,114.286 97.585,113.687 96.833 C 113.089 96.081,112.240 94.887,111.800 94.180 C 110.839 92.637,108.760 89.780,107.594 88.400 C 103.182 83.178,102.471 78.555,105.261 73.218 C 106.217 71.388,107.450 69.616,108.000 69.281 C 108.550 68.946,109.682 68.221,110.516 67.670 C 113.327 65.813,125.337 65.350,128.400 66.981 M115.800 70.845 C 113.824 71.294,112.003 72.013,111.991 72.349 C 111.986 72.487,111.358 73.292,110.596 74.138 C 108.126 76.881,107.928 80.124,110.069 82.755 C 110.581 83.385,111.313 84.417,111.695 85.050 C 112.077 85.682,113.195 87.280,114.179 88.600 C 115.164 89.920,116.283 91.450,116.666 92.000 C 117.050 92.550,117.957 93.676,118.682 94.501 C 119.407 95.327,120.000 96.176,120.000 96.387 C 120.000 96.599,120.495 97.294,121.100 97.932 C 121.705 98.569,122.508 99.611,122.884 100.246 C 123.260 100.881,124.384 102.480,125.381 103.800 C 126.379 105.120,127.653 106.830,128.212 107.600 C 128.771 108.370,130.034 110.080,131.019 111.400 C 132.004 112.720,133.123 114.329,133.505 114.975 C 133.887 115.621,134.650 116.609,135.200 117.171 C 135.750 117.733,136.560 118.758,137.000 119.449 C 137.440 120.140,138.376 121.491,139.081 122.452 C 139.786 123.414,140.866 124.887,141.481 125.727 C 142.096 126.568,143.185 127.939,143.900 128.776 C 144.615 129.612,145.200 130.472,145.200 130.686 C 145.200 130.901,145.569 131.410,146.019 131.817 C 146.470 132.225,147.473 133.603,148.248 134.879 C 149.024 136.156,149.786 137.200,149.943 137.200 C 150.099 137.200,150.561 137.785,150.970 138.500 C 151.378 139.215,152.052 140.160,152.467 140.600 C 153.191 141.368,153.873 142.299,156.275 145.800 C 156.878 146.680,157.918 148.065,158.586 148.879 C 160.587 151.317,161.755 152.872,162.600 154.224 C 164.921 157.940,169.033 162.453,171.460 163.950 C 174.511 165.832,177.724 165.324,175.683 163.283 C 173.344 160.944,173.803 149.709,176.346 147.031 C 176.989 146.354,178.006 144.819,178.605 143.620 L 179.695 141.440 178.739 140.620 C 178.214 140.169,177.317 139.433,176.746 138.985 C 175.291 137.843,174.569 136.265,173.816 132.585 C 173.457 130.833,172.997 128.770,172.792 128.000 C 172.400 126.526,169.672 123.597,167.392 122.200 C 166.673 121.760,165.661 121.094,165.143 120.720 C 163.341 119.421,161.005 119.359,159.786 120.578 C 158.377 121.987,158.382 121.998,157.766 116.383 C 157.350 112.583,156.981 111.001,156.061 109.067 C 155.416 107.710,154.782 106.135,154.653 105.566 C 154.524 104.998,153.883 103.828,153.229 102.966 C 151.053 100.101,148.209 96.800,147.917 96.800 C 147.758 96.800,147.075 96.260,146.400 95.600 C 145.026 94.257,144.104 94.119,142.395 95.002 C 140.945 95.752,140.675 95.358,139.806 91.227 C 139.479 89.673,138.955 87.788,138.642 87.038 C 138.329 86.289,137.867 84.686,137.616 83.476 C 136.984 80.432,133.207 75.679,128.898 72.503 C 126.593 70.805,119.771 69.941,115.800 70.845 M265.285 90.391 C 261.929 91.462,257.230 94.505,257.205 95.624 C 257.159 97.653,265.962 98.346,268.271 96.494 C 268.892 95.996,269.850 95.377,270.400 95.118 C 272.813 93.982,274.306 90.731,272.833 89.821 C 271.603 89.060,268.787 89.273,265.285 90.391 M232.080 94.420 C 230.527 95.043,226.663 98.390,225.474 100.142 C 224.855 101.054,224.036 102.160,223.655 102.600 C 222.639 103.771,221.078 107.906,221.368 108.660 C 221.584 109.224,222.022 109.263,224.708 108.962 C 235.401 107.763,240.391 109.966,243.106 117.083 C 244.851 121.657,244.913 122.239,244.018 125.600 C 242.857 129.958,242.899 130.185,245.173 131.819 C 246.891 133.053,249.044 135.674,250.694 138.542 C 250.966 139.014,251.191 139.875,251.194 140.456 C 251.211 143.459,254.032 143.943,257.211 141.487 C 261.540 138.143,268.204 130.712,269.041 128.294 C 269.288 127.582,269.950 126.319,270.514 125.489 C 271.998 123.302,272.676 116.079,271.863 111.110 C 271.261 107.430,266.241 103.207,262.452 103.193 C 255.031 103.165,250.777 101.815,246.159 98.020 C 244.952 97.028,243.572 96.134,241.037 94.701 C 239.666 93.926,233.772 93.741,232.080 94.420 M204.318 110.877 C 198.938 112.308,197.073 123.746,202.227 123.696 C 203.693 123.682,213.286 123.305,213.720 123.245 C 214.941 123.075,215.615 117.760,214.746 115.160 C 213.514 111.474,209.017 109.627,204.318 110.877 M226.502 113.614 C 221.581 115.217,218.576 121.479,220.641 125.830 C 222.818 130.418,225.868 131.982,229.330 130.286 C 230.507 129.710,232.513 129.158,233.980 129.007 C 238.500 128.543,240.206 126.559,239.912 122.112 C 239.461 115.292,233.312 111.395,226.502 113.614 M182.111 124.441 C 179.383 126.039,177.378 129.289,177.784 131.453 C 178.871 137.252,185.759 139.762,189.885 135.863 C 195.674 130.393,188.911 120.457,182.111 124.441 M203.400 129.195 C 198.912 132.157,197.586 133.710,196.232 137.586 C 194.192 143.423,195.890 148.497,201.270 152.649 C 204.470 155.118,207.180 154.750,208.576 151.654 C 209.440 149.738,212.584 146.695,214.400 146.017 C 218.804 144.374,220.263 142.609,220.649 138.461 C 221.010 134.579,219.857 132.775,215.031 129.668 C 212.499 128.037,205.580 127.756,203.400 129.195 M233.800 133.774 C 233.580 133.862,232.704 134.051,231.854 134.194 C 225.735 135.221,223.037 143.850,228.218 145.828 C 230.438 146.676,233.474 149.452,234.423 151.501 C 234.805 152.325,235.864 153.752,236.776 154.671 L 238.435 156.342 240.718 155.202 C 251.078 150.028,248.350 134.644,236.925 133.812 C 235.426 133.702,234.020 133.685,233.800 133.774 M185.343 145.567 C 181.923 146.423,178.400 151.469,178.400 155.513 C 178.400 163.838,188.662 168.940,192.051 162.300 C 192.472 161.475,192.972 160.800,193.162 160.800 C 193.785 160.800,196.820 157.423,197.068 156.453 C 197.258 155.710,196.998 155.221,195.855 154.174 C 195.055 153.441,194.400 152.676,194.400 152.475 C 194.400 152.274,193.880 151.456,193.245 150.656 C 192.609 149.857,191.972 148.574,191.828 147.806 C 191.452 145.806,188.484 144.781,185.343 145.567 M219.200 148.725 C 217.894 149.084,213.600 151.912,213.600 152.412 C 213.600 152.626,213.254 153.146,212.830 153.570 C 208.635 157.765,211.939 167.863,217.928 169.147 C 227.285 171.154,233.580 165.199,231.754 156.068 C 230.904 151.821,223.558 147.524,219.200 148.725 M124.879 159.943 C 128.598 160.833,131.382 163.054,134.400 167.537 C 134.768 168.083,135.800 168.637,137.068 168.969 C 141.076 170.019,145.204 175.879,144.665 179.755 C 144.335 182.128,142.336 185.768,140.016 188.221 C 138.910 189.390,138.084 190.584,138.181 190.874 C 138.277 191.163,138.723 192.624,139.171 194.121 C 139.706 195.903,140.437 197.312,141.293 198.207 C 144.928 202.005,145.134 202.387,145.797 206.524 C 147.137 214.896,144.055 220.684,136.749 223.513 C 132.599 225.120,130.255 225.190,127.260 223.796 C 126.083 223.248,124.823 222.801,124.460 222.801 C 124.097 222.802,122.503 221.429,120.918 219.750 C 117.253 215.869,116.997 214.867,117.399 206.019 C 117.717 199.032,117.317 197.026,115.526 196.617 C 115.017 196.501,113.787 196.233,112.793 196.022 C 109.462 195.315,106.698 193.797,105.000 191.743 L 103.400 189.808 103.400 185.926 L 103.400 182.044 104.783 180.618 C 106.148 179.209,106.169 179.136,106.429 174.696 C 106.667 170.624,106.829 169.919,108.140 167.224 C 110.501 162.370,112.528 160.924,119.000 159.472 C 120.584 159.117,121.850 159.218,124.879 159.943 M300.315 159.971 C 303.241 160.731,305.200 161.700,305.200 162.387 C 305.200 162.589,305.729 163.067,306.376 163.449 C 308.236 164.548,310.031 169.252,310.403 174.000 C 310.733 178.217,311.185 179.694,312.569 181.078 C 313.582 182.091,314.000 183.573,314.000 186.153 C 314.000 191.481,309.986 195.186,303.146 196.169 C 299.857 196.641,299.800 196.818,299.800 206.564 C 299.800 214.062,299.718 215.154,299.087 216.021 C 298.695 216.559,298.023 217.551,297.592 218.225 C 294.716 222.727,284.429 226.514,281.555 224.129 C 281.245 223.871,279.994 223.287,278.776 222.832 C 272.599 220.521,269.576 213.329,271.426 205.350 C 272.278 201.677,272.056 202.031,276.402 197.400 C 278.701 194.949,279.064 189.747,277.043 188.206 C 273.558 185.547,271.248 178.596,272.906 175.753 C 273.178 175.287,273.760 174.271,274.200 173.496 C 275.365 171.442,278.195 169.242,280.054 168.945 C 281.155 168.769,281.893 168.338,282.514 167.509 C 288.031 160.138,292.946 158.057,300.315 159.971 M199.379 162.239 C 194.385 164.011,192.526 170.868,196.054 174.503 C 196.904 175.379,197.600 176.241,197.600 176.417 C 197.600 177.831,205.216 177.938,207.087 176.550 C 209.964 174.417,210.631 171.212,208.942 167.639 C 206.312 162.071,203.818 160.663,199.379 162.239 M239.368 162.830 C 235.163 164.051,233.135 170.538,235.928 173.833 C 238.578 176.960,238.834 177.156,240.619 177.424 C 246.535 178.311,250.651 173.648,249.219 167.680 C 248.227 163.545,244.027 161.477,239.368 162.830 M117.243 165.205 C 116.057 165.631,115.039 166.030,114.980 166.090 C 111.876 169.312,110.782 174.038,112.438 177.070 C 113.604 179.205,112.944 180.922,110.409 182.347 C 108.657 183.331,108.400 183.820,108.400 186.163 C 108.400 187.985,108.993 188.745,111.485 190.119 C 112.868 190.881,117.295 189.261,117.861 187.785 C 118.275 186.706,119.166 187.186,119.558 188.700 C 119.771 189.525,120.156 191.003,120.412 191.985 C 120.708 193.122,121.441 194.335,122.430 195.324 L 123.982 196.876 125.365 196.021 C 126.126 195.551,127.787 194.997,129.056 194.791 C 132.384 194.249,133.011 193.491,132.401 190.749 C 131.596 187.134,131.864 186.379,134.446 185.000 C 139.463 182.319,140.537 179.961,138.346 176.437 C 136.998 174.267,136.975 174.254,133.445 173.626 C 130.544 173.110,130.211 172.841,129.384 170.352 C 127.781 165.527,122.533 163.302,117.243 165.205 M293.059 164.983 C 290.541 165.703,289.387 166.815,287.852 169.995 C 286.469 172.861,285.685 173.435,282.627 173.822 C 275.997 174.659,276.052 181.885,282.714 185.036 C 285.546 186.376,285.692 187.094,284.178 192.266 C 283.837 193.430,285.226 194.316,288.134 194.789 C 289.363 194.989,290.923 195.563,291.601 196.064 C 293.472 197.447,295.393 195.410,297.233 190.092 C 298.281 187.064,298.348 187.006,299.544 188.108 C 300.125 188.643,301.447 189.480,302.482 189.968 L 304.365 190.854 306.192 189.784 C 309.749 187.699,309.897 184.668,306.552 182.367 C 303.862 180.516,303.324 179.166,304.440 177.071 C 308.061 170.278,300.949 162.725,293.059 164.983 M221.600 176.168 C 217.822 177.248,217.470 177.550,215.101 181.758 C 211.140 188.792,221.703 197.333,228.540 192.624 C 235.046 188.143,233.997 178.893,226.703 176.430 C 223.888 175.479,223.992 175.485,221.600 176.168 M268.634 187.808 C 269.575 190.091,269.593 190.291,269.035 192.200 C 268.713 193.300,268.332 194.830,268.188 195.600 C 268.044 196.370,267.508 197.649,266.996 198.442 C 266.484 199.235,265.779 200.847,265.430 202.025 C 265.080 203.202,264.365 204.804,263.840 205.583 C 263.315 206.362,262.664 207.720,262.394 208.600 C 262.123 209.480,261.576 210.560,261.178 211.000 C 260.780 211.440,260.101 212.610,259.669 213.600 C 258.856 215.468,256.258 218.578,255.712 218.337 C 252.736 217.027,252.105 215.944,253.345 214.273 C 253.864 213.573,254.498 212.378,254.753 211.617 C 255.008 210.857,255.570 209.858,256.002 209.398 C 256.434 208.938,257.143 207.528,257.578 206.264 C 258.013 205.000,258.735 203.500,259.183 202.931 C 259.631 202.361,260.191 201.154,260.428 200.248 C 260.666 199.342,261.273 197.964,261.778 197.187 C 262.283 196.410,262.898 194.834,263.144 193.686 C 263.675 191.212,266.661 185.087,267.242 185.281 C 267.465 185.355,268.091 186.492,268.634 187.808 M127.800 200.583 C 122.273 203.124,120.297 210.933,124.013 215.556 C 128.463 221.094,137.320 220.263,140.100 214.046 C 143.767 205.848,135.657 196.971,127.800 200.583 M282.000 200.290 C 281.670 200.415,280.841 200.986,280.157 201.559 C 279.473 202.131,278.546 202.898,278.096 203.262 C 276.898 204.233,275.868 208.150,276.132 210.736 C 277.362 222.797,294.787 221.818,294.798 209.687 C 294.803 202.887,288.113 197.975,282.000 200.290 M241.800 216.406 C 242.240 216.791,243.176 217.397,243.880 217.753 C 244.584 218.109,245.304 218.635,245.480 218.923 C 245.952 219.695,249.105 221.852,251.439 223.000 C 252.561 223.552,253.797 224.355,254.187 224.785 C 254.576 225.215,255.763 225.855,256.824 226.208 C 257.886 226.561,259.181 227.184,259.702 227.594 C 260.222 228.004,261.770 228.630,263.141 228.985 C 264.513 229.340,266.338 229.997,267.197 230.445 C 269.541 231.667,273.802 232.099,281.800 231.925 L 289.000 231.769 292.004 230.284 C 293.655 229.468,295.217 228.800,295.473 228.800 C 295.729 228.800,296.503 228.325,297.193 227.744 C 299.235 226.027,299.261 226.206,299.387 242.855 C 299.511 259.201,299.929 265.251,301.214 269.286 C 301.654 270.669,302.282 273.654,302.609 275.920 C 302.937 278.186,303.558 280.734,303.991 281.582 C 304.423 282.430,305.068 284.530,305.423 286.249 C 305.778 287.968,306.485 290.100,306.994 290.987 C 307.504 291.874,308.117 293.546,308.357 294.703 C 308.597 295.860,309.231 297.480,309.767 298.303 C 310.302 299.126,310.947 300.589,311.200 301.554 C 311.453 302.518,312.090 303.958,312.616 304.754 C 313.142 305.549,313.784 306.830,314.042 307.600 C 314.300 308.370,314.837 309.362,315.236 309.805 C 315.635 310.248,316.335 311.455,316.792 312.488 C 317.249 313.522,317.801 314.477,318.019 314.612 C 318.237 314.746,318.882 315.789,319.452 316.928 C 320.022 318.068,320.817 319.360,321.218 319.800 C 321.619 320.240,322.365 321.173,322.874 321.873 C 323.383 322.573,324.565 324.141,325.500 325.356 C 327.649 328.150,327.631 328.400,325.274 328.400 C 323.818 328.400,322.579 328.009,320.200 326.800 C 318.469 325.920,316.751 325.200,316.382 325.200 C 316.013 325.200,315.102 324.787,314.356 324.282 C 313.610 323.777,312.258 323.068,311.351 322.706 C 310.445 322.344,308.835 321.497,307.773 320.824 C 306.712 320.151,305.615 319.600,305.336 319.600 C 305.056 319.600,304.213 319.060,303.461 318.400 C 302.709 317.740,301.911 317.200,301.687 317.200 C 301.463 317.200,300.202 316.390,298.885 315.400 C 297.568 314.410,296.330 313.600,296.134 313.600 C 295.938 313.600,295.293 313.105,294.700 312.500 C 294.107 311.895,292.852 310.728,291.911 309.906 C 287.602 306.145,281.003 299.135,280.043 297.300 C 279.074 295.448,275.758 296.456,274.006 299.135 C 272.062 302.106,270.930 303.710,269.841 305.040 C 269.283 305.722,268.660 306.712,268.457 307.240 C 268.255 307.768,267.439 309.163,266.645 310.340 C 265.850 311.517,265.200 312.670,265.200 312.902 C 265.200 313.135,264.758 313.904,264.217 314.613 C 263.676 315.322,262.876 316.844,262.438 317.996 C 262.001 319.148,261.379 320.385,261.057 320.745 C 260.735 321.105,260.166 322.457,259.793 323.750 C 259.420 325.042,258.782 326.663,258.375 327.352 C 257.969 328.041,257.368 329.755,257.040 331.160 C 256.027 335.502,255.093 335.451,254.580 331.026 C 254.426 329.692,253.869 326.890,253.342 324.800 C 251.276 316.594,251.189 295.483,253.194 289.077 C 253.663 287.580,254.312 284.711,254.637 282.702 C 254.962 280.693,255.577 278.484,256.005 277.792 C 256.432 277.100,257.069 275.379,257.419 273.967 C 257.770 272.555,258.404 270.913,258.827 270.317 C 259.251 269.722,259.965 268.253,260.414 267.054 C 260.863 265.854,261.518 264.634,261.870 264.342 C 262.222 264.050,262.841 263.089,263.247 262.206 C 263.652 261.323,264.381 260.107,264.866 259.505 L 265.748 258.410 264.550 256.905 C 263.892 256.077,262.173 254.770,260.732 254.000 C 254.586 250.717,250.172 246.945,245.887 241.314 C 241.468 235.506,237.554 223.801,238.129 218.110 C 238.443 215.000,239.588 214.469,241.800 216.406 M178.444 216.700 C 179.278 218.858,177.322 230.607,175.687 233.266 C 175.236 234.000,174.555 235.410,174.173 236.400 C 173.792 237.390,173.078 238.650,172.586 239.200 C 172.094 239.750,171.419 240.740,171.086 241.400 C 170.416 242.728,161.729 251.199,161.036 251.201 C 160.796 251.201,159.994 251.719,159.254 252.352 C 158.514 252.985,157.204 253.735,156.343 254.019 C 153.154 255.071,150.889 258.489,152.386 259.986 C 152.819 260.419,153.625 261.666,154.179 262.758 C 154.732 263.850,155.357 264.850,155.566 264.979 C 155.776 265.109,156.317 266.202,156.769 267.408 C 157.220 268.614,158.025 270.275,158.559 271.100 C 159.092 271.925,159.655 273.410,159.809 274.400 C 159.963 275.390,160.595 277.280,161.213 278.600 C 161.899 280.065,162.499 282.267,162.753 284.250 C 162.982 286.037,163.548 288.827,164.010 290.450 C 165.748 296.549,165.784 315.471,164.071 322.200 C 163.623 323.960,163.050 327.200,162.798 329.400 C 162.171 334.862,161.053 335.843,160.253 331.633 C 160.110 330.882,159.548 329.352,159.004 328.233 C 158.460 327.115,157.832 325.460,157.607 324.555 C 157.382 323.650,156.771 322.280,156.248 321.509 C 155.726 320.739,155.077 319.409,154.806 318.554 C 154.535 317.699,153.899 316.370,153.391 315.600 C 152.884 314.830,152.138 313.553,151.734 312.761 C 150.171 309.699,148.555 307.038,147.500 305.793 C 146.895 305.079,146.400 304.334,146.400 304.138 C 146.400 303.943,145.888 303.156,145.261 302.391 C 144.635 301.626,143.645 300.239,143.062 299.308 C 141.076 296.142,137.985 295.359,136.751 297.709 C 136.493 298.199,135.779 299.140,135.162 299.800 C 130.537 304.752,127.973 307.458,127.584 307.800 C 127.334 308.020,126.428 308.830,125.573 309.600 C 122.885 312.018,117.843 315.802,116.044 316.751 C 115.470 317.054,114.550 317.702,114.000 318.191 C 113.450 318.680,112.190 319.392,111.200 319.772 C 110.210 320.153,109.040 320.797,108.600 321.203 C 108.160 321.610,106.781 322.322,105.536 322.786 C 104.291 323.250,103.061 323.885,102.803 324.196 C 102.544 324.508,101.313 325.052,100.066 325.404 C 98.820 325.757,97.350 326.365,96.800 326.754 C 94.738 328.214,90.409 328.985,89.800 328.001 C 89.549 327.594,91.156 325.411,93.500 322.977 C 94.215 322.234,94.800 321.466,94.800 321.270 C 94.800 321.073,95.428 320.122,96.196 319.156 C 96.964 318.190,97.594 317.189,97.596 316.931 C 97.598 316.673,98.046 315.931,98.592 315.282 C 99.138 314.634,99.930 313.315,100.353 312.352 C 100.775 311.388,101.589 309.980,102.161 309.222 C 102.732 308.465,103.200 307.603,103.200 307.308 C 103.200 307.013,103.920 305.413,104.800 303.752 C 105.680 302.091,106.400 300.412,106.400 300.022 C 106.400 299.631,106.856 298.640,107.413 297.818 C 107.971 296.997,108.664 295.306,108.955 294.061 C 109.245 292.816,109.881 291.017,110.367 290.064 C 110.854 289.110,111.508 286.994,111.820 285.361 C 112.133 283.727,112.753 281.677,113.198 280.804 C 113.644 279.930,114.202 277.817,114.439 276.108 C 114.843 273.189,115.247 271.207,116.620 265.400 C 117.413 262.050,118.073 247.533,117.925 236.722 C 117.788 226.782,117.958 225.893,119.695 227.476 C 120.193 227.929,122.220 229.065,124.200 230.000 L 127.800 231.699 135.200 231.898 C 143.217 232.113,147.476 231.688,149.950 230.425 C 150.767 230.009,152.479 229.395,153.755 229.062 C 155.032 228.729,156.734 228.014,157.538 227.474 C 158.342 226.934,159.461 226.387,160.024 226.258 C 160.587 226.129,161.667 225.579,162.424 225.035 C 163.181 224.492,164.520 223.676,165.400 223.221 C 166.280 222.765,168.080 221.587,169.400 220.603 C 170.720 219.618,172.433 218.384,173.206 217.860 C 173.979 217.337,174.856 216.614,175.155 216.254 C 176.065 215.158,177.948 215.413,178.444 216.700 M169.014 227.185 C 168.623 227.617,167.650 228.183,166.852 228.443 C 166.053 228.703,164.910 229.324,164.310 229.824 C 163.711 230.323,162.541 230.951,161.710 231.220 C 160.880 231.488,159.438 232.149,158.507 232.688 C 157.576 233.227,155.725 233.922,154.395 234.232 C 153.064 234.543,151.242 235.170,150.347 235.627 C 147.571 237.043,138.383 237.560,128.425 236.859 C 122.890 236.470,123.209 235.901,122.978 246.600 C 122.729 258.150,122.156 265.010,121.177 268.179 C 120.740 269.596,120.141 272.706,119.848 275.091 C 119.532 277.656,118.952 280.237,118.428 281.413 C 117.940 282.506,117.293 284.793,116.990 286.496 C 116.687 288.198,115.998 290.358,115.459 291.296 C 114.920 292.233,114.275 293.986,114.024 295.191 C 113.774 296.396,113.149 298.106,112.635 298.991 C 112.121 299.876,111.410 301.611,111.054 302.848 C 110.699 304.084,110.143 305.315,109.819 305.584 C 109.495 305.853,108.856 307.072,108.399 308.293 C 107.943 309.514,107.216 310.962,106.784 311.511 C 104.303 314.665,108.753 316.552,111.480 313.502 C 111.876 313.059,112.920 312.359,113.800 311.947 C 115.330 311.230,117.472 309.704,120.314 307.308 C 122.559 305.415,131.600 296.316,131.600 295.950 C 131.600 295.759,132.205 294.927,132.945 294.101 C 133.686 293.276,134.612 291.970,135.004 291.200 C 135.397 290.430,136.045 289.440,136.446 289.000 C 136.846 288.560,137.507 287.770,137.915 287.245 L 138.656 286.290 140.628 288.320 C 141.713 289.436,143.230 291.176,144.000 292.185 C 144.770 293.195,145.869 294.601,146.441 295.310 C 147.014 296.020,147.964 297.320,148.553 298.200 C 150.333 300.862,151.512 302.544,152.391 303.679 C 152.851 304.273,153.586 305.572,154.026 306.566 C 154.466 307.559,155.143 308.604,155.531 308.886 C 155.919 309.169,156.648 310.075,157.151 310.900 C 160.437 316.291,161.751 300.813,158.847 290.920 C 158.408 289.424,157.856 286.760,157.621 285.000 C 157.374 283.152,156.787 281.010,156.231 279.930 C 155.702 278.901,155.063 277.065,154.810 275.850 C 154.558 274.635,153.941 273.035,153.439 272.296 C 152.937 271.556,152.236 270.097,151.880 269.053 C 151.524 268.009,150.776 266.611,150.217 265.947 C 149.657 265.282,149.200 264.540,149.200 264.297 C 149.200 263.674,144.800 257.200,144.377 257.200 C 141.452 257.200,144.894 252.827,148.466 252.004 C 149.640 251.734,151.230 251.091,152.000 250.575 C 152.770 250.059,154.119 249.338,154.998 248.972 C 155.877 248.606,157.183 247.833,157.901 247.254 C 161.513 244.336,163.374 242.624,165.017 240.706 C 166.010 239.548,167.169 238.240,167.592 237.800 C 168.015 237.360,168.638 236.337,168.976 235.526 C 169.313 234.715,170.042 233.385,170.595 232.570 C 172.732 229.420,171.326 224.630,169.014 227.185 M245.843 227.433 C 245.186 229.144,245.620 231.459,247.000 233.600 C 247.770 234.795,248.400 235.973,248.400 236.217 C 248.400 236.461,248.867 237.097,249.438 237.630 C 250.009 238.164,250.728 239.084,251.036 239.676 C 251.529 240.624,255.458 244.217,259.292 247.227 C 261.328 248.825,265.967 251.245,268.465 252.011 C 273.231 253.472,274.391 255.173,272.300 257.630 C 270.129 260.181,269.285 261.392,268.535 263.032 C 268.140 263.894,267.426 265.088,266.948 265.684 C 266.470 266.281,265.761 267.631,265.372 268.684 C 264.984 269.738,264.351 270.960,263.966 271.400 C 263.580 271.840,262.965 273.370,262.599 274.800 C 262.233 276.230,261.574 277.984,261.136 278.697 C 260.697 279.411,260.071 281.654,259.744 283.683 C 259.418 285.712,258.808 288.390,258.388 289.635 C 255.482 298.261,256.793 316.908,259.902 311.171 C 260.286 310.462,261.074 309.323,261.653 308.641 C 262.232 307.958,262.997 306.704,263.352 305.854 C 263.707 305.004,264.493 303.714,265.099 302.987 C 266.781 300.969,268.637 298.333,269.314 297.000 C 269.650 296.340,270.391 295.364,270.962 294.830 C 271.533 294.297,272.000 293.676,272.000 293.451 C 272.000 293.046,272.757 292.189,276.502 288.350 C 278.925 285.866,278.342 285.536,282.200 291.580 C 285.159 296.216,291.431 302.945,297.240 307.718 C 300.643 310.514,301.489 311.134,302.800 311.791 C 303.570 312.178,304.577 312.838,305.039 313.259 C 305.963 314.103,309.945 315.681,310.415 315.391 C 311.226 314.890,311.219 313.022,310.402 311.917 C 309.935 311.286,309.298 310.045,308.985 309.159 C 308.673 308.272,308.045 307.025,307.591 306.387 C 307.137 305.749,306.488 304.295,306.150 303.156 C 305.811 302.016,305.116 300.435,304.604 299.642 C 304.093 298.849,303.479 297.251,303.239 296.091 C 303.000 294.932,302.370 293.126,301.840 292.078 C 301.309 291.030,300.653 289.009,300.382 287.587 C 300.111 286.164,299.464 283.969,298.944 282.710 C 298.424 281.450,297.739 278.480,297.422 276.110 C 297.106 273.739,296.474 270.730,296.018 269.421 C 295.039 266.612,294.508 260.334,294.132 247.105 C 293.800 235.447,295.009 236.541,283.000 237.029 C 274.629 237.369,268.821 236.827,266.087 235.450 C 265.049 234.927,263.210 234.290,262.000 234.033 C 260.790 233.777,259.170 233.144,258.400 232.627 C 257.630 232.109,256.280 231.464,255.400 231.193 C 254.520 230.923,253.249 230.290,252.575 229.787 C 251.901 229.284,250.708 228.605,249.923 228.277 C 249.139 227.950,248.375 227.483,248.225 227.241 C 247.814 226.576,246.119 226.712,245.843 227.433 M236.730 238.300 C 238.149 241.077,234.959 245.925,229.948 248.607 C 229.370 248.917,228.794 249.438,228.669 249.764 C 228.544 250.091,227.847 250.663,227.121 251.035 C 226.394 251.408,225.440 252.059,225.000 252.482 C 223.830 253.609,220.453 255.858,218.517 256.802 C 217.591 257.254,216.711 257.820,216.562 258.061 C 216.413 258.302,215.159 259.013,213.775 259.640 C 212.391 260.268,211.154 260.950,211.027 261.157 C 210.899 261.363,209.549 262.008,208.027 262.590 C 206.504 263.172,205.062 263.884,204.822 264.174 C 204.581 264.463,203.533 264.928,202.492 265.207 C 201.452 265.485,199.700 266.208,198.600 266.814 C 197.500 267.419,195.651 268.113,194.491 268.355 C 193.332 268.597,191.505 269.240,190.433 269.783 C 189.361 270.327,187.274 270.964,185.797 271.200 C 184.320 271.436,182.039 272.065,180.728 272.598 C 179.323 273.169,176.397 273.820,173.604 274.183 C 167.241 275.011,167.019 274.998,166.462 273.777 C 165.331 271.295,167.712 270.016,175.745 268.789 C 177.255 268.559,179.206 268.005,180.080 267.559 C 180.954 267.113,183.031 266.488,184.696 266.169 C 186.360 265.851,188.294 265.236,188.993 264.804 C 189.693 264.372,191.421 263.723,192.833 263.363 C 194.245 263.003,196.120 262.294,197.000 261.787 C 197.880 261.280,199.410 260.660,200.400 260.408 C 201.390 260.157,202.687 259.603,203.282 259.177 C 203.877 258.751,205.317 258.028,206.482 257.571 C 207.647 257.114,208.960 256.423,209.400 256.037 C 209.840 255.650,211.028 255.029,212.040 254.657 C 213.052 254.284,214.298 253.534,214.809 252.990 C 215.321 252.445,215.942 252.000,216.188 252.000 C 217.111 252.000,222.658 248.089,226.400 244.800 C 234.421 237.751,235.955 236.785,236.730 238.300 M110.592 254.391 C 112.544 256.548,110.815 259.000,106.782 259.795 C 103.395 260.462,95.552 263.544,95.298 264.307 C 95.066 265.003,97.238 265.830,100.691 266.361 C 107.256 267.369,109.593 269.048,108.276 271.811 C 107.500 273.437,107.599 273.419,104.786 272.437 C 103.584 272.017,100.915 271.471,98.856 271.223 C 96.737 270.968,94.110 270.351,92.805 269.802 C 91.536 269.268,89.261 268.636,87.749 268.398 C 86.237 268.159,84.190 267.549,83.200 267.041 C 82.210 266.533,80.102 265.804,78.517 265.420 C 75.524 264.695,75.264 264.520,74.492 262.712 C 73.909 261.345,74.808 261.049,81.600 260.379 C 84.130 260.129,87.492 259.503,89.071 258.988 C 90.650 258.473,93.440 257.840,95.271 257.580 C 97.102 257.320,99.770 256.609,101.200 255.999 C 102.630 255.389,104.792 254.772,106.003 254.628 C 107.215 254.484,108.475 254.197,108.803 253.989 C 109.636 253.463,109.782 253.496,110.592 254.391 " stroke="none" fill="#9FB205" fill-rule="evenodd"></path></g></svg>