<svg width="72" height="72" xmlns="http://www.w3.org/2000/svg">
 <g>
  <title>background</title>
  <rect x="-1" y="-1" width="74" height="74" id="canvas_background" fill="none"/>
 </g>

 <g>
  <title>Layer 1</title>
     
/*"RGB(0,189,232)"*/
    <path fill="RGB(0,189,232)" stroke-width="1.5" d="m65.765549,65.045011l-4.04784,-7.0094c-1.22042,-2.11263 -3.21657,-5.57115 -4.43699,-7.68417l-4.04746,-7.00898c-1.22162,-2.11386 -3.21778,-2.11386 -4.43778,0l-4.04665,7.00898c-1.22041,2.11302 -3.21778,5.57235 -4.43778,7.68417l-4.04705,7.0094c-1.22042,2.11465 -0.22153,3.84309 2.21888,3.84309l25.06135,0c2.44285,0 3.44051,-1.72844 2.22131,-3.84309l0.00001,0z" id="svg_3" transform="rotate(90 51.01444625854492,55.32258605957032) " stroke="null"/>
     
/*"RGB(233,42,37)"*/
    <path fill="RGB(233,42,37)" stroke-width="1.5" d="m68.486439,46.035291l-3.99944,-6.92557c-1.20582,-2.08737 -3.1781,-5.50452 -4.38392,-7.59228l-3.99906,-6.92516c-1.20701,-2.08857 -3.17929,-2.08857 -4.3847,0l-3.99826,6.92516c-1.20582,2.08776 -3.17929,5.50571 -4.38471,7.59228l-3.99865,6.92557c-1.20582,2.08936 -0.21888,3.79713 2.19234,3.79713l24.76164,0c2.41364,0 3.39936,-1.70777 2.19475,-3.79713l0.00001,0z" id="svg_5" transform="rotate(-90 53.91173934936524,36.429141998291016) " stroke="null"/>
     
/*"RGB(178,189,21)"*/     
    <path fill="RGB(178,189,21)" stroke-width="1.5" d="m65.407699,28.644321l-4.53617,-7.855c-1.36764,-2.3675 -3.60461,-6.24324 -4.97225,-8.61118l-4.53575,-7.85452c-1.36899,-2.36887 -3.60596,-2.36887 -4.97313,0l-4.53484,7.85452c-1.36764,2.36794 -3.60596,6.24459 -4.97315,8.61118l-4.53528,7.855c-1.36764,2.36976 -0.24824,4.30671 2.48657,4.30671l28.0847,0c2.73755,0 3.85556,-1.93695 2.48928,-4.30671l0.00002,0z" id="svg_18" transform="rotate(90 48.87704849243165,17.74900054931641) "/>
/*"RGB(178,189,21)"*/
    <path fill="RGB(178,189,21)" stroke-width="1.5" d="m40.029349,28.644321l-4.53617,-7.855c-1.36764,-2.3675 -3.60461,-6.24324 -4.97225,-8.61118l-4.53574,-7.85452c-1.369,-2.36887 -3.60597,-2.36887 -4.97314,0l-4.53484,7.85452c-1.36764,2.36794 -3.60596,6.24459 -4.97314,8.61118l-4.53528,7.855c-1.36765,2.36976 -0.24825,4.30671 2.48656,4.30671l28.0847,0c2.73755,0 3.85556,-1.93695 2.48929,-4.30671l0.00001,0z" id="svg_24" transform="rotate(-90 23.49873542785645,17.749000549316406) "/>
     
     
 /*"RGB(0,67,125)"*/   
    <path fill="RGB(0,67,125)" stroke-width="1.5" d="m30.134119,45.757241l-4.53617,-7.855c-1.36764,-2.36749 -3.60461,-6.24323 -4.97225,-8.61117l-4.53574,-7.85453c-1.369,-2.36887 -3.60596,-2.36887 -4.97314,0l-4.53483,7.85453c-1.36765,2.36794 -3.60597,6.24458 -4.97315,8.61117l-4.53528,7.855c-1.36764,2.36976 -0.24825,4.30672 2.48656,4.30672l28.0847,0c2.73755,0 3.85557,-1.93696 2.48929,-4.30672l0.00001,0z" id="svg_25" transform="rotate(-30 13.603506088256834,34.8619270324707) "/>
  /*"RGB(0,67,125)"*/
    <path fill="RGB(0,67,125)" stroke-width="1.5" d="m43.013069,67.988081l-4.5472,-7.87412c-1.37098,-2.37325 -3.61339,-6.25842 -4.98435,-8.63212l-4.54679,-7.87364c-1.37232,-2.37463 -3.61472,-2.37463 -4.98523,0l-4.54587,7.87364c-1.37098,2.3737 -3.61474,6.25978 -4.98525,8.63212l-4.54632,7.87412c-1.37096,2.37552 -0.24884,4.3172 2.49262,4.3172l28.15303,0c2.74422,0 3.86495,-1.94168 2.49535,-4.3172l0.00001,0z" id="svg_26" transform="rotate(150 26.44223403930664,57.06625747680664) "/>
     
 </g>
</svg>